<mxfile host="app.diagrams.net" agent="Mozilla/5.0 (Windows NT 10.0; Win64; x64) AppleWebKit/537.36 (KHTML, like Gecko) Chrome/141.0.0.0 Safari/537.36" version="28.2.8">
  <diagram name="PÃ¡gina-1" id="eH8HkOaIygYkYMzQCSlb">
    <mxGraphModel dx="1012" dy="489" grid="1" gridSize="10" guides="1" tooltips="1" connect="1" arrows="1" fold="1" page="1" pageScale="1" pageWidth="827" pageHeight="1169" math="0" shadow="0">
      <root>
        <mxCell id="0" />
        <mxCell id="1" parent="0" />
        <mxCell id="F0qZPeJRunGCuvMz1pJv-31" value="" style="shape=image;verticalLabelPosition=bottom;labelBackgroundColor=default;verticalAlign=top;aspect=fixed;imageAspect=0;image=data:image/png,iVBORw0KGgoAAAANSUhEUgAAA5gAAAOEBAMAAAA28oNuAAAAJFBMVEXd3d3m5ubHx8f///8BAQHw8PCnp6eWlpbQ0NBgYGDAwMA5OTnId5g6AAAgAElEQVR42uydz3MTRxbHp806EeQyg+iUYS/2bLHRai8YRfxYLkuihBhdNIhJNpyyhSny4wLBJGG52NoQtORCES9Q5OISeNelPW1w4Zj957Z7fvZIM9KMND2a19PNqV0USPr4+/q973s9Umr2WtbsVagtrp2822juP/mM/KBuwH9HSoFhlmtrDXftf3OAApUwgW5rp3YbgbX/eU3CBLk1a/9pDK/m4wMSJrht7U+7jYi1t+2eoBImjO3Rxqi1/zebp4QJYFvfbIxbK1+TvyZh5n97moH2v92RPCXMnG/XmIRnW9PM1r/uRBHd/6uEmd8tDhQkj1sdnayuopk/RAHdv0birYSZw22ZLUhWtku6twhQ498/R/D8zOYpYeZoi9tsQfLIliWz1hE+FiFQytOUMPOzxbV/MKfltZIesioK/sv1cIHuPZcwc7NtLzMFyZ7W0SNWZR2Z4QG3+bgtYeZhWw8UJDfUSJZOwDXfCef5tZcO5RCm85Oy8yNRt+XaV0zmg0r62NVF5v1Qniu38/p+CwIzkPk8bXX0WKuLcDjPJwckzFltce0PrE9Q0uOvbkS8ZcKthJnlNpD5vDI6erLVReEFKK1WDAkz0y2ufcIQuLmgJ1+VRWR8EVZ/Pvk7kaeEmd22djdh5hNRr2iXwvyE5nfufyNh8t+eGen5JOKp4DfCwu3eAQkzm+2nk2Y+UelQ2PHZvCFhZrBdmybzibATWmHHJ5FnXcLkuWW6Xc2JMp+I4xNfuRPiJdyYeXIrMswf08h8wlf48fm4XDMlTA7bNjvnM13mE1l9Dofb/auzTG4FhYlTznzCq0985e5wMnRTwkx3y148aOwZHZ3TqpDsdliejyTM9LbBgYKbC9xY0rWohchzrz0bmCI2MJkJ55WNks55VRAelufKLMYSxIPZZkPss1ZHz2Ct42NDye3KVQlz2i07UBAx58NHnsNWfPOqhDnNNnC364LW0bNblXV8f/DWQ/N2pjMmYsFsn2E+zodqlizt2vPS3eGuSl3CnGAbKC5Xtkv6DNZwtCWFZ13CTLoN2uqtjj6TRaLtO4M4b9VMCTPZlo+tPlFu+/bPoZmthBl3e5SfrZ7C4blSljDjb9e42uoTlCqtAZzPJMyY21MzKS5H49xo3cm47BQD5o+xLpFknwsZXwRwvpYwx/t3My0ux6S2AZzN39UlzLj+3cq9kp6vVVkPnp3/rEuYkVvMXgh63erouVsVdIUtVH7haAhB72cyNw+atxf0XK4Keps5CD6QzemILRtita6e19Wdv+87Gi8lzNDtV/kqLke6Qv5rPSBhDs/fndjNXXE5Ym187L7c9yXMofm7o7PqXE56dGpuXithjpi/e6oCYEkToTft1/tcwmS37PwdgBDrjfJd2XVSIAnT3eLaQWAh1hPn4caudWhKmOWQLvRDFRBLos1PGhImu2VD7HZJh7Xu276BhGlvD2Zy84DXekBe9nsSprMNtEh0cKtLj3kJ09qemvn83ZRrib5yCZNu/5iD+bvp1nEJc/j+7M0FiCi3LJhNeQss313oWGtH7dEw21gufHMafojdURR9aVfCDGSxMEOs3lMIzMVNCfN0pvdnOTXBVEXpFR4mZmcpX8MMsXp1w1QU1FtcKzbMNoRBn7EslwhLArNSbJhtNsSiOags2yTIkjPTgmkWFCZm70I/Axpi9f5GvUVZKnaYnS8mTNYoaN4GmvmQ87JuWCyJMlfJOzleRJj1QIjVoLLs33NZKr3KC/JWrhURJmsUgA2xem/DNFXFVSaFebWIMNcgDvoMsZz3WZJs9nvybm4VDyYzUbCCoMpS30Gm6QZZokz9N+Tt/FQ4mEfBjKuPZKmxLJWefqSIMIUIsdUdDftB1lLmZY4w89nAbDOPDgE1SzmGJVGmBbNQzemDQoTY6iJl2WJYOsp8WSSYQoRYwtLAgQPTU2aBYJ4UIsRSliT5MQMsC6fMs+BuBEXFWMpSVQaUecQaaS8ITDFCrF5dt3TZUgaVWRyY7TNCGAXUWtfCWBJl/rYgMAMXaOF6sQ7LoeSnUDBNNsTeBhxiXZbmEEsSZosBk32MM9iJggBLVQlR5lsFgInZ1uVryCF2FEuizIPiwwxMh0Ad2vJZ0uTHCGFJlFkAmMx0CNi52BgsCwGTaV2+Ah1iPZamEgHzTdFhfgr+6oHP0hjFUrHvwb8v7C0wzFQkK0sl+Cyjkh9bmdZDDQxBm9PsI332YIdYO8biMOfHWSTs/CAwTDbEPoQdYn2WhqJEKpPC/LOYMJkHU4L21WOyLNnKPC8mzE0hWpc+Syv5USNhKvazYz4SESZzXD5qicByfgxLEmZFhXlWEF89qMvWCJZEmR3ydi+KB3M1P9/3lBVLosyukDA3RTF9nHmfcckPA/NDsWC2Twlj+iRhSQLQIoW5LBBM9oGxze0SfJZY01Q8Lvmxz8wlwWCyIwXgKxJ7Ds/W5ViWCzbMC+LAZKe2wFckDst4uqRn5nGhYLIjBeArkoAuW2NZlpwnIQoCs85M4EHvkfi5DzLHJz/OmclTmRk3MHHthX9cwg+xur6luQVmHJYL7jNKRWhOl5nxEMh3D7y147E0Y7D0wqwIMJneZVOA45KwxLETWdGU2T7LTG3N6YLoUo3PUhxlYuZBMK9EOC713nwyXYqjTHbU5+mCLgJL5Jp4sZIfJpsFD/PEpljHpaNLLRFLQcLsGVGGnL2F6HmZjKXrzTZhwzwtVnXpNjDnYxclAWXChumnsY9UQVh6xk8Clq7RDjrMviVQ75JhaZsFqpJImfTrEyArc1Wg3iUTY9XELAWAuSnEUwpYlktagk7JYJgFDBPXPAfvw5YgLK1GiYoTJrLwlWn6jehfVF0Qlr4uE7J0ldmAeQvsxK4oF0mCTa+JdOkpswGyOX1CpJmCIXPdTMrSUyZEmMuipbFu02t+MpaQlVnfFSyNdZvRyQtM+DB3xXLwPHMdTcoScJhdFap5aTe9pmNpTbRvAoSJz7kliShprF6d942fllIkmG2hGtEWSzSp8cOGWZAwzwpWXrqG7GQFJnBlvmux/FUglsbULKHCxKuCsbTM9cSTBWKE2TId37ooDkvLXE8w7iyUMsu0OdASh6WmTTJZIApMGmUPiwJzazrjRwSYTVFg2iYewtOytGCu8YPJrZ9JLdk5kcx1bXqWNAGyvkEcWnNaHJi2LtVpzIJBZQKEeUEImD1tauOHhQlRmSfp0I9lsJf6PfiNkmkLTGcdhqlMOsL+ngWzgkoP4PJ0bpTMp8ISqjIpzPNOkbaOjVIVJk7HXEfpsIR6ZlKf/QPv13uDfBIdgPK0zXVNS4klVGUGYOrVHWQYRqnTh2iuOwWmkhLMVXgwzwVgWrFWw1jt9vvgWKpmWiytOlMAmHrVumhs0HALzJBNwSwAHmYpzP8GP5x+xcomqDx7IFgaaRk/bGkCUZnvDsMkONctY4ycng/6BdQl2DMzFCaJtTZOcnrmvVixbyGMfYJ+ctMAKMyHYb/wO8iOXlq+5elMO6fLErIyH4Z+TM7Racszr6en0yjR0jBkB2DShwe2Yd0Ci4bpHZ05lqfTKBn5VVCTliYU5nFYzWkK80ZkctFbd2nmUp6OIZua8eOtOQfmPVAw8eVRMNmjM4fytB+9ZSeyqbL0lAkM5hHykr8b9Yn1d5BHk9SeOXJuq8jvYKbLEqoyvycv+fPRH1q/ghmcWl5qFWdyXeXA0jIN4J2Z+MV4mIFMKDfR1nlcEw9d2sqkv+bboGCWaTVVGf/J+ZmQnQzN3Lh1zHW7g5k2S0uZAGFSO7kbqwrYMFieM85t3QamxoWlVWcChRlvniuQ2FrRtjozeTrmupqy8QMd5maCgXbbE1J9nLOKtg5LxIsl1DBLYV6K/ymuz1sf4myjrdMoGf197tMmQDqFeU1kmHrPSmzVmea2LkvEjaWnzKuwYO4mg+l1xxgnwcjYSdjiZMgOKPNIAWB6dQqakZOww8RYTiypMgsC00ts0SyirdP0spIfQ4EJk1c/c8LrmX0XJ8rYSXAbmBpHXfown8NqTk98PZPUKU6tx+S23EfAnBiLEE9dMsosCMxQnAbn+w1uA1Pjy7KAMAnOReeKB3N8Ggq/w9NhiXiztLLZywWDSXB2XYhIZZuenJrRTiDAnFkqx8DCnO7iNNMeQ3yNoZ7z71sdTEXC5ABTr7LdTsTY8CnjrDK65MyyuDD9kWmKUuV1ePaz06UP81bxYA40rxGPw9NpYCJ+5roYMFN5PkVwFiH1w9MdLLAmC7izLDpMWtDTstOqUgKlShqHp3sD0yow+bO06kygMDtpHWsDswipHZ7ekEhGLIEqc9l7ckw6OCu2OqmIBsZtU2BpHZhZsJQw2dESNGDzTYXTvU1rFSUtJUuYP4GCSb9q6GIn1XqQdRHUFIbhXZZqdix5w+TUz7ziPdMpxeo+1EWwXPgJcDpDIlmYeCEwQTWnT5FX/FHKMF2cwyb8BKmtF2PVDFkChnmex9BVj1GnGhjPTJTauk8ssBLZzFgChfkxJ5guThRmJMTPhbyhSjVTlkBhnh58DBCdpkwVp6p50RYlnUjwBtez1aUgMKvVfncdzaUmT3eOb1CghhYnF/J0mTVLIWBWuqQEUtGhNId2WFMoODw9NhdyB2StB6llyVI5JADMJY36K+l+iaZtCqluFoTYHtlonDve70DGuoSqzOBDLZcURVWIMit6yjgDZSeKl9puYVeXOGNdCgOT0FTmvqzwMYVQgpbnlp/+ZmTICgeTfGpEmd9+82U3VZwBUyg4kIDVuZBcqLrjnZda9iy9M/MlOJjnWWUi8ueNb69zwskUKCN9oeqix35+Biy9UUtYMM8NKZPQPHSd0Ewfp28KqUO+UBCn78fSyYKWImHGhuk/1HKDKpNks93fE5zpq9OpU9gCRQ3D6fe8aIE5A5ZAw2wQpqPMDik4+1xw+jcaVE96zD2yXsArQLPSpZ8AcYLJqZ85CJOytOtMTuocrFMCT6T5P3vn0yO3bQVwcesAxp64Gw+waC9bIQkEnZI2/5xc6jb/c7GczBdog5nAJyMxRoZP3oFhDPaUIv4A662zGOyphfMBK1LSiNQMKYl6HPHJnNsmyGa9P//4yPce+QKGc/A1VjQTVXFaYWaeDrJk55NJtcASOXZOsoNnlcPbf7IAd6fB+9tm5n8vQ3t2Fl2ZYugUn7xINv9kMhTLaplFDPOMmUmE3Gy0urKCs9oJFek9Kq+4eTAdjGW1m0UH85eamVJu1hLOYidEKy+p1DHE3xIZjCXSmCnDPMszQDK1Dc5rWJynb2wvs0TQdO8J2dGZSdhCW2fGcS7SNAXG+UQgSMT1NU/iDcdyJGYG22baW2w3r/GR2l6IX0OggTezl5mZmHR3PZPjZFk+UDvFU6cUNIdlidjMB7KZRFGctmNn/sy0eNakvN15UJaIjyYPxKQBJepOgzx2LqBxincBczkngwbM18FMCec/AXHW3/vay93oscbMR6KZhOh7gKJlgfMSEOd19EalJdxI09fRzEeymU0NXeVBBRansNZOp95MY5jV8IQztpsljd15mZ0pOM41KTY/0+nozbRTz+QDh37sZqYtnEU1ZTp1xMxb2IrTHOa6uqGc7X52Jg20OOGqKezlggLmEyfM/AcqmDdEmHlutm0TNMc5h8V5kcOcuGImYpgxW2Ypbd3RznAuQO1cO7LM4jTzLWlGTWYm6XQ9AdrOiF8RcgMmPjOfyjCpItHehHMOhDNyaAOEz8yX0sChM5Zn73pxCBJnATPxZprCPJZiJiGdb4HB4WQxM5nafhp4pGbyIX3Hgpk7i9P7w5mbmfiYaQzzXmUmCYLA7H4mDM7I72Z7wHwojTXpkDSwhDMpYCbezP4wA7NlFgqnK0eTgzGYSTofTYBxJm5kgEZiJqX93jToidONZZb/BvCZ+bwGk+o7DWzjjBN3NkAWzbRUz3y+FTNJ/9dGzHFymMnwG6CNmaiK01tm0t5m9sFZmJk4UzXBCzPPAOV/L4fBGTt0NBmBmRnLI5jmAROcsWOdBrhg/l5L5/GDJlQnSHTeFWfMc7OJN9MYphwzCeRza13tjB1K5/0JI8xvj7s3dNmycwPTgd0sfpiU9MoA7bZzxnHOWuCMj9zZzeKD+VkNJusaCWBhhuEqw8l6hWbrVSuYg19PIOMwMyDAy2yB87xd65cry+zhWMykJLTwKWOn3s7YkU6DJX6YrDjNaIahHZyzvJNPg9OlcyZ+MwNbZpaL7VxrZ1w2QSc+ZhrBFGahEuhzpsrO2XrpzbQMM79sG9iDyezMd7aP1TCT0cdMS/VMCWZM8o720OqH4UxnCpjEjd3sxkxUxeltMymxDJPjPH+MIwOEF2Zc3AILrX9Wc52ZiTcTxkxicTcrbIQUMEMGc+LNhIDJG9qDoz3ATJ2OmQQtzC8P9nXOFGAuNGb6mAlkJr9rMrSZiTezv5kxGdpMBjPxZoIss0+Gjpl+mYU0k7K+2WHN9Bsgwy+nDOZSup4QkKFjJuvo8maawfyighl4MxGbmUhmxmx65vBm+php9uVdyUy+m/VmYjZTXGaHPmeGZ240QVuGaaee+YEMs3g8+NJngDAWp9/NfuBvhJiZdxpcvu4xE2fbyHs1mJT/US7D62jgmHnXm9nTTHY0yYLmUWbm9VU0VMycTgZv6MIJ8+PsB/67bCYtltmrWbT0u1lsML+SYuZmAxSdz+zh1JrpN0BmX/5FghnyfvbNBiiK57Notd/d7JmPmcZffpL9wH8La8vs0WY3G12lj63gdDxm4lxmP8x+4DuhWDWhgXg0YZdlm+9ueTOdMbOCGfLaNJXOmdH5PF2A2+ljpn0zeQ90PWmwiufgdnozLcH8XFxmeatlPQO0utLf3QI088/+nAkEk9cz6Y50Hn9nAtJOpZlvO2Emzg3QR1tmZjTpzutbc0g7tWb6ZRYCZkjy5OzORDsLnXAjL9w2E+ctsJqZrDK928wydEKNvEg1MFnMHHiZDTEWp29vLbPMTVUJjIdOkGFu0eKn3f/iN8fMxAuTdxqozSxDJwBOpZkeJqSZJNAXp1fvpAxnz5nw3kz7MPM3nai20yDiobPnEHGtmRMPE2KZJXydbWobydfaXjj1ZiYe5p7M5HLGHGdqjNPxmImz1fLTupk8BdSCRr7WGuN0PWaG+GFyM4NmM6tjiilO181EC/OOFDNZRbMlkDx0Zji7d5cozXxRNEF7mFBmtkVShs7uOJVmvvBHk14w/yfFTJaebd8EXYbODGe3LN/CJw0sw4z5yaTTq5ab0NkNZ5T+5LKZZCRmMp6dridsQmf6uEOFTBMzHUi049zNvi+bSXkNjF52C4CrqxJn6/r1a26mnXpmDWZ+czroujddbUJna5wLp2FWZmIqTtdgkpxm91tg1Vrbrh3BdTNHALN408DkWe9Nhq8lTiwxExvMf9fMDAzMlI4pLdoRvJmWYP5X2gARbXG6xTFl3gqn4zFziRXmLwJMngKil6EpTt7Dt7FzidXMccAkHTNAOzN8i8rOpWnMpD5m9jcz6GVm1cNX2KnqLvExcw8wKa+a9IIZ8kFuabm3VeBsipneTAgzISYOrYTQubvg6c3cR8zkh5PLsDdOYa3d2Sy0eLT7P7woeoC8mWYwH8gxk/aMmWKGb75Q2Kk1c+LNBNrN0qB7blaX4St51nCqzDx1ImaS0ZhJT4CuepUZvh3tCEozL3zMhINJzdN5qtBZbYYEnNqYOXoz7dUzH0jLbJu+2e4ZvkWtHUFp5qkvTveC+ah+NAlCwE/Z/l4ttisEZl4ihDmpw2QbILCYuTt0pvdZhUxnpgMxEyXM77Mf+Mf60QQuZgqhcyEcVGbrpTfTPkxuJoWGmQ+0FdII6Uy3m028mQAww9yHmyH4J29EqAoq6cybCQ7zRg0m4bNtQxufshFhznnOtUmDiTfTEOZaNpPAx8yC5rIInRwoknMmJpi3JJh5zCSWYArHlFQLc+KXWSOYb22bSYMgtPYpjikL181ECfNpDSYvgZ2EFj9F6Jy7nWhHCzOqnzOtwiwzfE7XM/HCXIlmslXWLsziCVvFOTPyZhrDfFmDyfu5bMPkjwn5DZB1mIQFTfsww2WTmeM+Z9qpZz7dZaa1o0n1iVMku1lMxWkG81iOmWQfZoZaMycepsmXL2sw+R9lDzC9mXuAyWLmHjZA4bmqBObGbjZACfMHF82ceDONzbxXaZHfTthLzNSZ6U7S4BU2M+8NYOa5j5n2Ye5rNxs7HjPDMcDk5UwGM7Y727bRzGB4M29hX2Z532xu5rXB+4YwZk7cMPMWNjMf1s0U0nnx1Wy9HMTMZGgz+dHke+wwBTPZr3y+sIQTQ8xEt8w+rB1N+I2+m2JjgJ3ZtrHbMXM0ZspHk+gKeD4fCjMJypj5fMtMUjua2JltqzSzTLQ7YqalZdZKYe3NOkz+3mz9nMkaA4BxNuZmHTmaYCpO12CqOg3gZ9vqzExcipl4YapzsxHwbNvYbTOrcyZqM6kiN8t76uBw6mNm4s2EMDNQ52bzd/GAhqF6M/dgJgk0DV2As231ZvqYaQzzWDSTBLqqCdgw1POm3KzfzXaH+XsNJmmoZ0INQ8Vi5itsMFvGzPLWLAhOZcwM3YqZr/CauVbvZrev/vSabYtlN4sN5rfHXXuAVsves20x7GaRw1wzL9u0jfSebas0c+1WBgi7me0aunrOtlXHzMSbCQWzwy2wXrNt0VRNRh8zpVuzZsNQMexmLcK0U8/cZWb7d4DMZ9uiOWdiKk5/VtsA8Rf3O/TNrt6ZGw1DRRMz8cLkZtJOL3RFZrNtlWaGxcxpbybAMks7X4OvBvTdb18hw2Lmr6iXWYOLQ8KAvtbtCDoz2SfxZhrB/HprA9T9rkk1oK9l/VpZNYkTvwGCipn8sq3Bq5bVHPF2dirN5DAnfgNkCvOgbuaxSU6n22zbGImZ2GLm1wfyBohSI5hFhm/eDmec/qiFmXgz+8Pk21lDmF1m22phTryZADB5PZOYwwzFAX1anE3L7MBmnoSjWGb7vp23ajfbVr/MJt5MCJh8su1x2OcjDUNV4XTczJvjMJMEPWJmQXNVzRFXzbZVm3nkM0BwZvaKmdIxZa6enqkvgSWj3wDZqWfuipmkN8yyX1o927bJTFeOJr9iKk7vOmcGADCbZts2Faddyc1ig/llbZntuwGSM3zzzUA3Cee54zHzchRmsqoJDMzt2bZCO8Kzhb6e6cxuFq+Z6/x6AhTMqhFhq7vkmY+Z9pdZdjuBwsHMGxEWIs6VHqYbMfNkBDBPe1RNmo4pc6m75JmPmfvYAFFKQWGWV42E2bbrld7MZOpjpsGX38kwLyyYKVZTqmahcx8z7Zi5lGImJfAwqwF9m9m2PmaCf9epDDPfzRJ4mFUjQklzPvNmWoD5hWQme6HLBsxNI0IROufpUm3mxMfM/mYWt8DswJRCZ4Z0icHMn/GaeZHfz/yjJZh5hi8PnSoz3YCJ0sy7tWWW73+INZjZ/yEuQ6fGzMnozbRWz6ybGQQWYeZr7SLFYubPyIrTAsxTns2zCzNvREATMxHB/CD7eb9Z1ktgdmEWw1AX3kzg7/qeDPOCn0wC2zDDaPVskbocM3nS4BZymPsxkyfa74eum4kN5rv1ZTawHzNb1DMTZ2D+y5vZF6Y7yywmmB9nP+9X4m7WDTOn3sz+MIuLQ0PDnHgzAWBe8Bk1bJmNr8PIm4kbJqkyQFc257r5mGnhu36S/bx3QiFmsvmZ5DA/2c8s4tTDnHgz+8PMn44pY+YqnlvD2WTmXQdg3kAG88O6mbxv5HAD9yq1hBPBMhs9xW1mUTU5lAqQVnA27WYdMJPD/A+iW2A1My+Yl0SuZ57Pu76LN5LdbG4mouL0R7Vldlc9k/XugON0PGaeYIX5uWQmywAd7qgn34cd09e0m73rzewNM2+1PNjZuwM6pg/BbhY7zFNez6QHirZXwDF9fpndl5mHyrZXMDux7GYxm0n4xKED3cV2GJxqmMQvs1BmihkgxcV2EJzqW2DuwHyZ/XJ+wxwzeQbooOHGCMDURQwbIOQwi472w6YbI/3H9GmX2cSNDRB2mOx5ikBjZnVjpCdODDFzBGYSvZk8dM574/QxE/673t6KmUR1NJHkLC62m09ddNzM4xHAvMjfzjtofTvPeEzfs4XGzMSbCQGTr7LNZpY3RszH9GGJmW8jugVWX2ZzMw9b8dhcbDfBiQHmD9kv501Exenb2xsg2rSbrR9TjOzEsAFCDvOUt1qSw9ZMhEFgS5iYyc10ogR2it5MGgRBB5hhNZymG07HzTwpzfwDajMJaRsza6Gz25g+XcxMhod5UJr5HWYzSUczpdDZASeGcyaD+VfcZgYdzWSfahBY2+4Sfcx0AubpQ9wwX/CTSevdrLjWzjZz3VrZqY2Z2TpLHdnNYoL5aQ0mzxl0N7N6urLtmL7/s3cuP25kVRiv2yKTTtiUo1hEycZdIrExG0ZhFogNj5CZTDbtmWlIwgbNjFId2IwgstPJxt1AbMJmIBGh5E3aTKabZgNKJLD6n6Puq1xVdr1u1e0+57pqBUIa4f7Nd8/ru/cgUCZ2mNwETRRgOtFFYJk4nw4OUTQNsMGMXxyyiWL3fDwPnZnqzEqAAByz6GJmlcqMlClZ6kxUprMLwdDFjtmHyJXJhGmVmDrTMqWfY00fcGWihRlJgMopMxY6U3CmKhNI0wC5MvfZxSFrrQxM3uFzM9b0rbgytQzWNCjTie91W4ozWZkg6sxAme8iGk5TmP+J1JklstnwWUuX0wTqXOIuSW4a7EJQ5iWpTMwwSSXKdMRymuS9bhjqTPzKLJvNxq8aJS3RvAZbmWsYlfl9Xcqcd/iWL9FMzWZ7IBKgFnaY9N5Q2Wx20S+9BCfwbNYIZbJ7Q2SvKpjyqlFoEdhevjqzVmYVyqQ26PNOdZ/s8MWWaCKIma0X6JVpV6rMwIgQ2kDN7JMV2aYAACAASURBVAhZvVkIynyBX5mWXTFMETrdsDrHCDpABiiT3p1eqximI9dPz9V5DUHMRA+T6FCmI5fTzCcqA3e7hqn9mCWVx8zgrHVDSzT7sOtMExKgDaZMa00HzFCHzwWvzMtYYf4lDJO+UNHQoszwNMVNV6b5MLUM1haUadm6jlkuzi7PgvpYlIlpOL2saWDrgxm6pTuYQo6ZaGF+GTlmtSpzbkQYuNNambphMke7Vphir9sAPsy36JXps9QNk3X4MpRpnT7MDeQw909EmXxqAjpmXjAA5gZ/Oua0YcI4ZvHDZNfga5hmwKRNAwqzqxnmtSSY3TpmVpjNCmUeHXVOTZnNGmbFMbN7/9djfTBHbn3MnkDMDLLZMcWpK3yO6ph5EjEzlADR7VGacI5w1Jm3cSszUprQx0j14ExXZrNWZhUw404DamTWgXO02h0gbfPML0J/yKA0iZrrqseZrMwNCDHzvDxmsQ2n402Dhd5s5+tB5TjTlNkDFDOxwfwiWmfai+08NrWqFucIR9MAtzLt5e08ZvioEieWbBa5MhMa7ez6bHV7UbOy2VOGuWYCTLY/fHmjnRuZq8KJQZk3cMPcXR4zI+a6avaiZnWAICjzBn5lpswzubmuEpyJyoSRANHS5KoJykydZ3JzXXmcI9hTEyOUme3OE+94l91aDDxmmqLMTA+QuD5bbi8q8Jh5ASvMR7GYmW0bEe94l8GJJGbewgTzov9/eDtvNrvEl66ME7gyLxsAkykz1ztAYlOfsjpTY2azVqYqzEcKynSCTX2K6kRQZ+qEqW2euR2KV2x5gp2zySMfI1XZWowlZmIbTm9H55kFTNDBO97FcWJRJiaYn8SVyRxd+duvwTveRdfcpsbMXq3M8jCpMote6QvWDRXDiSWbRa5Mn2exwUjwjncRnBkxs1crswplUneeyvXZQbEl1Ehi5vuoYTJ3ntL12UGhNbcZHiAoysQN01JQJj9r3aXvytbKPMWYSVuzSlf6xvMVGHnUOXIdDDETuTKLZrPLztoc6kSizJuYYNJ23mGsaWATR+0LXvnJgTNRmbw3C0WZqGB+Iw5TNWbGy5Qs71etTN0wWW/Wj5klhs6RdUMpOJHETNzKZL3ZUoaQyLqhRLNQhjJ7AJRJPUAfYj9m7XIwhV86AydwZeqGqWWw9u1lymyU9VFG1w0txQncnXdewLyJaTi9AJPtAivvceZGBInz8eL8up2YzW5AUeaYKrOHGaZVOmaGjQj9xK3Fycq8CiUBQgfzqxhMJsxKYPIyZb6eJoaznVZn1jCVYY61KNOZ70xwlyyhHg1AH7MYYdpRmLQ3S2+BVXYLk5UpbpDZhtTZht0BojHzmf+3+aBWZtyIEIhzrk4EysQG016AWVE2u9Dh68dWxMOOmWzUQGH+BLUyK6kz46Hz/iD8MZxIlPkj3McsfW7NqfgTZYobWhE/gp3NUmU+xQ/TP2PI1KkcpzTYSnUepCkTRgKEDeZizKSLbTXAFH7p0KY+F/wx+47/t/kxJmV+vnjM+jFTA8zQNKXPJQq+nUeV+TNsMNcWnAZaYEq/NN/UlwFzE4Ayz2KEeWHeNCA8AdIEM2REcJNhgunN6lSmlsHaVxGYcjitDaYjF4qnK7MJIpulyvwppuF0DCa7nEA0wgw8fP3BXpoyNwHEzBFymEKZR47OjxkRYCdArAOEHGZXNA3ssVaczIjgJilzH0o2e9YEZdJtYPbeVCvOPRd+NotOmZ/HYbILmrQ/a+nFmdzO268ToKpg2mxuQok21p9pxDlKTIA26gSoBMyPotks/zWUZmNd3xKp5BHYayiN9rO4YXbZIesXJ0ygfvTUhzNZma8BKJNls+cMUKYtlEnYtRNbE852Wsw8/WPWBJgim6Uxk7GkizH01CnttJjZrJVZxTHL6syQMund24aOOiUjZkJIgM6ZEDP9MnPOUled0gYdM3Eesw+XxExbZLOMJsuILLvyOqVWpm6YXSIgsu0mQpkcLqkY54orU8tgLabMDuF1CU99RAbEBin+WUuqTGzTlNkDVJo0tPzZ9XiAYjCd7pAwVVphlhY/cistO1OU2QSizCvIYMaV6dOcDhuEv2wgaDK2rMtnVThPAR4zMcJcUCbFeeifqGwSJpTJVWlxnFXVKcnK3IfSAcKvTPoddUhDKJPXnYSI8pM2E6rBiaADZIIyGc4xxclNtBSlJXNcXnZeKo+zVmb1/9QXy2E6jh86bXnEWlyYhNOtpk5pp88za2UW/6/NRJh+6KQ4bVF0sqOWH7ysj1A6sT3Aocw3RiiT4uzQTIi3g0TnwBJFKC07S81TOgc4YuYbM5RJaXb9TIgEXSF2xIoahR+2JeoU2Mq0jFNmqIlgC45Bh080hdTLzrZbH7MnqkyWCNFMiCtTOPeCpJbRVaxTOgcp88xerUwtymSZ0K4InaKTwKecstGnWHYeuOCP2YvGKZNnQoQmtkKRfJGf6CBYija+DoJs9hMDlSmaCEGsFKWnzIYsNRtfhjLvAFHmc00wtQzWcsIMNxEI9+9ZwsJHlOYp6crsgThmqTKfYxpO54Ypxim2NJMQK8hvhY1vrWtOzCSGw+Shk6c93IVgC3OtNH4VqVOyYqZdK1MvTDZOse2oMgOzEBVngcQWQTZrOMwgdMqJtS1kSoRFM7+Nr1bm6cOUTgRLWPjsiMW2gI0vVZlNMMr8ndEw/e/QEuoUbq+oyTbneAy2MsnKwGROBNkTiphseVM+l40PScw0H6aPs8U9mXbIZCtbffmmnUhi5irA5JmQ9HkF2iSESJwZdUoHeJ3pCJifrQRM5kQghBsQpAFe3jviw+u9I/zKXBGYYSeC+Nc5GGNzxabOUzKUCQEm7c3+Y1VgOt3umHCLrR14MXmrVuS2jfVEnGnK7MGBiU6ZF0r4sqZDIq8wcKOQLS8E8oZCYp0CP5vt/MH/2/x+lWAyJ4IYVNtixCn7e9yakJDYwo+ZWmGe5jwzq4nA603ZDppfbWBaXYoTdsykTYMO3cb0GtNw+m1ZZQYmPmk8EFah4AkaVqesHyFTJq2e6Otlf8QGs6wyAycCP2NtcdjaoiHEBtkLZWeyMl9BUKaEeXXVlCmbCA2OMIiZ0sIn7tNHE9tkZbagwKTvPZxZQWWKJoK4viDvpfD/yGxDJG7jg61MlgChhFmJMoUTQfQN5HyTBAOyuI0vTZk9EMps0RtyzdVUpnQiBBSFP0gUnYwotfFNUSlzCxnM2xec6j7uRLBJcEk3eBaBRJ9FgB0zGcyHqw4z9CbCvEaRzb7wa3zA60x5zL670jB5/70hegbBswiWuODJS1G/TgHuNHCEMlcdZmDiswITn6g4pQ/e/1/HwKcmhiqzM1bBOSQNuiI3dGlMXPAUVBsZbxpYAI7ZF+bBvPbYGquFzvltBmIFhmlRiJJ2fw26Ms2D2T177P3W2lNJbK0GCdIeK6hP+FO2pJ1SmvRANNoNhDm863kT79P1PcUmAr+LMr+kItsI7X5qnWmdfmmiFaaWwVoWzEP7B57/TV5uq+Ck/XfxGLGgKNJbkgITSm+WwbyOaTidBXNo/dJj30wNJ3UiEN6kDZTJqGYoE0rMNAqmTf7seRLnKwWcU9p/D10VE1EzJWa2gGSzG28Ng9myyL88rxzOrvC/Y1OmaTC7lnXmgedFcSo5EcS70rLSrJV58jA7/s+KwPRx/q01VgmdDVsok99jgJ7NGgjz1SJMH2d/OFZrItgkeFU6tc6slakD5oZ/zO7EYfplpxLOw91G0NMj6cps1jCrhzlcCpPiVOnxdUX/nU06D+DHTJ/lbXNg0gVEi8csxzlTwXk0JOL9mcYB/JhpFkyHJiz/9JZ/VJ17KqGTt/gynAanrcyp41w1C2aH/qzveknf5KVCy1aY+BrufdAJkHkwX9HfdcVLpqnUsmUv8RG3Xyvz5GH+0Ev7Zi9/VRznUYdc+vq+g0CZt8yB2aK/666X/k1UenzTvWQDQ2sVYJ78PHOf/q6fe1nfsVLL1kGhTHOG00P2u2aZNNVatiiUiQrmjTSYG/R3nXni5fhmfZWWLeh2nonKtL41yUVTqWVbH7Mnq0yreS8XTdqytcbVwGxCgfm+acq0Gr0Hx7lweko9Pqgxc8MsZbbkT9u6tzPLqc7yOF8BgmmeMumP+7id76xVa9mChNlCBzNHzORfc/PBLCfOl5+WKjvpMdsDAHNsljI74cfU7K17T3KetYouW2DKpDBvmqNMZzoMu+TIVjunONVatsBgPkMHM8Nq2Y2IM3eVotqyDWD2gMD8sGeOMhfE2dh8kpemossWRmli+TCfooOZ47JtK/IM6S9mXgGcrXW8yqQwPzBLmdQbYIXE2fyNV+BTcdlCgfmOTpincteEO9JDRy25N/MK4SzcsoWSAI3o/nCjLg4F4gy+M38qBLN4yxaKMs8aClM4SEQS5BX9Zo/XkTUNLIOVyV2X8t/au4VpTv67h+uYpb7Zc+bCHKrmQJzmGq5jlirTYJihc5bcKQzTO8TXmzUYpqNabPLvUa1MSDBb4bbed4rC/BJfNvtNdDBv5IbZiTRpn5gP84rBMMMpkEU2C9L8N7LerGM4zE5kHLY50QUTSsxECfNWTpjdYeQgulNIm39HBtN0ZUajpkV6OwVy2v/hU+ZFo2FGoiY1HowmumImBGUaDrMT+8XNOzvHZmazVJl0feYbVLfACsRM/9uNZ/BbH7mT2SR6TeF4hr9pQCTMhmHD6fAbl4u/url13t3xJsf086EN7k+Hl3cmcZ6TbaTKNBhmxEkrcfo8t66/5xO4TinQf/zWe9fi5+8avmzWeJhOxukUzDy37riTEM+iIzAoynyODeatIjBbef8ajebH5+fy/GtBmJtAlPncaGV2dwtkEVvfO/COiyaz/2fvbJ7bNs4wLtJ2wtGJkGyHri/yOlIxPIVFWDfJxbEhyZYuRljNeHJrpSE7OjVjl01vEpy4HJ2SkQ+d6aVDuxoPT3adQ/vfFdhdUAA/8bG72I8XJ+NiWfj52ffZ92NXDphDE2AuW2gn7VHnV38N3NA/TxWMmdcNgLmR0eQfHGz97X+er5wy7avBt3mmdcycTNGmwWkdPKkj5ZSJ7w9/prkyUbOS/ds0Mvz9tiTKDO8PP9QdJhpmplnxM8KUQZlvjIA5IxG0TJhD9dwshvlvzWMmplnhJ0w5lll6se2m/sqcmKlezjKLMGVRJr5x8ZoJMLNos55xSFMWA8QVZvn1zIQLmpudtRKc6/SOaeWWWaxMR9ceoKmR6hnirNSao+Eg2Ila9eCxVlYGzexLuETLrKNvp8HkeQcrlUlZ0ug4ajaRb6PmcJjj75VpmVVPmVWU8xnZJ/Vx/2XwJ3+IGDyyLLOvzIIZ3oYQrKlYnzV/OGJzRKksy6xxMDHPERo2m4jZAzDLg8n8kQFmDQFMpFHMpFeBAUwdllmAqZky9wGmPsoEmEWft5LAdAGmNm6WXjgEMHWImQBTF5gN3jC5dRpAzJynzN2Wcm0joMxZBghg6pSbVRLmPsCc5Wbp5Qn6d+eZ4Gbx5QmeEQ1dnA1QvXxlhke0PwCYeijz7+SIdoCp/NakRk71vu9BzCyuzHr5ygxhboMy9VAmPm7WAphaxEyAqcsyq6wyYZ85M9F+G5TJ4pFDmQBTI5jXucKUbdZE55jZGB9qacYUGFdlSrA1wWc6GTMFpnNutgEwtdqahDCfAUw9lBke0HUIMVMLZeKTY+6CMrWoZ+KTY9YBpgZutjGeggeYGiQNAKZGMKNZWz2vXDQKZgNg6qTMaNYWYGqwNdmkE30AU4NlFmBqtMxGQ2CKTYEBzFkwB3TURKXiNChzDswzBWGCMufA/JhOJ4AyC8NcKd0ARc15oEwN3OxtBWGCMmc+q7g2DcrUQZmNoU2vdQNlKq9MH915RS6PAmWqDjP4INXgw7gHoMyiT7N0mAjZYQu02wJlqg6zUkXo9JcoZwDKVHuZHSL7VijMhx4oU3FlVs4CYYb2x31hgTIVhxl+DSxMssoCTJVhBv+C07CZy/3gcYRpUj2zPJaB+0GfhCxdpt/Z1OJ0oMzOSZnCvIOF+RBgKr7Mhu7H/hgLswMwFYcZXnSOr+dzv3YAptowK81xxLyyDjDVhlkdW9lHLYCpOEw0FuYLC2AqDbOyOhbmgxbAVBtmY4hoVtZ9bQFMtWH6KMrKhsd5A0yVYYbuhwrz0NIO5sg2CiZKCFM3mFv94cAcmFiYt4kwPf1gom6vWwLOcmCG7oc0GLh7LUtDmBfdbu/4rW8CzIp/KczXFn+YvOqZ7lyYzW7w9I9tA2BWccTELO/z+M6iitPzYaIueUYD3WHWwx+8cRXDXFca5jfzPqv9ksAUGzoDmF4pwqxhlo8cTZUZSTN4xIXOMpQZup+NH+LC1E6Zwe5kDLN3bPu6wgxL0gitYpbbLW2V6XdjjyAnJH6ZreGI+YZ0/ljaKjMmzfAREjrFKxP/2JsubXxWF+arJTBRAma/O/S1U2YFux/SxbXftjSGaSelGay13J2QcGWG7scmNemwV1ZjZdoTMHvcQ6dgZRL3QzLsoTB1honOulMP3yRC84ZQZTbQZenr3FMZZn05zDBDO6VOnqEzgClQmbghj2bYd9uW5sokGdquuNApFiZ2PzTD/szTHqZ9MYsmv3KK2JiJf+QKZrnTtrSHOeWBOCcRRCoTN+RFiby7ljiYXApraWDO8kAckwgiYeKSNDmNwt3mWcAUUpxOBRNtzYHJpZwiEiaOFBtHiQy77jD9i+7ch7mxFQgTux/aw77tGAJzIqs3GTp9RWHikjTtYXfb6ivzeUqYL+fD7HWPB2rCrMbyBR88c2DaWwu02WXakykMJnE/JF+w37bWjVlmF4ZNtk5IGEw/li849yxzlLk4bDJN8YmC2YjlC8JEnlEwz7pLHkZOSBTMZixfEPawG7TMpqDJqDomBiYpSdPGn722ZZgy56TcmeeEBCkTu587JF9wxTIPJtpaCpNBY4kQmKQkTfsLtlsmwrS3+svFWbScIgRmDV32F7iOZSJMZKdYabv9YjhFwKyg2LaEHpJnHMxUcbNgdSyA+URMUpbkCx63LfEwuRTWni9ugs6zQynqhAQokyRl6aDQuYgCppDidHaYKbWZPyfEX5nE/dBBod22yTDtxZm9btFhI/7KJLkfOo/w2jMZ5syGPYY5Ie7KJA159kdktLZlGQ7TTkszz9g1d2VW42XMjqUXzGp29dgpbVCejmnuykSxMubDlmYwcxmV1IEzc7GTszJJQ95lGVMjmEd5YabLH+TpE+KsTFKSJlcKkXwBwEy9R8nshDjD9GPbksfC5hGkgTmXxKDZSwmzlwEnX5hr8W2JuHkEaWD+en7HVvrImd7Y8oWJYtuSPXHzCMJgLvvIZwuyc3YGnClzQlxhJrYlLyz9YL5NkSOY3+Jjn6XG2euO0sC8xg8mdT+3YmVMjWC+SQOzudjEBOpMGTuPU62zHGH6sW2J27ZMhImWRT3bH6VKvafyQByVSZOydFvSKhEml8Lap6lgvlyezhk0L7p9NkUxfjCbiW2JyAKmkOJ0Oph2GnXZfsCzN7c1KPVulp8yq8ltiaEw451ci3pC7AEK1tt+b2J5DXxPlsQEN5jD5LZEO5hhsf1PKTKx6ff/g4GPRhfU4R4fj0bDQcbc7LWDzziWpC+3JabCnGiyXLr/t+0Bfvx89cyn/BryYtsSY2EicUcBcYqZpCEvvi0xF+ZL7hPTnGES9xOvlmgJ822aTzzdXMDrAFo+MElDHh36ItUSLWF+n6/gxesUPT4wV6erJdrB/H3aZXZ2FxeX0MkDZmM4XS0xGSYqmAwoU5mR+0lUS7SE+X3Kr/yS78Q0T5jVySYuLWF+Hvxyfy7YYMnYCfGAmdiWlEFPOphzjzXo/3Egd8xcjc+WfACY8xdajJOhE2KvTOJ+omqJIwNMLoW1EOZPGYZtBRwFxBxmhUSBk6NoW1JCAVNIcTqbMhdPmTByQsxhrg1jI+97bUtrmD9l+dQ8B+A5wUTxkfcrFsBM1fnMJifEGmY1PvKOtyUAM91UAgMn1PyRKcz6MJaU3S+rhV1OmMvOjymeE2KrTFqSpidxnXsAc6J1i/MpekxhkpI0PYlrt7QWdllhppgYKpQTCpRZZzwljU6PLq951xvmO+bzX4WcENOYmUjKPiqvhV0YzPdcpvlyOyGmMTOxLXEsgJmPZu6zYxgus9T9RCdxtQBm7umvvIcisltma/FekX0HYBYag8/lhJgpk5akNz4lSVmAuWRuk8PZMeyW2WpistYBmEV2nDh09odlLbP1RK/IulQwudUz3+ffEw5GvaULbWnKXJWohV1YcfrrIumahUaon+v4vB/ZwKQl6VivCMBc7mtH8wb5jnNtThgpM3I/V6VoYRcC86twBSpa5xiEg9P9qTm+vDk9Nsok7odep1h6C7s6MPEgH53jwyI9zjzHx16ZKN4rcugBzOk1dckcn08n+Qr9x2CiTLotIb0iD0pvYRcC84tsMC9GvGa/GCszcj8kKbtuAcwZeYKCNyOIUiZtyIv3igDMWd15vEb5WMJcS/SKSEBPSphnOY93FgxzIilrCMx7GWHaHK+Bj567hWHSbcnNKCkLMBdNKPT4TcEzgEkb8i6TsobA/G3WDJDNewq++DIblaTpAJ8DMJcPD/V54SyqzFp8gG/fMQfml+HVHrkz68c8QmezqDITSdlzOWFyKax9GzatZRNYk9c18JfKZOF+4p2y5RcwhRSnc8CcmARj74Q2iykTTXfKGgLzaejdM+I44zH7xSpmJt3P/ZZlEMwnOWBODVAzdkKbRZbZRqJTtmOZBNMLfuOdrCimTqpge6hBIWWiRKesZxTM9dAkVDN/by7XwLNQJv1V4nfQAMzMXZYMc0IFlEkb8k7oqWot82A+zg5z5rkjrJxQAWWuxkvSjxyAmS5szhq57bFxQvn3mcmStAMwi9Ds9kZ2mcpMlqSNhLm/htjRZOCEciuzmpwTApgZaJ51+eDMq8yk+zk3E6a7lvOr+/M62cuBmXA/O46BMMM60Te5ZxNGc0a/CtYzWTTkAUwWoya9oluUzQ6DhjxHbph86myvisEMIucoPpnQY5CozafMtbj7occXyFPAFFKcxjDXin388E63br/fC+dLhoPCO81mPpiJhjxyeJNxMJ+nuNp2uTwH9GHUA5R/HOFm/PAm42C+yXDivqAnj5utJ9zPXc9MmNczHjjL/8mzzCbPiNmWj54YmOG07T/kUmYOmLWk+zEY5n/ryiuTup8f6In65sLcf7VTVTtmVqj7+Sg6Ud9UmOG0rVtTfJlF8XGEQ3Nh/gY7Bl9lZU405DnmwnTCfN7jhsowE+MIrmMyzNDOyrU5yQgzeXD3Q6Nhfunm6+mSJmZS97M6dj8Gw8TZWfdfEm1NMioz4X6eGQ4Tr7MPqqous4kT8vYcRWDyqrN5rmTSzAQzeUJeR9YCppDidPB0cM/MXlVNmGRTRYcxH7ZMh2ndk0yaWQwQLcWuSndwd1kwO9g77DRUVGbC/ZwDTOvGF/hT/OwrBzNKyt6S7+DusmBaZHciTRrozkE+97MOMMNXIs33vmLKrCTdjwMw8SvptjhRDCZ1P9XxOALADF+JoZXEA6VeZqn7Obo8IwZghq9HEnmgTS/HpW07DsCMXj8jS5UUDSR3UsKcdD8AM3r9nLj7hjIxMypJX49VvgAmfXWlWWjTKZP+t6tduh+AOX4l2xN3xVcjZtIra09i7gdgXr6Sz7LbUEOZ1P18QscRVIPJuc52g3gg911VCWXSnDzZIL+QvoApqjgdva5/RWh+58uvzAopSW+M3Q/AnHjtkIV2v+yweeqlTcrWonEEgDn96koRNlMo05/M/QDMqVfqaB/VJIdJri2J3I8DMGe+XqW7zarcMBNdzy8A5oKp+OD5gy9zzFydrHwBzJmvdH+yf+rLq0zqfqrx3A/AnPVKw+bjui+tMqfcD8Cc93qdWtqnsipzbbryBTDnvZJOtxILKCdeevdzF2AufiUw3f+URLO5ECZtyKPuZ9sBmItf71Ga72oSKjPpftrrAHPxa4eaIPfnmnQwaUNe1PXsAcxlr52rZdJcuMwm+n5225aqMEWW3Y7KpLkAZgUp2vUsujideKWZIPcvNalgVlXtei4VpvNLeTQ3vMUNefaqel3P5cKMNijudzVplEkb8sYzXwAz7evv3LLi5v/bO5+fJoIojkMTTI2Xjk2xx9aoCZ4sk1XCSXFEyl462axeIcYDcMEfERovtUBSbiYQKnAxGsHEk2ljU/rPuWWnu7Pb7e/Zn3lzIHwvcPjk++bNe29mezozbbvzBTCHlk/8otnLmWwgL5RTz37DNGl+9bYWlCn0zX72wzj17DfMnGLQvEoHwZl6kJ0N5dSz7zCRUQoiy4Wy33smG8hjbz0fAcxRpUnzpYc0nZ2pF2XZW8+rEsAcWZqRNj9d9teZ+r9nbz0nEcAcXSYNmvLbuJ/O1Afy2He+nucA5jjS9KZn5QNHZ/JXS9qfHwaY40hl0aD5zZvBICeYMT77+UAB5rgyV/c2DXKAacl+ViQUepi+deFU6dhIg+7H/dgzWfJlXi0JXQPTv+a0XaaMjpi2caZ9cGaMv1hbA5gTyZTRrSbkyvVQ2wUzcdd+tQRgTiBT+KZBM/8l7jHMWNfVEoA5keSOKGQ7XfZ0z/zRdbUEYE4mlQUjqSUNWvbOmXpLmh8vAJgC5EdiloPSnsG8bRkvUACmIHnLDLX/3DOnrZ9pHa5MAkxRkts4867VakuF7uyHFdj3KMAUJ836ASEntOK+M/VjiVlgB5gi5ZZJU37nSrG2lOjKfu6wqyUIYAqVfKglDRR315lpe4EdYIq9icKHWrIrviDEOVMfyGMF9iUJAUzxpdpDwidComNtJmHLfvT7e/rnhACm6FKtMs+bszEjNtZmE9ZjCTti1miEYAarKccdOQk5o3E3xyHwbQAAAltJREFUnKkP5HWOmKFuYAamOe08Ir1Y52jKuwKPKcaeqbekrQV2gOmGTOE53pzytrBMyIB5/Qcz9yyvFwBMV2RKecTvnCS/nhDizocdmDHLERNguitT+DWx4ixUBDrTMsFOAabrg5h8QaiN850AnAxmjOtirkoIYLouU9gaa0l+e+LMVs9mr7Mf1sUkSQQwvZGP6xac8hmd7C3pkjmQ1zli5gCmZ/KQWFf1YJJcKGO0pFkdLx/+QdkQwcT4jw1nc43Gy5M4k+9ivqEA09MagvTZhlOuzoxpz2wn+2FdzKc5BDA9riEs2HGS5i4dh2eGDeR1jpgYAUyvpZbYduEkjfXRs6Esa0mzOt4RBZg+SA3nVhdOufqLTlVG2zPj3EsUyxICmD4dO/EGceC5Nkq8zU5xdTyCURRhhqNlp+Gcq3fzJM33Khoy4GZjXJCtRWPqObjN6QFSwbPHDjg1g35XE0McWEpckI3KoGxoYbZxShvEcTVPsppDB4dc9txPZAZlQwzzWr46duZJWtXNFE1MVfp5lDVLIjMoG3aYWLNnnfRazermgYp6IS3tG3U8gBkUieeLpM+SNaQZVdWyu6lShYu9nUz2JwWYAZKqFm7PyYAlt06rnzZ/T6tqGyzS/Ko7+kUOAcygJbe40Cfe2le91WrtmM0SgBk0qfGULofnSf6azRKAGVC5UBwS6Er7x7McAphBzocwvjEM0LwRZAFmkKXSLk5eng8GukcBZki2UI3og2KrD8tatOhFFyYXddMXxVMnpksYYIZOqgr7nVYudoqnzVar3mabx9GG+R8uJ2i4T2y87QAAAABJRU5ErkJggg==;" parent="1" vertex="1">
          <mxGeometry x="650.58" y="150" width="81.86" height="80" as="geometry" />
        </mxCell>
        <mxCell id="F0qZPeJRunGCuvMz1pJv-33" value="&lt;div&gt;&lt;br&gt;&lt;/div&gt;" style="text;html=1;align=center;verticalAlign=middle;resizable=0;points=[];autosize=1;" parent="1" vertex="1">
          <mxGeometry x="775" y="430.00000000000006" width="20" height="30" as="geometry" />
        </mxCell>
        <mxCell id="F0qZPeJRunGCuvMz1pJv-37" value="" style="shape=image;verticalLabelPosition=bottom;labelBackgroundColor=default;verticalAlign=top;aspect=fixed;imageAspect=0;image=data:image/png,iVBORw0KGgoAAAANSUhEUgAAAgAAAAIACAYAAAD0eNT6AAAQAElEQVR4Aey9B5wV53nv/8xZWHqvu0vvINFBCFRR77tIFnKJfZ3kHzuxLUA3jp04uTfc3DixEycGZDu2c1NdJdlikWRZBRWrINFEEyB63bP0Xhf2zP/5DgeB0PYzc87MnGc/M3vOmfK+z/t9n+f3vtPeSYj9GQEjkHsCs2cnej32ZOfus341oGjG/PHFs8pvK5lV/omimQv+qHjmgj8rmVn+TV3+T7p8XtHM8h8Wz5j/byUzF/ykeNaCJ4pnlj9dPKP8ueJZ5S/qutf099slM+cvKZ61YKV+X6vzJp136JzU+YDOR3U+rXN1euY7y1jHNmzLPmtJw0trZvnbXtqah5cXeWreng1qi677YfGs8nnYWKK2FqvNRWo7ZdDlt+ny8ZSNMoqWNffAzQIjYASsA2A+YAR8JKANXKteM54drI3klF4zyu8pmrXgM9oYfqVk5oK/0kbwn2i4i7XxLJpZTkO9QhvH7fr7aPHhMedTqcKDzdxmWxzHWSauvOy68pQj7o9F3H9wRb6hy/+nLn/UEfmiOM4fuOL+nrjudDV/mjhyr667Q9fdrL+nuOJM1HWj9fsInQfp3EfnIp276Nxe55Y6E//MfGcZ69iGbdlnBGl4aYlM8dJ25Q4vL5Fpum66Z4Paouu+qPk/io2u2orN2E4ZdPnLunwZZaOMlNUr86xyyr4izUI7MfP/DUawKp654Cuwg+EFls8Ohq3YnxEwAj4RECH4fUvMEjICcSbQ7/Ovtez12IJBJTMWTNWG6rPacH2jeMaCH2hj9WzxzPIVOh/QBu5UyqneKI68nXLkN47r/lTEfVwbyv+rjeD/FG0sldE0R4SGeow2jn1FhMZXF+m3/Jgoa/t02cfoD1hoJ8b5AxjBCmawg6F4LKs3whbGOivrBc/CnjqgLqgT6qaf1lF+ILRSGoHMCVgHIHOGlkIMCNBw9H50/sBes+bfXDRz/u/p0edfaEPz/eIZ5c/o53s676/qcPR0KuVuch33VW2o/lsbrm+K4/6JiHufIhijM0fQ+mFTgARgrKyVubKnDqgL6oS6oY6oK53fS9fd96lL6pS6pY77WSchwOqxpKNCADutAwAFm/OGQK/Hni0pmTH/1mI9xawNxPeKZ5Yv1LmChqM64WxOuc5rjjg/0aPPv1MoX9Kjz/v1c6zOXXW2KRoEqKux6br7EnVJnVK31DF1TZ3rvPCCDyz4Cj6Bb0SjeGalEfCHgHUA/OFoqYSIwPgv/Kh50aynh+uR34NFM8u/UTKr/L9V7JfqfCyVqt7tOs5C0dPy2kB8Wc2+VedinW3KLwLU+a0XfEAv0ahP4Bv4iM5LS9Rn8B3Ph9SX8Kn8wmOljTeBC6WzDsAFDvY/ggT6zZrfseTRZ64tmTX/8yra39J5gR7Rbahs1eOU4ybW6ZHfrx2Rb7qufFaLN0HndjrbZATqIoCPTMBn8B3Ph9SX8Cl8y/OxmeXfwufwPXywrsRsnREIMwHrAIS5dsy2Dwl0fvT59tzopQL89ZKZ5b/Sz51VrnPYTaTecV3nP3TDr+v8gB7RDdHPZjrbZAT8JNAs7VsPaKJfx+fwPXwQX0z75NfxUXxVt7HJCISWwEXDrANwkYR9hobAoEefb9HrsfnXFM8q/7Kehv0vFdh1LRNVR7jRS438livykH721tkmIxAGAr3TPvktfBRfxWc931Ufxpfx6TAYajYYgcsJWAfgchr2PfsEZs9O9Hy0fASnVFU0v6/z0lOJKr1W7ywWV76np2E/p0YN11m/6n+bjED4CeCrw/Xf5/DhVMpZjE/j2zp/H1/H50V9P/xFMQvjR+BSiawDcImFfcsCgd5fWVBcMqv8EyqE/6BHSK8VHx5zJJGQtZxS1ey/pDPX6gv10yYjECcC+DS+/SV8HZ/H970YmFn+D8QEsRGnAltZwk/AOgDhr6NIWzjg6092KJ7xTGnxzPmPa6O/vrrArXBdeUoL9Wd6hHSzfnLTlX7YZATyjkC7dAz8GTFBbBAjXqxozBA7eUfEChw4gcszsA7A5TTse8YERsx+spABV4pmlP+titk7Z84UHhQnVS7ifEVEhulskxEwArUT0BjRWNGYIXb0DMG7xBIxRWzVvputMQKNJ2AdgMYzsz0+QsB1ih9dMLZ45oI/K55Z/sKRw4WHGXDFceQvdbNrdS7Q2SYjYAQaT6BAzxBMIpaIKWKLGCsm1jTmRFxd3fhEbY98JvDRslsH4KM87FcDCHS/8Ma6LxTPWvCEitE+SbjvqRj9g+56p86tdbbJCBgB/wkQWxpj7j8Qc8QeMVg0Y/4XiEn/s7MU407AOgBxr2E/yvfwkwUls565pXhmOXfpb+Wtbo7j/Ii3wWnyXXW2yQgYgewT6EoMEovEpMbnVp2/T6yKxmz2zbEcw07gSvusA3AlEfvtEWDoU73+eKcKyo+Li1tUum7qFV3BXfr99dOm3BA4La4c1awP6FwpjuzQz806rxPHWaWfy3Re5DjO73S7ha7I8+K4C3QZN13+XL//l37/V51/4DjuXP38R+b09x/o939Nb/Nz/f6Ufl/gpeHKQoc0RRbp8mXpvNbp981ywYZK/X5A88S20/rdptwQIDa/RKwSs8QuMUws58YcyzXsBKwDEPYayqJ9DFZSMvPp+1Q4/qOyVY+9eoHxBc3+j/T0fjf9tClzAlWaxD6dN2jDulg/4ftLcZ1/cVz370Wcr7nifMERZ7o2rLe7CWdiQcod5JxPdU0mq5ol55a1Ts4r66if3XQuTs4p66efg3W+KjmndIx+TtT5uoo5pTfrdrdXzi27NzlnWpkum67zZ/T75/XzCzp/uWLOtFn6+TXm9Pcv6/cvpLf5jH6frt/LvDTmld3upTm37DpdPjGd11X6fXDygg3F+r2b5oltrbEVm7GdMlAWykTZKKNXVi2ziPxS5xdcEVhs0O+wgZF+tSkzAi4x+0eOyAvEMjFNbBPjmaVre0eXwMcttw7Ax5nk1ZJejz3ZqmhG+bTiGeU/PZWo2udK4lkF8HmdO+lsU/0EaLC2izhvCQ2aI99xXWeW48jD4jjXp1JyVUG1UyKnC9poI9lC5x46D9OG9Vr9vFvnTyXnlX6pYt60byTnlv5j5dzSf62YW/qUNqwLK79bumzX49O2VHz/wYPy1PRqTT8ak9qKzdhOGSgLZaJslNErq5bZK/vcsrvTLIbpb9i0EGUFM9jBEJYwFWWrALTT4LFW5gJ7XWRTPQSI5c8T28Q4sU7ME/v17GerY07AOgAxr+Caitfjqy+2KZkxf7oeFTyZShXuV4F9WsX1M7pte51tukTglJ792KQ/X1NGvCJYj9LlyyJOqeu6E86L01MbtJbacPXXzxv081Pa2P1Z5bzSuRVzyn6lR8pv73m8bN2u75Umkz++X9MS+2sAAVjBDHYwhCVMYesxnlsKa5i3pA6oC9E6EZEvO3omhbrS76+l6864K4zLpvbEujJ6mthHA9ACNOGybexrDAnUVCTrANREJYbLuA5YNHP+Qxrw8wvOnd7vOs4TWsyHdW6jcz5PXL9+jdPwHGUmXLk3Ic7oRKKqizY2etQ+bYh+3qKN0Oe8I9e5ZT/Qxv6ZynnTlu+bW7pX9EK52F+OCDgudUBdUCdaTz+gjqgr/X5Lcq5Xd22oS69OXbmXOpYLlx+0gyDUfY5sD0W2xP7DaAGagDagEWhFKKwzIwInkAg8B8sgpwR4PEh7+H+n1wF3OeL8So0p07mVzvk0cap4nSPu047I3+n8PxIJd9KZVGGH5Nwyrl/fwml4jjJ3zyt7fvfc0tW7vzv9UD4BinNZqUuvTrVuqWPqWutdOwhlxfgAvoBP6Ky+4T6tLLjBEZ/Rr3kzoQlljmoEWoFmoB15U/rYF7TmAloHoGYukV5KD77EG29//kvN3GabtYf/F1qgHjrHfTqoBXxbxPk3ceXPJCEPJNyCIclkVWsV/Ksq5k57qGJu2V/q/N+7vzttyaHH7zkm9pfXBPABfAGf0Fl9Y9pD+Ao+g+/gQ54v4VMibyssfEw/Yj31QDPQjuKZ819CS9CUWJc4TwtnHYAYVXzvR+cP1NN436IH73rj7Tu3a/EcneM4VejZ9wV6LfOvXJG7Uqmq7ircXXW+Xk8H/3/JeWXfSX637Nnd8+7fFKkb6OJYU1Es01PTq/EdfMjzpbml/98F3yrriq/hc/gePqjFq9A5jpNqh3M7WoKmoC1oTBwLGvcy1VY+6wDURiYiy+mZl8xc8HDxjPKXqxMON6x9XU2P29H+PhXc57Vcf8MR2blzzYtUjHsl50wr0+u936ycW/binsen79f1NhmBwAnga/hcxZyyb+KD+CI+iW9q5n+T9lUeadSfsZnQlK+jMWgNmoP2xKZ0eVoQ6wBEtOJ7PbZgUPGsBd/WnvluV9wnxZHbtCjaY9f/0Z4O6ynXhVqEb+lpyIfETfRVge2hgnuvfv41R2T7f3DvHl1vkxEIDQF8Et/ER9O+2gPf9XxY5Ftpnz4cGoObboiD1qA5aA8ahBY1PTnbM3gCtedgHYDa2YRyTcmM+bfSA0+l3I3iul9TI7vrHNXJFcdZpYoyR1znU4mEM1gFtLOecr1dP/+ick7p08l5D+yMauHM7vwmgO96Pjy37C/SPt0ZH8fXPZ9X31dCrs5RnbqjQWgRmoQ2RbUg+Wq3dQAiUvO9ZpTfo9fgFukRxUKJ9tH+BhXAf3Ecedg5n+qWnFM6pmJu6WPJeaW/3P3d0s0RqQ4z0wg0iQA+jq97Pq++TwwQC8SEJshoiPoRuUn7M3Ib2oRGoVWRK0GMDa6raNYBqItOzte5DiN2Fc+cvzzlyG/UnMk6R2u6MFb8f+gpw88yupse2Q9TAfySXj/9FaPFRaswZq0R8JcAMUAsEBPEBjFCrGgu/6Edfd71oF8jNU1Gq9AstEu0ZxMp6/PMWOsAhLHCZ89OFM9Y8MmSmQtW69HB0yLOOInOH4Pj/MJ15I/OO+cHJueUMV79H1TOnfZTRneLTjHMUiOQfQLECLGinYE/IHaIIWJJxPmFiGhs6f9ITM44tAsNQ8tENS0SZsfOyLoLZB2Auvlkd+3s15qVzJr/+eJDY9aL4/5CLw5enV0DmpRblZ7/+62I8yhjt6twMTzupyvnlP2/fXM+sVXszwgYgSYTIIaIpeTc0k8TW8SYaKxdiLnwvwvB0zDVMjQNbRPVOLG/0BCwDkAIqmLE7CcLS2aWf7H48NFNrutw6m9ICMyqy4STriu/0k7Kp8+kCrvp9cx7VKC+x9jtde1k64yAEciMADFGrBFzxB4x6MWiyMnMUg54b0eGuKptaBxah+YFnKMlLyL1QbAOQH2EAlxPEBTPLJ9x5HDhVu0p/1Cz6qdzWKdDKjb/JeKUFh7t0LVyXtnDyTnTfsFIamJ/RsAIZJ0AsUcMEovEpGhsXohROSTh/euH1qF5aB8aGF5T42+ZdQByVMc9Z82/+8jh5u9r9nN1LtE5jFNSXPm+MXagSgAAEABJREFU47q3JTt16KFi83k9+nhm+39OPRNGY80mI5CvBIhJYtOLUY1VYpbYVR5JncM4oXlz0UC0MIwGRt+m+ktgHYD6Gfm6RfdZvxpQPKP8mYTrPC/iDJbw/W0Wx/kHJ5WYrILSKzmv7CsV86a9IrOnng+fqWaRETACHyOgsUrMErvEMLFMTOt2m3UO2eQMRgvRRLQxZMbF3hzrAGSpiou/8Gzropnz/28zt9k6ceT+LGXb0GwOOo4710mlxiTnlg1Ozin9esXjD7wrej5R7M8IGIEIE3BcYpmYJraJcWJdCxSulxqpJqKNaCRaqfbZlCGBhuxuHYCGUMpwG96mJa2q1zvi/JUm1ULnMEwp7Yi8pKcKH+nYqaq4Ys60WRWPP7gqDIaZDUbACARDgBgn1ol5Yh8N0JxSOodhauFppGqlp5lhsCjmNlgHIMAK7vlo+YjimfNfcV15SrPpo3MYpu1qxF+Lm+ifnFN2p54qfHLd7OlVYn9GwAjkDQFinthHA9ACLfhf64w26EfOpz5oJtqJhubcmkga0DCjrQPQME6N2qrzo8+3L5pZ/s+JhOgRtXNLo3YOZuMzwkAijtyu1wQH6KnAv0naGPtif0bACIigBZ4mzC0dIKoRglaIqGZIjv+cW9BQtBRNzbExsczeOgA+V2vRjPmfbZmo2uiIPKZJN9M5l9NKEefRZlXNirXh/7T29hfqb1fszwgYASPwMQKOi0agFWiGqHaIiGqI5PKvGVqKpqKtuTQkSnk31FbrADSUVD3bDfj6kx2KZy14wnGc/9ZNe+icq6laM/6l67oTtFc/VoP5ezv/5b7DuswmI2AEjECDCKAZaAcagpboTr/UGW3Rj5xMPdBWNBatzYkFMczUOgA+VGrJo89ce+ZM4Upx3ek+JNfUJM6I6/zLeef8EA3aT1XOm7a8qQnZfkbACBiBiwTQEjQFbUFjdHnuLg+oxqK1aK7aYVONBBq+0DoADWdVw5auUzyj/M/dROpNXdlP51xMh11XvlndPNU3Oa/0S/ts/P1c1IHlaQRiTwBtQWPQGjRHC5yrM4v90Fy0V7RHonbY1EQC1gFoIrhuX/pNz+IZC14SR/5ek8jFtf4KPSX2p+fOVfWpnFf2V3u/8+A+tcMmI2AEjECgBNAaNAftQYM0swqdsz01Q3vRYLQ425mHOb/G2GYdgMbQSm9bNGPBXc2bn1ulDnhbelE2P9aLK39QdHpv/4o5pf+8/wfTT2Qzc8vLCBgBIwABtAcNQovQJF22XufsTo7chhajydnNOB65WQegEfU4/gs/al48c8F3HMd9XnfrrnPWJkfcpeImypJzS69Kziv7j+U//uK5rGVuGRkBI2AEaiGAFqFJaBMa5WlVLdsGtLg7mow2o9EB5RGRZBtnpnUAGsir96PzB1a26rFIrzn9qe7i6Jytaac47qcr5pZNSs57YIHoD7E/I2AEjEDoCDguGoVWqUx9Ws3bqXO2JtVk90/RaLQ6W5lGPR/rADSgBktmPXNLdcJ5TzedoHO2puOu43yj8GiHock5034hGlFif0bACBiB0BPQjoBqFtqFhqm5x3XO1jQBrUazs5VhmPJprC3WAaiHWNGM8mmum+KUf/t6NvVrdbUr8qPq5qlBlXNK/377f07N3SM3fpXI0jECRiDvCKBdlaphaBmapgCyNY5AezQb7dY8baqDgHUA6oBTPKP89x3HG8c/Wy/weTGVSIyunFv2x9xpW4dptsoIGAEjEAkCaBmahrapwS/qnI2pBdqNhmcjs3Dk0XgrrANQC7OSmfP/VBz5N11doHPQ01rXde5Ozi27a893H1gbdGaWvhEwAkYg2wTQNjQOrdO8s6FzBWi4p+WaoU0fJ2AdgI8zkZIZ8//OFec7usrRObjJlaOO6/xJMlk1unJe6QvBZWQpGwEjYATCQQCtQ/PQPlENDNgqBy1H0wPOJ+fJN8UA6wBcTm327ETRzPIfuo7zF5cvDua7+7LjVl9dMa/0h/LU9GxdGwumKJaqETACRqAxBFTz0D40UMR9uTG7NmVbNB1tF9X4puwf132sA5CuWZ4fLT485ud6yP/F9KKgPk46jvul5Nxpd1Q8/tDuoDKxdI2AETACYSeABqKFaKLaelLnwCa0HY1H6wPLJGcJNy1j6wAot+IvPNu6slWPZ/XrIzoHODlvFaTc0RVzpv1LgJlY0kbACBiBSBFAE9FGEectCfbvEbQezQ82m2ikbh2Ah58skJbVC7S67tQ5qOmsXuv6s2SnFTftenzalqAysXSNgBEwAlElgDaikWilluGszkFNd3qaj/YHlUOW021qdnnfASguLvxncSTIMf2Xp1IyLjmv7Dt6/SnV1Iqy/YyAETACsScwe3YKrUQztazLdQ5mUs33tD+Y1COTal53AIpnLfgDrakZOgcxpcRx/0+yU4dr9zxeti6IDCxNI2AEjEAcCaCZaCcaquVL6RzENCPdBgSRdhbTbHpWedsBKJ5RPkVcN6hr8afUcR9Kzpk2W2ZPPd/06rE9jYARMAJ5SkC109NQx31ICZzS2f9J2wCvLfA/5UikmJcdgJJHf91LT/s/rTVUqLPfU6WbcG5Sxy33O2FLzwgYASOQbwTQUjRVy12ps99TIW2B1yb4nXKW0sskm7zrAPR67MlWbqKAxrlHJuBq2td1ZY0UyKTK75Yuq2m9LTMCRsAIGIHGE/A0VbXV09jG717fHj1oE2gb6tswbuvzrgOQSrVgeN/xAVTki+daOtcl/7lsVwBpW5JGwAgYgbwmgLaisQohiPcJjE+3DZp8lKbMbM2rDoBe6/lzEfdTmSH7+N6uyA+TnTrcd+AfSo9/fK0tMQJGwAgYAT8IoLFoLZrrR3ofTcP91IU24qNL4/wrbzoAxbPKb9NrPd/0uTJTjrhfrZxb9id2s5/PZC05I2AEjEBNBGZPPY/mor262t8nBBz5ptdWaMJRmDK1MS86AN7Qj658T2H5XF73CxVzp/2TpmuTETACRsAIZJHABe11v+BzlgnRtsJrM3xOOIzJ+dwghrGIIsnW3b+slg3V2bfJEed/JedO434C39K0hIyAETACRqDhBNBgtLjhezRoy6HpNqNBG+duo8xzjn0HoPhPn+3quM5fZ47qIyn8oGJu6d9+ZIn9MAJGwAgYgawTSGvxD/zM2NE2g7bDzzTDmFbsOwByLvU3Cr6jzr5Mjsivk51WPupLYpaIETACRsAIZEwATUabM07oUgId023HpSUh++aHObHuAPSY8fTV4vh3jchxnN+1ShV+xsb098P1LA0jYASMgE8EZs9Ooc1otE8pCm2H14ZIfP9i3QEokMR3teoKdM54YgCKFi3Olm5+/J4g31KVsZ2WgBEwAkYgHwmgzWg0Wu1T+QvSbYhPyfmZjD9pJfxJJnypFM9c8IA4cptPliWbpZy7tn57+lGf0rNkjIARMAJGwGcCaDRarckmdc580jbEa0syTymUKcSyAzBi9pOFIqnv+EY8IX+863ul/jiUb0ZZQkbACBgBI3AlAU+rVbOvXN7036nvjPDalKan4PeefqUXyw7A4cMt/oeIM1j8+HOcJ5PfLXvWj6QsDSNgBIyAEQiegKfZqt3+5OQMvtCm+JNamFKJZQfA8W+438PnXZkRpgozW4yAETACRqB+AmntPlz/lvVv4WObUn9m9W7h3wax6wB0n7mAt/zd6Asix/nqvrmle31JyxIxAkbACBiBrBHwtFs13KcMb0y3LT4lF45kYtcBaO6kHlS0Ptz5776anFP675qWTUbACBgBIxBBAhc03H3VB9ML0m2LD0llloSfe8euA5Bynek+ADpdkBK/x5j2wSxLwggYASNgBBpDIK3lpxuzT03b+tS21JR0zpbFqgPQ7Uu/6emIZHz633Xln3c9Pm1LzmrFMjYCRsAIGAFfCKDlaHqmidG20MZkmk5m+/u7d6w6AM0Lzz2keDItU0qqq/9V07HJCBgBI2AE4kDggqanMixKIt3GZJhMeHbPtLEMT0mwxJXMT/87srDy+w/tIDmbjYARMAJGIPoEPE1Xbc+4JH60MRkY4feusekA9J316yKFc73OGU2O6/y/jBKwnY2AETACRiB0BHzS9uvTbU3oytcUg2LTAahKJe5XAJmW50CHTmcXaDo2GQEjYASMQIwIpLX9QIZFSqTbmgyTacru/u+TaYPpv0VNTNFxnNFN3PXD3VyRn6ybPb3qwwX2xQgYASNgBGJBAG1H4zMtjB9tTaY2+LV/nDoAV2UKxU0k/i3TNGx/I2AEjIARCCcBPzReOwAZtzVNoRPEPrHpALium2ml7Nrz3QfWBgHZ0jQCRsAIGIHcE0hr/K5MLPGhrckke1/3jUUHoMdXn+6uVLrqnMm0LZOdbV8jYASMgBGIBIFMtb5rus3JYmGDySoWHQDnXLO+GeNx3EydImMTLAEjYASMgBEImIAPWu9LmxNwMRuSfCw6AAWOtGtIYevcxnW21rneVhoBI2AEjED0Cfig9b60OY0gGdSmsegAuFLdPlNAel3HzgBkCtH2NwJGwAiEnIAfWu9HmxMGTPHoAKQyPwPgiF0CCINDmg1GwAgYgSAJ+KH1rg9tTsPLGNyWsegAOI6T8SUAx3W3B4fZUjYCRsAIGIEwEPBD6/1oc8LAIh4dANc5mSlMxylslWkatr8RMAJGwAiEm4AfWu/40OY0lFKQ28WiA+C6qcpMIaXc8/0zTcP2NwJGwAgYgXAT8EPrXR/anDBQikUHINHMybgD4DiJAWGoELPBCBgBI2AEgiPgh9b70eY0rITBbhWLDoBblUpmislNiJ0ByBSi7W8EjIARCDkBP7TejzYnDJhi0QGo+P60Qwozs5f4uK51ABSiTUbACBiBWBPIXOur0m1O4JiCziAWHQARxxWRPTpnMlkHIBN6tq8RMAJGIBoEMtV6bWu8Nicapa3Dyph0AES0B5DpfQCD5OEnC+pgZauMgBEwAkYgygQuaPygTIrgQ1vTwOyD3yw2HQBHJNP7ADr2Kiq8M3jkloMRMAJGwAjkgkBa4ztmkrcPbU0m2fu6byw6AEUzF/yRUrlb54wm13H/MKMEbGcjYASMgBEILQGfNP7udJsTaDmzkXgsOgDipNoorJY6ZzS54tzf46tPd88oEdvZCBgBI2AEQkcAbUfjfTCsZbrN8SGp3CYRjw6AfwybF1QlPudfcpaSETACRsAIhIFAWtubh8GW+m3IzhbWAbiSsyN2GeBKJvbbCBgBIxB1AqbtH6tB6wB8DIkMK57x9PUfX2xLjIARMAJGIIoE0po+LCq2Z8tO6wDUQNpxnMdqWGyLjIARMAJGIIIEHNP0GmvNOgA1YHHFebD4sfL7a1hli4yAETACRiBCBNByND06JmfPUusA1MY6JT/o+rUF7WpbbcuNgBEwAkYg3AQ8DVctD7eVubPOOgC1s+9VeNb9Vu2rbY0RMAJGwAiEmUBaw3uF2cYrbTmwpjEAABAASURBVMvmb+sA1E37T4pnLbiu7k1srREwAkbACISNQFq7/yRsdoXJHusA1F0bjrjuv46Y/WRh3ZvZWiNgBIyAEQgLAU+zVbvVHkfnCE3ZNdU6APXzHn7kSPNv1L+ZbWEEjIARMAJhIJDW7OFhsCXMNlgHoCG14zp/WTRjwV0N2dS2MQJGwAgYgdwR8LRaNTt3FjQ952zvaR2AhhFv5jjur3rOfGZiwza3rYyAETACRiDbBNBotFrzbaazTfUQsA5APYAuW90mIe5ves14dvBly+yrETACRsAIhIAA2oxGqym8HE4/ojZl317rADSKudst5VS/2O1Lv+nZqN1sYyNgBIyAEQiMAJqMNou43QLLJIYJWweg8ZXav3nzc7/t/Ojz7Ru/q+1hBIyAETACfhJAi9FkTbO/zpGdcmG4dQCaRn1My8TZ+SPs8cCm0bO9jIARMAI+EECD0WJNaozONjWSgHUAGgns0ubOLUcOF/50/Bd+1PzSMvtmBIyAETAC2SCA9qLBIs4tEvm/3BTAOgCZcX+4slWPF/v8yXOdMkvG9jYCRsAIGIGGEkBz0V7d/mGdbWoiAesANBHcZbtNPV94/p3ej84feNky+2oEjIARMAIBEEBr0VxNeqrOsZhyVQjrAPhDfmh1wnm32N4b4A9NS8UIGAEjUAMBNBat1VVDdbYpQwLWAcgQ4GW7dxXXfaV4RvmnL1tmX42AETACRsAHAp62qsZqUl11jtGUu6JYB8Bf9i3EkZ8Vz1jw1/4ma6kZASNgBPKXgKepqq1KoIXONvlEwDoAPoH8SDKOO7t4RvlPBz36vDnrR8DYDyNgBIxAwwmgoWipqKY2fK9obZlLa60DEBR9Rz5zquDc4l4zF4wKKgtL1wgYASMQVwJoJxqqZ1U/E9cy5rpc1gEIsgZcd3RK3KXag/1zefjJgiCzsrSNgBEwArEgoFqJZqKdohoaizLVWojcrrAOQPD8C7UH+/fFxYVv8rKK4LOzHIyAETAC0SSARqKVaKaWoFBnmwIkYB2ANNyrB/ZKfwvsY3LKqV5ZPKv8yyKuE1gulrARMAJGIHIEXAdtRCPV9Mk6BzZlQesbbHuuN7QOQLoGrh5QItdePVCcYJvm1uLK94pnlr9Y8uivA+9xpItmH0bACBiB0BJAC9FEtFGNbK1zIBPajsaj9YFkEMFErQNwWaUN6dNTrh89RDsBwfYCRJzbXafg/aIZ8z8r9mcEjIARyFMCaCBaKKqJEuCf4zietqPxAWbTyKRzv7l1AK6og/7F3WTq+GFSkAgYjSMdHMf5b+35vtDzsWeuusIM+2kEjIARiC0BNA/tQwNFtTDIghYkEp6mo+1B5hPFtANu5aKIRKRX985y2zUjpHmzrNy4f2cilVpVNLP8hz2++nT3aBIzq42AETAC9RNA49A6NE+3vlPnQCc0HC1H0wPNqAmJh2EX6wDUUgs9OneQOyZdLS0Km9Wyha+LC/SiwxcLziU28fhLv8+/1tLX1C0xI2AEjEAOCaBpaBsah9apKYEfXaHdaDharvnZVAMB6wDUAOXioi4d2so9U0ZLp3aB3ZdyMauLn+31dNjfV3U8+kHxrPmfErGnBS6CsU8jYASiSMB10DI0DW3TErTXOfAJzUa70fDAM2tSBuHYyToA9dRDu9Yt5W7tBGT1+pErfcV1fl40c8E72mueUo+JttoIGAEjEDoCaBcahpYJmpYlC9FqNBvtzlKWkc3GOgANqLpmBQm5YcwQmTi8vziOnsBqwD5+bKI5TRJH3i6eteCJHl95pr8faVoaRsAIGIEgCaBVaBba5WlYkJldlrbjOJ5Go9Vo9mWrQvc1LAZZB6ARNTG8f7HcMekqadmieSP28mFT151eUJDaUDyz/D96Plo+wocULQkjYASMgK8E0CY0Cq0S1SxfE68nMTQZbUaj69nUVl9GwDoAl8FoyFduKLnvujHSrWO7hmzu5zb0Oj6fSMj7GmQLOL3mZ+KWlhEwAkagKQTQIjQJbdL9P68zWqUf2ZnQYjQZbc5OjpnmEp79rQPQhLpo3bJQ7rx2pAzt07MJe2e8i55Vkwc4vaaB90bJrAX32s2CGTO1BIyAEWgUAddBe9AgtEh3fUBntEk/sjehwWgxmpy9XOOTk3UAmliXiYQjk64eKLdOHCE5cz5HbnBd97mSmQtWM6KWzH4tK88sNhGZ7WYEjEDUCajGoDVoDtqjjf8NuSgSmov2osFocS5saGqeYdovESZjomhLSbdOUnrjOBnUu0fOzHdFrnYYVfDw0S3FM8tn9Pjqi21yZoxlbASMQOwIoCloS7FqDFqD5uSqkGgtmov25sqGuORrHQAfapLRpqaMHCS3TbxK2rRs4UOKTU6ij+45t+Dc6R1FM+f/356z5vfT3zYZASNgBJpEAA1BS9AUTWCuzmiMfmR/QlvRWLQWzc2+BX7kGK40rAPgY30Ud+soD9w4Vgbn8GxAujhdHHH+KuE6W7XXvpCBOPrZ6IJpNPZhBIxAXQTQCjQD7UBD0BLdvovOOZvQVLQVjc2ZETHM2DoAPlcqPdPJnA24JudnAyiZo/9uFdf5eVWHo8niGeXfK350wVhdZpMRMAJG4CME0AY0Aq1AM3TlrTqjIfqRm8k76lctRVPR1txY4V+uYUvJOgAB1Uhx1wtnA64e2Cv4Nws2rAydxJEvS8J9T3v27xXPKv9ynz95rlPDdrWtjIARiCMBNAAtQBPQBk8jRHKuCwWJhKCd3lF/145xRB+KMlkHIMBqoMc6bmhfKb1xrPTtmdMzaFeWcqy48r3zheeTxTMX/Lxkxnzt6dt7B66EZL+NQDwJuA4xT+yjAWiBljM0ZwbRSjQT7URD1baYTOErhnUAslAnbVu3lJvGDfPGDujcoW0WcmxwFi1F3E+5jrNQxWBr8YwFf93zsWeuavDetqERMAKRIUBsE+PEOjFP7KvxqgH6PwQT2sgz/WglmhkCk2JvgnUAsljFPTq3l3unjJYpowZLqxaFWcy5QVn1E8ednUil3i+eOX9j8awF3y559JlrVSRyeg2wQZbbRkbACNRAQI/0NYaJZWKa2CbGdcN+OodmQgvRRLQRjQyNYT4bEsbkrAOQ5VpxtDkd1Ku7TLt5nIwMz/0BV1BwBovrfs1NpN7Ro4UKPWr4gX7ePv4LP8rqEJ9XGGU/jYARqIcAMUqspmO2ghgmlkU0piVcfwWJhKeBaCGaiDaGy8L4W2MdgBzVcbOCAhk7tK+U3TTOe2wwEV7vL9Kjhj/RMwEvVbbqsa9k5oKfFM1a8GDxF55tnSN0lq0RMAKXESAWiUlikxglVi/ErBRdtllovqJ1PNaH9qGBaGFojAvMkHAmbB2AHNdLm1YthEdcpt08Xob06SmJhJ4iyLFNdWTf0RX39xzX/bW0qj5QPGt+ecmMBf+j12NPdq5jH1tlBIyAzwSIOWKPGCQWiUliU7MJ7S3zaBsah9aheWif2mtTDglYByCH8C/PmmC49uqBemlgvPeSoYJE6KumlbhOqeu4/5lKFe4tnln+ll5r/Juejz5904jZT4buBofLWdt3IxA1AsQUsUWMEWvEHLFHDGpZWukc2qkgkfA0jYYfjUPrQmtsQIaFNdnQtzJhBReUXQx8wQsuCJZhfYvCMoZAfcXlJUTX6bXG/5VIJF4/crjwSPHM+S+pUH2958xnJsrDTxbUl4CtNwJG4DICGjPEDjFELBFTxBYxpltdpzMxpx/hnQoSCUHD0DI0DW0Lr7X5aZl1AEJa77zt6pqrBnhnBIb3i0xH4CJNPSJxbtcf30pIaklxcaF3uaB4xvxHe9pjhorFJiPwcQLEBjHCaX1ihtjRrb4l4sWSxpRE4q8gkRA0i4YfDUPLImF4YEaGN2HrAIS3bjzLCJ6JIwbIQ1MnyJjBfcL4+KBnZz3/OnqnKh1nHo8i6VFNpc4/0yObP+RlI/Xsa6uNQCwJ4PvEwIVYKK8kNkRjxIsVkdBey5da/nicD41Cq9AstKuWTW1xSAhYByAkFVGfGS1bNJdRg3vLQ7dMkBvHDJVundrVt0uY1/dU4z4t4vy/hOtsUwFk/mXxjPKvcp2z69cWRLpwYn9G4AoC+DS+jY+rv/9S5234vmgMiIjGghAT+jV6E1p0o2oS2oRGoVXRK0VwFoc5ZesAhLl2arAt4TjSr7ir3D15lNx33WgZ2Kt7VO4TqKE0Hy7qp98eEUf+keuchWfdIyqQ60tmlf+3fs5Q0ZzS67EnI3MKVMtiUx4TwFfxWXw37cPr8Wl8Gx9XNI/ojM/rRzSngkTC0x40CC1Ck9CmaJYmf622DkCE656hM68bNVg+oWcFeJ42RjfZ4JfDXFc+q9UzV0Xz7VSq8LgK6iq9RvpvJTMW/HHRYwsmcGe0rrfJCOSMAD6IL+KT+CY+iq/is2rU3LQPD9Pv+LR+RHtCY9AaNAftQYOiXaKgrQ93+rFwynAjDt66FoXNhVEFH5w63nvnQFHXjqInCoLPOLs58CTBKC3YH7iO+y9Oyl165LDXKVhaNLP8X4pmLvij4hlPX1/8p892za5Zllu+EMC38DF8rUh9Tht7zwfxRXwS31QWo3TGV/UjHhNagqbcNG6YoDFoDZoTj9LldymsAxCj+nccR3iT1u3XXCUPTZ0o44f1k47tWseohB8rSqEumeCI/LEj7o/FSbwp56v3qzAf0Pmt4hnz/6145oI/K36s/P5eM54dbI8jKi2b6ibw8JMF+Ao+4/mO50PlbxXPLD+Ab+Fj+Bo+pwlN0Bkf1I/4TWgHGoKWoCloi+NoyeNX1MBKFPaEE2E30OxrGgHuwL1qQIk8cMNYue/6MTK8f7Hk0c05XZTadReOyNx/kJQ8k3KqNxYXF55SIV+r89MlM+b/XcnM8s/1emz+NQO+/mQH3d6mPCJAnVP3+AC+gE/ovBYfwVfwGRH1Hcf5A8Vync74lH7Ee0Ij0Ao0A+1AQ9CSeJc6f0tnHYA8qPvO7dvIxOH95eFbJsqtE0d4NxEWFORl1XO0NkKrfJrrOH/hivxXKuUsPnOmkJsOk3pa9zVtBH6s8/8unrXgD4ofnX9Hz0fLR3R+9Pn2uo9NESJAnVF31KFXlzPL/7fW64/TdZykzql7fABf0KJN0xnfwEf0a/5MaAE38aENaARagWbkD4GgShr+dPOyFQh/tQRjoeM4UtKtk/cY4fRbr5EpIwdJzy4d9EDZTusp8SKlcLN+/pHO/0dc998k4byYSMjalomqo9p4HNN5XfGFEQ7/vWjm/P+rR49fLJm14N6SR58eXfLlp/PiCFHZ5HyCtccc9jPLv0hdaN38e7putI7Kj1Fn1B116NWlyP9Rw/8oXcdF+j2vJ8dxvNhHA9ACHuNDGxxHCeU1mfwqvHUA8qu+Pyxt82YFMqh3D7lj0tUy/daJXmegV/dOcXik8MMy+vylnaY3XC6Myvb7jjh/pUePP3Rd9zk3kVjpNktw38FpbYg2eUd0ZsD/AAAQAElEQVSZM8p/Wjyr/B/1+zd02ZeKZ5R/uues+XeXzHp6cvFXnh3W7Uu/6Tno0edbSJ7/wQAWMIENjGAFM4+dMtTfP9XvnJ3ZpMtPw9pjDnuRH1IXivH35ULdaB0JdSX291ECBYmEEOMXGv2JXuyjAWjBR7e0X34QiEIa1gGIQi0FbCN39CIEt0wYIdNvu8Y7Q9C3qKs0K4jVzcwBU/SSb6n/BzkiN4sjnxFXvqrfvyki39ffP0u4zvOum1gkBdXrmzc/V3kqUXWGBk3npM4cub6tDd1v9PvPtNH7XtGM8r8tmTn/T/XI9g+LZi14kNPZvWbNv7l41oLrvOvXs+aP6fnYM1dx05o2nP16PfZsSc9Hn+zWb9b8jj2++mKb8V/4UXPNO6OJNEiLNEnby2PW/H5enpp3idqALZ5N2Pbo/Ds8W2fO/0NspwyUhTKly/a2fqeslPk0DGABE9jACFZq9Pc9dspQf39Gv9+sywbpDGP9sKkhBIhhYvnGMUO92CbGiXViviH72zbxJmAdgHjXb6NLx9EA1wNvGjtUHrn9GrllwnBvwI8WzUP/7pFGlzUkO9CgcUp6uNozRRu6e/Tz09rofVnPxv6lK853RJz/5/AKZr0kkXKd1/SU9lve9WvXWcHwsdy0pg3ntlSqenciUbivynUOF5w7faKyVY8qbWxdnfk8qQ3xkeKZC/YVzyyvKJ5Vvl07Fhu92fuuy1g3o1y3KT+p27CPSxqkRZqk7eXhOtu8PFOp9121AVs8m7BNbXSwVW3GdspAWUTk0+myTdHvlJUyU3b9aZOfBIhVBggjdolhYpmYJrb9zMfSqotANNZZByAa9ZQTKwsSCT1l2FkY8IMzA7dPukqG9SuSDm1tUL6cVEjTM+VMQGttiDuIuN00mWJxpa+IM9ibve9S7K1zRLeR1iLCPvphUxQIEJPEJjFKrBKzvbp3tkt6Uai8HNqYyGHelnWECDiOI0VdOso1IwZI6Y3jvHcSTBk1SDiyaFnYPEIlMVONQPQJEHPE3pRRg71YJCaJTWLUcfRcS/SLGOkSRMV46wBEpaZCZmebli1kUK8e3v0CHHHw3DCDhjBiWEHC3Cpk1WXmRJxAQSIhxBYxRqwRczfqdf1BvboLsRjx4pn5OSJgSp0j8HHLlueGGTSEEcM+ecck4ZPfLI9bWa08RiAbBIgdYohYspjKBnG/8ohOOtYBiE5dRcbSgsRHj1Y+efskbwCiUYN6e88ec2dyZApjhhqBLBAgJhiTgxhhQB5ihiN9jvg58i9ImFRnoRryLgvzqryr8uwXuLB5M28AojFD+njPHn9KzxAgbpOuGiD9i7tJ21Z5/zh89ivFcswpAXwe3ycGiAVi4o5JVwsxwoA8xExODbTMm0wgSjtaByBKtRUTWx3HEU5vDu1bJDeMGSIPTp0gD9860XuT4Yj+xdK1YztJJOxGpphUd94XA1/Gp/Htm8YN83wdn8f3iQFiwXHM3/PeUXIAIJGDPEOZZcp1Q2lXvhjVqkWh9ybDCcP7yz1TRsmn75ws918/xnsEcbh2Cjg9akdF+eIN0S0nPoqv4rM8iocP48v4NL7NG/Xw9eiWMPqWB6v10eJjHYB0fZ08fTb9zT7CQCChR0Sd2rfxBiHi5SScHv3k7ZO8swVTxw+T0YN7S+8enaWNXT4IQ3XlpQ34Hj6IL+KTHNXjo/gqPstgPPgwvpyXgEJaaNP6SxVjHYA0ixOnzqS/2UeYCXDttHePLtoB6CNTxw+Xh/TywUXR5QiLYU67d2ovPCct9mcEfCCAL+FT+BY+RgOPz+F7+ODowX20M9rF7mXxgXU2kghS67Nhv595WAcgTfOEnQFIk4jex8XTrlxj5UUnd00e6Y17jkjfM2W0XD96sHB3NWOid2rXRgoKzO2jV8vBWoxP4Bv4CL6Cz+A7+BDP3ONT+BY+xil+fC5Yiyz1oAiY1l8ia0qYZnHczgCkScTnA5Hu2rGtDCjpLtxdzZjo998wRj5z52TvzAHPV3MX9vB+Rd5TCh3bthYbLz0+9X9lSahb6pi77Klz6h4f4Egen8A38BF8BZ/Bd/ChK9Ox39EmEJzWR4+LdQDSdWanhdIg8uSD67c8X81d2BNHDPDGKXjgxrHyqTuulU/qfP8NY4U3p1179UAZObCXDCjuJj06t/dO89o13fA5CXXC5SHqiLqizqg76pC6pE6pW+qY5+ypc+oeH8AXwlcisygoAqb1l8haByDNwk4LpUHYhxQ2K5BO7VpLr+6dZEifnjJ2aF+5fswQufPakd5NiJ+5a4p84paJcveUUXLj2KHCDV80OIN79/CuBXO9uH2bVmJHj5LxHwxhCVPu/YAxrGEOe+qAuqBOuAmPOqKuqDPqjjqkLqnTjI2xBGJBICitjyKcRBSNDsJmTgudOXsuiKQtzZgRcByR1i0LpVvHdtKvqKvwyBcNzuSRg2Tq+GHC9eKym8YJ148/e/cUYYwDjkK5eYxG65qrBsiowb1lqHYu2J9T0t07t/fGRmjXuqXwmBgjw0lM/igLZaJsPPNOWSkzZYcBLGACGxjBCmawgyEsYQpbGMMa5uxPHVAX1ElMcFkxAiSAxqP1AWYRqaStA5CuLtd1ZUvFvvQv+zAC/hBwHMdr0DkK5eYxGq1hfYtkzOA+MkkvL9DocUr6Lj27wIhw024e73UYPn3ntfK5e64TPmkMWc56tmN7rlVPGTVIuI7N6ewJw/vJOD1TwfXr0dq54CiZceS5aY3XxHI0zNEzj6Zxihw7+vTsIsx8Zxnr2IZt2Yd9SYO0SJO0yYO8yJO8sQFbsAnbsBFbsRnb6yoDZYcBLGCCHTCCFR0Gx3H8qQRLxQikCaDxaH36p48f0UzKOgCX1dumXXsv+2VfjUDuCdR29Mzd6oN69RCuY3ND24j+JXL1wF7CHeyjB/fxLluMH9ZPJgzvL9eMGCBcD+fomcFpOEVO43vzuGHCzHeWsY5t2JZ92Jc0OOImTdImD/IiT/LGBmzhiJ4je47wOdKnAcf23BM0C4zAJQKm8ZdY8M06AFBIz8dOnpZ9h4+lf9mHETACRsAIxIUA2o7GB1GeqKZpHYAras56iFcAsZ9GwAgYgRgQMG3/eCVaB+AKJjsqD8i589VXLLWfRsAIGAEjEFUCaDraHoz90U3VOgBX1N356pRsS+6/Yqn9NAJGwAgYgagSQNPR9qjaH5Td1gGogezqzbvsLEANXGyRETACRiBqBDj6R9ODsjvK6VoHoIbaO3WmSt7bsKOGNbbICBgBI2AEokQALUfTo2Rztmy1DkAtpDfsqJT9h4/XstYWGwEjYASMQNgJoOFoeXB2Rjtl6wDUUX+L1mySVMqtYwtbZQSMgBEwAmEkgHaj4WG0LSw2WQegjpo4euK0rNmyq44tbJURMAJGwAiEkQDajYYHaVvU07YOQD01uGbLbjl64lQ9W9lqI2AEjIARCAsBNBvtDos9YbXDOgD11Ix3Gmn1ZrsUUA8nW20EjIARCAOB7Gl2GEqbmQ3WAWgAv/1Hjsvbqzc1YEvbxAgYASNgBHJJAK1Gs3NpQ1Tytg5AA2uKgSSWrd/WwK1tMyNgBIyAEcg2ATQarc5GvnHIwzoAjajFdduSwtyIXWxTI2AEjIARyAIBtJk5C1nFJgvrADSyKq2H2UhgtrkRMAJGIGACHPWjzQFnc1ny8fhqHYAm1CPXmCoPHmnCnraLETACRsAI+EkALUaT/UwzX9KyDkATapq7TF9f/oEcOnayCXvbLkbACBgBI+AHATQYLUaT/UivoWnEZTvrADSxJnnBxMIla+XA0RNNTMF2MwJGwAgYgaYSQHvRYLS4qWnk+37WAcjAA85UnZMX310jO/YczCAV29UIGAEjYAQaQwDNRXvR4Mbs58+28UnFOgAZ1mV1dUp+994H8v6W3RmmZLsbASNgBIxAfQTQWjQX7a1vW1tfNwHrANTNp8FreeXkojWbJeXay4MaDM02NAJGwAg0kADaisaitQ3cJZDN4pSodQB8rM3Nu/bKK0vWSdW58z6makkZASNgBPKbAJqKtqKx+U3C39JbB8BfnsIjKb99Z7UcP3XG55QtOSNgBIxA/hFAS9FUtDX3pY+XBdYBCKA+j544Lb9dtFr2HDwaQOqWpBEwAkYgPwigoWgpmpofJc5uKa0DEBBv7k59afH7snT9NqlOpQLKxZI1AkbACMSPAJqJdqKhaGlYShg3O6wDEHCNrt+WlOfeWmnjBQTM2ZI3AkYgHgR4vh/NRDvjUaLwlsI6AOm6aVHYLP3N/w9OX3Eaa+XGnfaUgP94LUUjYARiQIC7/NFItBLNDKpITdf6oCzKXbrWAUizv33iVdK2dcv0L/8/XNeV1Zt3yfOLVsuRE6f8z8BSNAJGwAhElACaiDaikWhlUMVA49H6oNKPWrrWAUjXGI5x17UjpUPbVuklwXwcOnpCfvPWKlm7tUK0TxBMJpaqETACRiACBNBAtBBNRBuDNBltR+PR+qbkE8d9rANwWa22blkoOEjnDm0vW+r/V25wWf7Bdm8Y4WMnT/ufgaVoBIyAEQg5AbSP4XzRQjQxSHPRdLQdjQ8yn6ilbR2AK2qsRWFzuXPS1dK9c/sr1vj/c9/hY/LMGyu8JwUY6ML/HCxFI2AEjEC4CKB13OGP9qGBQVuHlqPpaHvT84rnntYBqKFemzcrEK4TlXTrVMNafxdx4wt3uz79+nLhk9/+5mCpGQEjYARyTwBtQ+OyqXVoOFqOpueeQPgssA5ALXVSUJCQqeOHS//ibrVs4e/iy3vFu/ba2wX9pWupGQEjkEsCaBpH/Bz5o3XZsAXtRsPR8kzzi+v+1gGoo2YTCUduGDNEJgzvJ47j1LGlf6u4Lvba8g/kxXffl4NHT/iXsKVkBIyAEcgyATQMLUPT0LZsZO84jqfZaDcano08o5qHdQAaUHMj+pfI7ddcJS0Lmzdga3822XvoqPzm7VXy9qpNcupMlT+JWipGwAgYgSwQQLPQLjQMLctCll4WaDRajWZ7C3z5F99ErAPQwLrt2aWD3Hf9GOnWsV0D9/Bnsy0V+6T8d8uFATLOVtlbBv2haqkYASMQBAE0Cq1Cs9CuIPKoLU20GY1Gq2vbxpZ/lIB1AD7Ko85fPEJy57UjZWifnnVu5/fK89UpbxChX7+2VJau2yonT5/1OwtLzwgYASPQZAJoEtqERjGYD5rV5MSasCOajDaj0U3Yvc5d4rzSOgCNrF2uKU26eqBcN2qwFCSyi4+gWr+9UriL9q2VG+Xw8ZONtN42NwJGwAj4RwANQovQJLQJjfIv9fpTKkgkPC1GkxOJ7NynVb9V0dkiuy1YdLjUa+nAXt3lnimjpFO71vVu6/cGDJW5Nblfnn1zpbyydJ29dthvwJaeETACdRLgNb1oDxqEFqFJde4QwEq0Fw1GiwNIPp1kvD+sA5BB/XZq30buvW6MjBrUO2tPCVxpbsX+w/LS4vflgy3bvwAAEABJREFU+bdXyY49B2144SsB2W8jYAR8IcCwvWgMWoPmoD2+JNzIRBzH8TQX7UWDG7m7bX4ZAesAXAajKV857TRmSB/vbEDHHJwNuGgzr9D83XsfeDcMbty5R4IeWvNivvZpBIxAvAmgJWgKN/ahMWhNrkqMxnLUj+aivUHbEff0rQPgUw136dBW7rtujIwc2CtnZwMoyvFTZ+Td97fIr15dJgy6ceS4vXkQLjYbASPQOAJoBxqClqApaEvjUvBva8dxPG1FY9Fa/1LO75SsA+Bj/dMjHTu0r9w9ZZR0aJv9ewMuL8rZqnPe0MLPvLlCnl+0SujBnztfffkm9t0IGAEj8BECaARagWagHQzdi5Z8ZKMs/0BL0VS0FY3NXvbxz8k6AAHUcVfOBlw/Wq7WswEJ7bkGkEWjkjxw5IR3VuCpV5Z4AwvtPXSsUfvbxkbACMSbAJrAwD1oBEf7aEauS4x2oqH3qZaiqbm2J475WwcgoFotSCRknJ4NeODGsdKre+eAcmlcsjyiw+AcvIKz/HfvyZotu22UwcYhtK2NQGwIMFofGoAWoAloAxoRhgKimWgnGlqQyE0zFQYOQdtgZAMm3L5NK7llwnBvKGEeWwk4uwYnz7jcKzbskF+/tkxeXbZeeFkHb+tqcAK2oREwApEjQIwT68Q8sY8GoAVhKQgayVC+aCbaGRa74mqHdQCyVLNFXTt6Qwlfe/XArL5ToL7i8fzu7n2HhJd1/OqVpfLOms3C4z2plFvfrrbeCBiBCBAglolpYpsYJ9aJeWI/LOYzhj/ayFC+aGXu7coPC6wDkMV6dhxHhvTpKWU3j5erBpRIIhGukavOVJ2TTbv2eoMLPbFwsby5cqM3tsD5art5MItuYlkZgYwJELM8s08ME8sM2kNsE+MZJ+5jAmggWogmoo2OEy5N9LGooUzKOgA5qJbCZgUyflg/Kb1xnPTp2SUHFtSfJXcDb0vuF577feLlJXqGYL1s2b1Pzp6zFxLVT8+2MALZJ0BsEqOvLV8vxCyxSwwTy9m3pv4c0T40EC1EE+vfI3tb5EtO1gHIYU23a91Sbh43TO69brT07tE5h5bUnTUDgezae0jeXr1Jnly4RF5evFY27Ki0GwjrxmZrjUDgBLiRj1gkJolNYpRYJWYDz7yJGaB1aB7ahwY2MRnbzQcC1gHwAWKmSTCwxdTxw+X+68dI35CeEbhYRq4bVh48IovXbpVfvbpUfrtotazdWiEMGnJxG/s0AkYgOALEGjFH7BGDxCIxSWwGl2vmKaNtaBxah+ZlnmJQKeRPutYBCFFdM671TXpG4IEbxkq/oq4Shcth+48cl+UfbBcGDeEI5I0VG7xBh3I5aliIqtRMMQIZEyCWGJyH2CLGiDVijtjLOPGAE0DD0DI0DW1D4wLO0pJvBAHrADQCVrY2ZbzrG8cOlQduGCcDirtpRyAaN8Zwg9H2ygPeoEPzX18uv351mXfZgOeLOVUp9mcEjEC9BIgVYobT+cQQscTgPMQWMVZvAiHYwHEcT7vQMLQMTQuBWQ0yIZ82sg5AiGu7Q9tWcv2YIVJ641gZ1Ku7FCSiVV0nz5z1bhxkhDFOVTLgSNSELMTuYabFhACNOo07sUGMECvEDDf0EUNRKmZBIuFpFZqFdqFhUbI/32yNVouSb7WTLi8DYkwZNVgeumWCjB3SV1q3LEyvidYHA45cfirz2TdXyNJ124Sblk6frYpWYcxaI9BEAvg6Po/vEwOc1uf0PrFBjDQx2ZzuhiahTWgUWoVm5dSgJmeeXztaByBC9c1gGSMH9ZKHpk6Qm/QSQffO7SNk/cdNPXz8lKzfnvQeMXzqlaXeTYWvv/eBN0Rx5YEjUmWPHH4cmi2JFAF8GF9myF18m6N7fJ1H9fB9YiBSBbrCWDQILUKT0CY06opN7GeICVgHIMSVU5tpjuNI36Kucte1I70nBwb17iEFBdGvSq597txzUBie9OUla+WXLy8Wrn++uXKjrNuWlH2HjwkDnNTGxZYbgVwSwDfxUXwVn8V38WF8GZ/Gt/HxXNroR95oDZrDHf1oEFrkOI4fSec8jXwzIPqtRr7V2BXl5a7aKSMHySdumegNLtSmVYsrtoj2T+6AZjCTZeu3yQvvrJFfvLTYe+Jg0epNsmHnHjl49IQw1Gm0S2nWR40APofv4YP4Infm45v4KL6Kz+K7UStXXfaiLQzag9agOWhPXdvbuvATsA5A+OuoQRa2aN7MG174wZvHyy0TRgiP3hQk4le9POvMc9Cbd++Txe9vkd+8vUp+/tI78px+vqVnClZv3uUNX8w2YR4MpUGVahvlnAA+hC8xrC6+hY/ha/gcvocP4otsg2/m3GCfDShIJDwtQVPQFobtRWt8ziYkyeWfGfFrIfKvDj9SYsdxpFf3TsKjNw/fOlF4wUb3Tu0/sk3cfnA0dkjPBGxN7peVG3d6wxdzRPbzF9/xLiEwDjpHZYyFvu/QMeGu67gxsPJkRgCfwDfwEXwFn+EUPj6ELzGsLr6Fj+Fr+FxmOYZ7bzQD7UBD0BI0xXHsNH+4a63x1lkHoPHMIrNHoZ4V4AUbd00eKdP0zMCowb2lbeuWkbE/U0NdV4TTsLwJjeuyvA3thXfXeMMZc232t++sFk7fMqoad2VzB3Ycj+Iy5RiX/alb6pi6ps6pe3wAX+BOfHwDH8FX8Bl8Bx+KS/nrKwfagEagFWgG2oGG1LdfXNbnYzmsA5Antc6Y22MG9xFO43HjDjfxNG9WkCel/3gxuTt7/+HjwulbRlV7bfl64Rnsn76wSLhL+3m9pMBd20vWbfWGOuaa7l49e0CjwGnhj6doS3JJgDqhbqgj6ooGnrqjDqlL6pS6pY6pa+qcuscH8IVc2p7LvNEAtABNQBvQCLQilzZZ3tkjYB2A7LEOTU48usNNPNNvvca7VMD9AghBaAzMoSEc8fGc9gG9pMBd2x9sr/SGOuau7hf17AGnhX/2wjvyxMIl8txbK+XVZeu9kQ/XbN7tDXrEmOwcZXJHeA6LEausYQlT2DI4DqwZNAf2z2kdUBfUCXVDHVFXNPDUHXVIXVKn1G2swDSxMMQ6Mc+pfTQALUATmphcTHbLz2JYByA/690rNY/zfCgEt10jt04cIYN79xB7ltfDU+e/s1Xn5NCxk7J73yHv3QcrNu7whj3mrWwcZf78xXeFmaFcGeyF08sceTLCGwPArNq00xsDgQaNU9IcufJMOCO/nTtfXWfeUVxJmSgbZaSslJmy8yw8LGACGxjBCmawgyEzTGHL8LiwZtAc2FMH1EUUmWTTZmKa2CbGp2us0/gT+2hANu2wvMJFwDoA4aqPnFlTkEhISbdOMnnkIHlYzwzcee1IGd6/WNrG7LHCbALmyPVio8cNZl6jV7HPa/hXbdrljYJIg0ajx5HrxUbvFy+9Kz/57SI9y7DYu4mRu815lpzT2YwY99aqjd69CxwFL1m7Vbhp7b0NO7wbILlT/f0tu2XdtgrhCJiGcvPuvbJV892ePCAcEdNwco17z8Gjwsx3lrGObdiWfdiXNEiLNEmbG+HIizzJGxu4lo5N2IaNLy9Z6z2dwRH5EwsXe2WhTDTolJGyUmbKTsMPCzoCjH8PI1jRUYAdDLNZZ3HKi9glhollYprYJsYLEib7V9Zzvv42T8jXmq+j3Nzs26Nze5k4vL88OHWC3Hf9GBk1qLfYCz3qgObzKm5YO1t13ruJkefNGU3Oa6ArD2hjvt+7d8FroHdUamOflI830NuFa+AXGujN8taqTfLGyg1CA82pc+5yf2nx+8LMd5axjm3YdtHqzd6lDdJYtn670OjT+NMJIC9ulPtA88YGrqVvrdgvjGePjdiKzVyTpwyUxWc8llwtBIhRYpWYJXaJYWKZmK5lF1ucxwSsA5DHld/Qondu30bGDOkjvNKTO4R5PKhvzy5idwg3lKBtZwSCIUAMEovEJLFJjBKrxGwwOcYx1fwtk3UA8rfum1Ry7hDm8aCbxg2TR/Ra4j1TRnmdA44yEnaY0SSmtpMRaCgBYoxYo5En9ohBYpGYJDYbmo5tZwQgYB0AKNjcJAKO40jXju28ywNcZ/zkHZO8UQiH9yuWDm1bNylN28kIGIGPEiCWiClG4yPGiDVO8xN7jmOD83yUVuN/5fMe1gHI59r3uezNCgq8UQgnjugvpTeO9d5PcN2owTKwV3dp36aVz7lZckYgngSIFWKG2GHcfWKJmGI0PmIsnqW2UuWCgHUAckE9T/Js3bLQa/wRsrKbxgmPH00dP9x7ZwFDjRYkzP3yxBWsmLUQKEgkhFhgjH1igxghVogZOgHEUC272mJfCOR3IqbA+V3/WS09zyL37tHZe2vhXZNHCqcz7548yvvdu0cXG38gq7VhmeWCwIUY6OL5PL5PDNylsTB+WD/prbHB+lzYZXnmJwHrAORnvYei1AWJhHTr1M47IzB1/DDvDAF3MnP0M7RPT+nWsZ3YKc9QVJUZ0QQC+C4+jC/j0/g2R/j4Okf8+H5BwiS4CWh92yXfEzLvS3tAVQxHX0sXLVIf3MnMqc9JVw+Uu6eMkk/dca1wSpSRy64e2EuKu3WUli2aR6pMZmz8CeCT+CY+iq/is/guPowv49P4dvxJhL+EpvWX6ihx6Wt+fztx6kx+Awhp6bnJmZuiGLZ03NC+ctvEq4Txy3lNKcOasox1bMO2Yn9GIEAC+Bi+hs/he/ggvohP4pssYx3bsG2ApljSTSRwSeubmECMdrMOQLoyT5y2DkAaRSQ+WrUoFIY1vfKI697rRsv1Y4bIqMG9BSFmQBROxUaiUGZkaAjgM/gOPoQv4VP4Fkf1HN1zlI/v4YP4YmgMN0PqJWBafwmRdQDSLBi2NP3VPiJKANHu0qGtDCjuJrzWFJFmSNRP33mt90jiHZOuFk7HMj46ws0pWcdxIlpaMztTAo7jCD6AL+AT+AY+wqN3+Ay+gw/hS/gUvoWPZZqv7Z9bAhe1PrdWhCN36wCk6+HEqbPpb/YRRwI8TtWzSwfhhizGR+fULTdlfebOyVJ64ziZOn64XHPVAO+GxH7FXYUbtNjHcayDEFV/cBxHqEPqkjrlxjvqmLqmzql7fABfwCfwDXyEfaJaZrO7fgKm9ZcYWQcgzcJOC6VB5NlHIuFIh7atvEewhvUt8h7PunHMULl78ijvrMHv3TVZHpo6Qe6aPFJu0EsLXOMdqtv16t5ZOrVvY+9DkNz9MQ4+dUBdUCfUDXVEXVFn1B1H83drXVKnPGpHHfO4HXVO3efOess5VwQuaH2ucg9XvtYBSNfH8ZN2D0AahX1cRsBxHGnTqoU3WEt/vbTAdd9JeqbglgnD5f7rx8gnb58kn6GTcMsEue+60cKNYNePHiIThveXkQN7yeDePbzOBUeh7du0sg7DZWyv/EqDDiNY0UjDDoawhClsYfyQsoY57KkD6oI6oW6oIwbWoc4cx87eXMnYfouY1l/yAo39nvUAABAASURBVOsApFmcqTon+w8fT/+yDyPQcAIFiYS0adlCOndo6z2mOKCkm4zoXyxjh/aVySMHeZcXOArl5jEard+7e4pw5/j9N4wRrjlzSpojV97oNmF4Pxk9uI93KYIXvHDtmcawqEtH6dqxrZ6taC00bi2aN5NECBo4bMAWbGLMemzEVmzGdsrAqXfKRNkoI2WlzJQdBrCACWxgBCvWww6GsIQpj9nBGNYFiYTYnxFoLAE0Hq1v7H5x3d6i6LKa3bRrz2W/7KsRCIYAjSZ3jndq10a45kxjyZErjeWI/iXaAejtXYqgseTucxrD2yddJfdMGS2MC8/p7Uf0zAON5mfvvk5+764p8uk7J3tjJrCcwWY49c12XOOmUWU/GluOoEmHRpaXyjDznWWsYxu2ZR/2JQ3SIk3S5i548iJPL2/tzLCc7diPdLAVm7GdMnDqffTg3topKhHKSFkpM2WHASxgEgxtS9UIXCJgGn+JBd+sAwCF9Ly98qCcswGB0jTsIwoEOAmQSDjSrCAhzZsVCEfjDCfbumWhd6aAu9w5rc7ROY0tR9AcpXfr1E54rSwz31nGOrZhW/ZhX47sSYs0SZs8yIs8yVvszwhEhADajsaLRMTgLJhpHYDLIJ+vrpbtlQcuW2JfjYARMAJGIA4E0HY0Pg5l8asM1gG4guSmXXuvWGI/jYARMAJGIOoELmp71Mvhp/3WAbiC5oEjx+XI8VNXLLWfRsAIGAEjEFUCaDraHlX7g7LbOgA1kP1gR2UNS22RETACRsAIRJHAJU2PovXB2WwdgBrYbtq1Rw4cOVHDGltkBIyAETACUSKAlqPpUbI5W7ZaB6AG0q4r8s6aTZLiSw3rbZERMAJGwAiEnwAajpZflPLwW5xdC60DUAvvw8dPydotFbWstcVGwAgYASMQdgJoOFoedjtzZZ91AOogv3rzLjl28nQdW9gqI2AEjIARCCMBtBsNv2SbfbuSgHUAriRy2e/qVEoWrdl82RL7agSMgBEwAlEggHaj4VGwNVc2WgegHvL7Dh2TjTttiOB6MNlqI2AEjEBoCKDZaPflBtn3jxOwDsDHmXxsyfIPtsvhYyc/ttwWGAEjYASMQLgIoNVodrisCqc11gFoQL0whvTCpevkxOmzDdjaNjECRsAIGIFcEECj0Wo0+6P526+aCFgHoCYqNSw7fbZKFi5ZK2erztew1hYZASNgBIxALgmcrTrnaTRanUs7opS3dQAaUVvcVfrKsnVyvjrViL1sUyNgBIyAEQiSAJr8yrL1tT61FWTeUU7bOgCNrD3Gk/7dex+IayNLNJKcbW4EjIAR8J8AWowmo83+px7vFK0D0IT6rdh/2B4PbAI328UIGAEj4DcBHvdDk2tP19bURsA6ALWRqWf5lt375L0NO+rZylYbASNgBIxAUATQYLQ4qPTjnq51ADKo4fe37JZ31my2ywEZMLRdjYARMAKNJcBpf7QXDa5vX1tfOwHrANTOpkFrNu3aKzx2UnW+ukHb20ZGwAgYASPQdAJoLZqL9jY9FdsTAtYBgEKGc+WBI/LCotVy0sYJyJCk7W4EjIARqJ0AGovWorm1b3X5GvteFwHrANRFpxHrjpw4Jb9ZtEoOHDnRiL1sUyNgBIyAEWgIAbQVjUVrG7K9bVM/AesA1M+owVucOXtOXly8RnbsOdjgfWxDI2AEjIARqJsAmoq2orF1b/nRtfarbgLWAaibT6PXVlenhGdS126taPS+toMRMAJGwAh8lABaiqairR9dY78yJWAdgEwJ1rI/L6N4Y+UGOXvOhg6uBZEtNgJGwAjUSgDtREPR0lo3qnOFrayPgHUA6iOUwfrtyQPyzBsrZPe+wxmkYrsaASNgBPKLAJqJdqKh+VXy7JbWOgAB8+bFFK8uW+eNHGhvqAoYtiVvBIxApAmgkYzsh2ainZkUxvatn4B1ANKM+vbskv4WzMfmXXvlmTdXyJ6DR4PJwFI1AkbACESYANqIRqKVQRYjaK0P0na/07YOQJro5JGDZHi/4vSvYD54hvWlxe/L0nVbxW5oCYaxpWoEjEC0CKCFaCLaiEb6Y33NqaDxaH3Na/NvqXUALqvziSP6y+jBvS9bEszX9dsr5dm3Vsr+I8eDycBSNQJGwAhEgAAaiBaiiUGbi7aj8UHnE6X0rQNwRW2NHtxHsuEkx06elhfeWaNnA7ZJlT0pcEUt2E8jYATiTADNW7pum6eBaKHfZb0yPTQdbb9yeb7/tg5ADR7AaaLrRg0Wx3FqWOvfIl5osX57Uua/vlzWb0tKynX9S9xSMgJGwAiEjAAah9Z5mqfahwYGaaLjOIKWo+lB5hPVtK0DUEvNDezVXW4aO1QSiWA7AWTP865L128THnvZtddGEYSJzUbACMSLANqGxqF1aF5wpbuQMtqNhqPlF5bY/ysJWAfgSiKX/e7Ts4vcfs3V0rKw+WVLg/vKqbDXln8gL777vhw6au8UCI60pWwEjEC2CKBlaBrahsZlI180G+1Gw7ORX1TzsA5APTXXo3N7ue/6MdK1Y7t6tvRv9d5DR+W5t1fJ26s2yakzVf4lbCkZASNgBLJEAO1Cw9AyNC1L2QpajWaj3dnKM6r5WAegATXXumWh3HXtSBnSp2cDtvZvky0V+6T8d8tl5aadcr662r+ELSUjYASMQEAE0Co0C+1CwwLKpsZk0Wi0Gs2ucQNb+BEC1gH4CI7af3A96dqrB8qUUYOkIJE9bOerU7J60y55+vXl8v6W3VJ13joCtdeSrTECRiBXBNAmNAqtQrPQrmzZUpBIeNp87dUDs3LfVrbKFXQ+2WvJgi5JltIf1KuH3DV5pLRp1SJLOV7I5szZc/Lehh3y61eXCi/HsGEyL3Cx/0bACOSWAFqEJqFNaBRalU2L0GI0GW3OZr5xyMs6AE2oxS4d2sp9142Woi4dm7B3ZrswVjavx3z6teXyzprNkq2bajKz2vY2AkYgbgTQHjQILUKT0KZslxENRovRZPK2uXEErAPQOF4fbt2isLncds1V3qBBzQqyj7E6lZJNu/bKgjfek9+994EcsKcGPqwb+2IEjEBwBNAaNAftQYPQouByqzllNJfBfdBgtLjmrWxpfQSy33LVZ1GE1juOeO8PuP+GsdK9c/ucWM7YQTv2HJTn314ljKWdPHAkJ3ZYpkbACMSbANqCxqA1aA7ak4sSo7VoLoP7oMGXbLBvjSVgHYDGEqth+3atWwp3nk4cMUDomdawSVYW8TathUvWynNvrZStyf2Si555VgpqmRgBI5AVAmgIWoKmoC1oTFYyriETtBWNRWvR3Bo2sUWNJGAdgEYCq2vz4f2KhJ5prp8/PXTspLy1cqM89cpSWbx2q/C7LrttnREwAkbgcgJoBtqBhrylWsLvy9dn+zuairaisbXlbcsbT8A6AI1nVuce9EzvvHakXJPjswEYyQs3Nuyo9M4I0IP/QL+zjHU2GwEjYAQuJ4A2oBFoBTPawbLLt8n2d4760VI0FW3Ndv5xz886AAHV8LD02YDePToHlEPjkqUHv0TPBtCjf1N79JUH7V6BxhG0rY1APAmgBWgC2oBGoBVhKCnayVE/Wlq/PbZFUwhYB6Ap1Bq4Dz3WqeOHy+3XXCUd27Vu4F7BbsY1vW3J/fLy4rXy9GvLvEGGTp4+G2ymlroRMAKhIkDMM1gPGoAWoAloQxiMRCvRTLQTDQ2DTXG1wToAWajZoq4d5f7rx8ikqwdKmB5ZOaENP0N2Pv36Mlm4dK1srzxgQw5nwR8sCyOQCwIM0UuME+vEPLGPBuTClpryRBvRSLQSzaxpm9qW2fKmEbAOQNO4NXovx3FkaJ+eMu2mcTKif7Ek9HejEwloBx7nSe4/Im+s2CBPvLxEXlu+Xrbs3idnz50PKEdL1ggYgWwQIIaJZWKa2CbGiXViPhv5NyQPtBBNRBvRSMdxGrKbbeMDAesA+ACxMUkUNm8mE4b3lwduHCu9undqzK5Z2ZbTgLv2HpK3V2+SJxcu8S4VcDMQb/bKigGWiREwAhkRIFaJWU7tE8PEMjFNbGeUcAA7o4FoIZqINjYtC9urqQSsA9BUchnu175NK7llwghvNMGuHdpmmFowu7t6mMANQjwO9KtXl8rzi1YLQ34eP3UmmAwtVSNgBJpEgJgkNolRYpWYJXaJ4SYlGPBOaB6j+KGBaGHA2VnytRCwDkAtYLK1uLhrR7nnutFy68QR0q1Tu2xl26R8Dhw57r2IaP7ry+WZN1d4ryk+fOxkk9KynYyAEciMALHHdXxikZjkhTwHNEYzSzXYvdE4tA7NQ/v8yM3SaDoB6wA0nZ2ve5Z06yR3Tx7lPTHAUJe+Jh5AYkeOn/KeIHj2rZWC+HDEsXPPQbtvIADWlqQRgADX84kxYo2YI/a4k59YZH2YZzSNO/vROLQuzLbmk23WAQhZbXP3K0Nd3jHpaunZpUPIrKvZHE4/cs3x9fc+kCdeXuwNPLRs/Xap2H9YcvGGsJqttKVGIFoEiB1iiFhiYB5iixgj1oi5KJQGDUPL0DS0zX+bLcVMCFgHIBN6Ae77YeBMHilRCxwGElm3rUJeWbpOfqkdgt++s1pWbNwhjCMexhuRAqxGS9oINJgAsUGMECvEDLFDDBFLxFSDEwrBhmjWXapdNP5oWQhMMhNqIGAdgBqghGlR907tvcsC90wZLf2Lu4Xq8cGGcOImpP2Hj8uazbu9txX+8qXF3ufqzbuE5axvSDq2jRGIGwF8nxggFnjL3sXYIFZYzvoolZnH+dAotIrT/WhX0PZb+pkRsA5AZvyytnfXjm3lhjFD5KFbJsjowb2lVYvCrOXtZ0YXj3JWbtwpHOX8QjsEHOWs2rRTdu87JGfOnvMzO0vLCISGAL6Nj+Pr+Dy+TwwQCxz5ExuhMbYRhqBFaBLahEZ1Va1qxO62aQ4JWAcgh/CbkvWFYOvjdQQItm4dw/3kQH1lZHQyrnOu2rRLXl22Xp58ZYnwGNNryz+QNVt2S/LAEbuxsD6Itj50BLhhD9/Fh/FlfBrfxsfxdXwe3w+d4Y0wCO1Bg2j4Rw/uk4ODkkYYa5vWSMA6ADViCf/Ci6fb7p4ySu69brQMLOkuBYl4VCcDmezae1BWbNghC5es9W4s5K5nRjHjWWeOlrhBKvy1ZBbmAwF8EZ/EN/FRfJUb9vBdfBhfxqfjwKIgkfC0Bs1BezjljxbFoWz5WIZ4tBj5WHOXlblLh7Zy3ejB3lmBsUP6SptWLS5bG4+v3PXMOOY868z10l+89K6U/+49eWvVRlm/PSn7Dh2Ts1V2+SAetR3eUuBj+Bo+h+/hg/giPolv4qP4anhL0DTL0BS0haN9tAbNaVpK/u1lKWVOwDoAmTMMTQotC5vLyEG95KGpE4S7bwf26i7NCgpCY5/fhhw7eVq2VuyXpeu2yQvvrpEnFi7RebG88M4aWbRmszdqIddc2S5qN1T5zcrSazgBfAWfwXc4qsdbg9/NAAAQAElEQVSX8KknFi5W/1ri+Ro+h++xXcNTjtaWaAcagpagKWgLGhOtUpi1dRGwDkBddCK8jkdvrhs1WKbfdo1cP3qI9yhhPrxj42zVedl3+Jhs3rXXG7WQa64cpf3sxXdkwRsrhOeoOS27pWKfHDhywsYpiLCPZ2o6p+7xAXwBn8A38BF8BZ/Bdziqx5fwKXwr0zzDvj8awSN8aAbagYagJeGz2yzyg4B1APygGOI0mhUkZEBJN+GxnIemTpRxQ/tKh7atQ2xxMKalUq4cPXFKGEmNG7PeXrVJnl+0Sjh9+9QrS71HE999f4us25YUTuPyGNbJ02eFo8FgLLJUgyZA3VGH1CV1St1Sx5yup86pe3wAX8An8A18BF8J2rawpY8moA1oBFqBZqAdYbPT7PGXgHUA/OUZ6tRatyyUqwf2ktIbx3o3Dg7rVyR2Sk/k9Nkqb5CijTv3yLL127zXIvN41q9fWyY/fWGR0Fg8//Yq7+zBknVbvUsLW5P7Ze+ho8L13qg+vhVqZ63HOJjDnjqgLjhVT91wFE9dUWfUHXVIXXJzHnVLHXPDHnVeTxaxX03sowHc0IcmoA1oRBQKbjb6Q8A6AP5wjFwq3MRzzYgB8vCtE737BYZrZ6BNy/jdPJhpxbjuhQ7CgaMnvLMHH2yv9C4tvLVyo7z47vveexB+9sI73rXh595a6T3KyFEmg7tw6pijShqcQ7r/iVNnpOrceT2rkKlV8dsfzrCBEaxgBjsYwhKmnJKHMfd6wJy77akD6oJT9dQN+1BXNPCkGT9SmZWIGCfWua5P7KMBaEFmqdreUSVgHYCo1pxPdjuOI1zjm6idAe7w5WhgpJ4l6NC2lU855Ecy3B3OcK3cOMZRJoO7LFqz2TtrwCnn5/QMwtOvL/eGRv7Jb9+WX770rjytZxho0FjPkeui1Zu9MxA0eB/sqPRucNy977B3TwOnpjmdTcPGtWiuX3MUzGnuXBEmb2zAFmzCNmzEVq6ZYzs3ylEWysQROGWkrJSZssMAFh6TlxcLjGDFeraDISxhunvfIYExrHNV5ijmSywT08Q2MU6sE/OO40SxOCJiZvtFwDoAfpGMSTocDYwd2lcvE4yTspvGefcM2Mhe/ldu1flqOXH6rNegfXi0u3uvdw8CDd6StVu9RxxfXbbOe6qBm9M4nc2pbe5G5/o1R8E/+e0iofHk+89ffNcbM4EBZxh4hiNkbmZ79s0VQqP6/KLV3h3sNK4Ll671zla8umy98J1lPEnBNmzLPuxLGqRFmjzbTh7kRZ7kzXdswSZsw0Zs5a75V9V2HpWjLJSJa/CbtYwcpVNmGnMYwMJ/wvmdIjHLNX1iuPTGcUJME9v5TcVKfyUB6wBcScR+f0igfZtW3j0DjO39iVsmyqSrBnhPExQkzG0+hBSCL5zq5kickeUYgY4hZxl4hmvkPKZ2+Pgp4bT6gSPHhWfYaXyT+494Qy9zVM13lrGObdiWfdiXNEiLNEmbPMiLPENQdDMhTaAgkfBikxglVolZrukTw+lNYvNhBfGPgCm5fyxjnVLrloUytG+R9zTBJ++Y5H1eNaBEOrdvE+tyW+GMQFgJEHvEIHftX4xJYpRYDavNZle4CFgHIFz1EQlrChIXjjbGD+sn910/xhtr4IYxQ2RQr+5i4hOJKjQjI0iA2CLGiDWe0Sf2iEGe2y9I5IuUR7DiQmyyeU2IKycqpvE4EWOCTxk1WDj9yDVH7i7u1b2zNG8W35EIo1I/Zmc0CRA7xBCxREwRW8QYsUbMRbNUZnWYCFgHIEy1ERNbuOuY54tvmTBcPnn7JOF65MTh/aVvzy52hiAmdWzF8J8AR/jECLFCzBA7xBCxREz5n2P0UjSL/SVgHQB/eVpqVxBwHEe6dmwrw/sXy03jhnlnCB6aOkFu0EsGw/oWSecObcVx7HGkK7DZz5gTcBzH831igFggJjjCJ0aIFWLGcSwuYu4GOS9eIucWmAF5R4A3i3Ea85qrBsh9142WT90xyRuMiLeNlXTrJIXNm+UdEytwvAng0/g2Ps4gPPg8vk8MEAvERLwJ+FE6S8NvAtYBSBN105/2kX0CzQoKhIFJeNvYrRNHeJcNeH75xrFDvccQEc5WLQqzb5jlaASaQABfxWd5DA8fxpc5nY9v4+P4Oj7fhKRtFx8ImNZfgmgdgDSLU2fOpr/ZRxgI8Pxyv6Ku3kBECCfDlk6/9RrhOwOcsI5t7CxpGGorP23A9/BBfBGfxDfxUXyV7yxjHdvkJyF/S+1Xaqb1l0haByDN4sQp6wCkUYT2o2WL5nLlkdWn7rhW7p48SiZdPVCG9Okp3Tu1lxaFzUNbBjMsmgTwKXwLH8PX8Dl8j6N7jvI52sc38dFoljB/rDatv1TX1gFIszhx6kz6m31EiQCnUrt1aidDtfG/VjsBd00eKY/cdo3Ok7yOAY9NIc69e3QR7qROJOzGqijVbzZtxTfwEXwFn8F37tbO5SO3TVJ/ukbuUt/Cx/A1fA7fy6Z9+Z2Xf6U3rb/E0joAaRYnTlsHII0iFh8tCpsJIs3AKZyKnTp+mPd+g8/cOVmm3TxeeLxqwvB+Mrh3D+nRub33eCKndGNReCtErQSo49YtC706p+7xAXwBn8A3eN4eX8Fn8B18CF+qNUFbETkCpvWXqsw6AGkWx+0SQJpEvD8cx5F2rVsKA6yM6F8ik0cOkjuvHek9nviZu6bIg1MnyF36+/oxQ7z7DxhalW0ZdtUagvD7BnVEXVFn1B0NOXVJnVK31DGP21Hn1D0+wLb4hOPY2aGw1rCfdpnWX6JpHYA0CzstlAaRxx8JbQDatmoh3fWMwIDibt4TCLxchSNEhl3lVPCn9QwC130Zf51TxGMG9/HuPejTs4u3X4e2rYRGKI8xBlJ0mMKWuoE11+JhTx1QF9QJdUMdUVfUGXXHqXzqkv2oW+o4EAMt0cgQMK2/VFXWAUizOH7qjPCms/RP+zACNRJoVpCQ9m1aeW9e4xTxqMG9hevCN48b5p054BQyjdBn757ivSPhgRvHemMc3DR2qPc2xdHaYeDIlLvDeRysU7s2QsPUorC5FCTiH44FiYR2kJp7ZabsMIAFTGBDow0rnpWHHWPewxKmpTeO8xjDGuajlD11wFj41Al1U2Ol2cKIE/DPfDQerfcvxWinFH/FaWD9VKdSsj15oIFb22ZGoG4CjuMI47V3bNtaaOT6FnWVC41cb68jwJ3jNHL33zDGu+zwyG3XyGfumiy/px2HR26fJIwM94B2Hu6eMsp78yKN3nWjB3v7clp75MBewhCxXMemERxQ0l0YUIZ8OELmtDZ3pdM4kj9HwFzP7tqhrXCKvFO71t5NkRxV851lrGMbtmUf9iUN0iJN0iYP8iJP8sYGbMEmGm9sxFaOyrGdMlAWykTZKCNl5XQ8ZYcBLNh3tDboMCIf8ocdDB3HqRu2rTUCDSSAxqP1Ddw89ptZB+CyKt60e+9lv+yrEcg+AU5Rt2jeTBgZjgawW8d23tkGGuCB2sjTQHJae+zQvsJLYriOzWnw67VzwJCyHD3TAHMKnGfRaYhpZLkGfvfkUXLPdaO9Nzjef8NY76bIUj2q5junzVnHNmzLPuxLGqRFmqRNHuRFnuSNDdiCTdiGjdhK5wHbKQNloUyULftELceoE/DTftP4j9K0DsBlPPYfPi5HT5y6bIl9NQJGwAgYgTgQQNvR+DiUxa8yWAfgCpKbdtlZgCuQ2E8jYASMQI4I+JetafvHWVoH4AomWyr2Syplo0VfgcV+GgEjYAQiSwBNR9sjW4CADLcOwBVgz1adk137Dl2x1H4aASNgBIxAtgn4lR+ajrb7lV5c0rEOQA01uWbzLnFdOwtQAxpbZASMgBGIFAG0HE2PlNFZMtY6ADWAPnTspKzblqxhjS0yAkbACBiB7BDwJxe0HE33J7V4pWIdgFrqc+WmnWIDRtQCxxYbASNgBCJAAA1HyyNgak5MtA5ALdirq1PyzprNtay1xUbACBgBIxAkAT/SRsPRcj/SimMa1gGoo1b3HDwqm21woDoI2SojYASMQDgJoN1oeDitC4dV1gGopx6Wrd8uZ86eq2crW20EjIARMAL+EcgsJTQb7c4slfjvbR2Aeuq46tx5Wbx2Sz1b2WojYASMgBEICwE0G+0Oiz1htcM6AA2omR17DsrqzbsasKVtYgSMgBEwApkSyGR/tBrNziSNfNnXOgANrOmVG3eKDSXZQFi2mREwAkYgBwTQaLQ6B1lHMkvrADSi2t59f4vs2mujBDYCmW1qBIyAEWgkgaZtjjaj0U3bOz/3sg5AI+qdEaXeWLlB7I1SjYBmmxoBI2AEAiaAJqPNaHTAWcUqeesANLI6eab01WXr5OiJ043c0zY3AkbACBiB+gg0dj1ajCajzY3dN9+3tw5AEzzg7LnzsnDpWjl1pqoJe9suRsAIGAEj4AcBNBgtRpP9SC/f0rAOQBNr/OTps/LykrVy8szZJqZguxkBI2AEjMBHCTT8F9rrabBqccP3si0vJ2AdgMtpNPL70ROn5Pm3V8vBoycauadtbgSMgBEwAk0lgOaivWhwU9Ow/USsA5ChF5w+WyUvvrtGdu45mGFKtrsRMAJGIL8JNKT0aC2ai/Y2ZHvbpnYC1gGonU2D15yvTsnvVnwga7dWNHgf29AIGAEjYAQaRwCNRWvR3MbtaVvXRMA6ADVRacIy1xVZ/sF24TlUexSlCQBtFyNgBPKcQO3FR1PRVjQWra19S1vTGALWAWgMrQZsu3HnHlm4dJ1Una9uwNa2iREwAkbACNRFAC1FU9HWurazdY0nYB2AxjOrd4/KA0fkt4tWy/FTZ+rd1jYwAkbACBgBkZoYoKFoKZpa03pblhkB6wBkxq/Wvbk79dk3V4r1WmtFZCuMgBEwArUSQDvRULS01o1sRUYErAOQEb66dz5fXe3dE/CKXhJgwIq6t7a1RsAIGIF8JXCp3Gglmsk1fzT00hr75jcB6wCkiSYSTvqb/x8V+w/LM2+ukG3J/f4nbikaASNgBGJCAI1EK9HMoIoUpNYHZXNQ6VoHIE325nHDpbBZQfqX/x9V587Lmys3yu/e+0DOVp33PwNL0QgYASMQUQJoItqIRqKVQRUDjUfrg0o/aulaByBdY907tZM7rh0pLQubp5cE87Fjz0FZ8OZ7snvfoWAysFSNgBEwAhEigBaiiWhjkGaj7Wg8Wh9kPlFK2zoAl9VW5/Zt5E7tBLRuWXjZUv+/njl7Tl5dtl4Wrd4s5+xxQf8BW4pGwAiEngDahwa+umy9oIlBGoymo+1ofJD5RC1t6wBcUWMd2raSuyaPknatW16xxv+fm3fvlfmvL/eeFGCgC/9zsBSNgBEwAuEigNZxhz/ahwYGbR1ajqaj7UHnFbX0rQNQQ421bdVCOwEjpWO71jWs9XfRmapz3pMCPO4S5I0v/lptqRkBI2AEGk8AjUPruMMf7SOFIGc0Nhb67gAAEABJREFU/K7JIwVNDzKfqKZtHYBaaq5Vi0LvckC3ju1q2cLfxUdOnBIefVm4dK0cOX7K38QtNSNgBIxADgmgaWjbK0vXCVqXDVPQbk77o+XZyC+KeVgHoI5aa9G8mdxx7dUyuHePOrbyd1Vy/xF59q2V3lmBbPSQ/bXeUjMCRsAIXCKAhnG0j6ahbZfWXPwWzCeajXaj4cHkEI9UrQNQTz0WJBIyeeQgby5IZAfX5dfI1mzZLdWpVD1W2mojYASMQHgIoFloF9f5ud6PpmXDuoJE9vU6G+UKKo/stGhBWZ/FdOlRci2pTasWWcuVu2RXbNgh5b97T7Ym90u2gihrBbSMjIARiBUBNAqtQrPQLjSsrgL6uQ5tRqPRaj/TjXNa1gFoRO126dBW7rtutBR17diIvTLf9OTps/LWyo1eR2DDzj1SXW1nBDKnaikYASPgFwE0CW2i4Uer0Cy/0m5IOmgy2oxGN2R72+YCAesAXODQ4P8tCpvLbRNHyNUDezV4H7825M1Yi9/fIr9+bZms3rxLzp6zEQX9YmvpGAEj0HgCaBBahCahTWhUw1PxZ0u0GE1Gm/1JMX9SsQ5AE+racRwZN7SvTB0/PPCRA2syjxtrVm7cKb9+dZksXb9Nst3brskmW2YEjED+EEBz0B40CC1Ck7Jdekb2Q4PRYscJ7l0u2S5XNvOzDkAGtHv36CwP3DhW+vbskkEqTd/1fHW1rN+WlKdfXy5vrdokh+3xwabDtD2NgBGolwAag9agOWgPGlTvTrVskMliNBftRYMzSSff97UOQIYeQC/0pnHD5MaxQyVXp6C8G28q9smzb67wxhLYe+hohqWy3Y2AETAClwigKTzDj8ZsVa1Bcy6tzd43NBatRXPR3uzlHM+crAPgU732K+oqpXo2oE+OzgZcLAYjbb347vvym7dXeUMMZ/Mu3Is22KcRMALRJ4B28AgfWoKmoC3+larxKaGtaCxa2/i9bY+aCFgHoCYqTVxGj/RmPRtww5ghejagWRNT8We3g0dPeIMJPfXKEnl79SbZd/iYPwlbKkbACMSaAFqBZqAdDOKDluSywC0Kmwmairaisbm0JW55WwcggBrtX9xNSm8YJ7175ObegMuLdL46JVt275MX3lnjPUa4dmtF4G/eujx/+24EjED4CfA2PrSBx/jQCjQD7QjK8oami4aipWhqQ/ex7RpOwDoADWfVqC1btmguU8cPk1snjpCwvIXq2MnTsvyD7fLUq0vl9fc+kN37DtvgQo2qVdvYCMSHANfx0QC0AE1AG9CIMJQQzUQ70VC0NAw2xdEG6wAEXKsl3TrJAzeMlWuuGpDzywIXi0rg79xzUF5dtk54fnfFxh2Si+d3L9pjn0bACGSPALFOzBP7aABagCZkz4Lac+J0P1qJZqKdtW9pa/wgYB0APyjWk4bjODKsb5FMu2m8DO9fLAn9Xc8uWVt96kyVrNm8Wxiz+6XF78uGHZXCsqwZYBkZASMQOAFimtgmxol1Yp5lgWfcwAzQRLQRjUQrHcee628guow2sw5ARvgat3Nh82YycXh/b+yAXt07N27nLGy95+BRWbx2q/xKLxE8v2iVvL9lt4TllGAWim9ZGIFYESB2iWFimZgmtonxXBfyyvzRQp7pRxvRyCvX2+/gCFgHIDi2tabcvk0ruWXCcLn9mqukY7vWtW6XyxUHjpyQ99IvIlrwxnvCiz1yfTdwLnlY3kYgCgSIUWKVmOWGPmKYWA6j7WgfGogWoolhtDHuNlkHIIc1zAss7r9+jPeICze95NCUOrM+euK08GpPngdm6M8l67YKRxJhuW5Yp/G20gjEmAAxSCwSk8QmMUqsErPhLLZ4N0XfMGaIoH1ooNhfzghYByBn6C9k7DiO8IjLAzeM80YT7BTSMwIXrBU5eeasfLC9UriW+GR6jIFdew9JGB4ZumijfRqBOBMg1og5ntUnBolFYpLYDHO50TZG8UPr0DzHsev8ua4v6wDkugbS+RMLjHB1/w1jhQEvOrdvk14T3o+zVee9MQZeW75efvnyu/LCu2tk1aZd3qBDKdcNr+FmmRGIEAFiicF5iC1ijFgj5nhWnxgMe1HQMjQNbUPj0Lqw25wv9lkHIIQ1zZCX9+mlganjh0uXDm1DaOHHTUqlXNl36Jh2AHZ6gw798qXF3nsJGFzk0NETYv2BjzOzJUagJgLECjFD7DD+PrHE4DyrNu30YoxYq2m/sC1Du9AwtAxNC5t9Zo+IdQBC7AW9e3SWe68b7Q0m1K1TuxBb+nHTeEsYY4czuMhzb6+SJxcu9gYf4lGkMF+f/HhJbIkRCJ4AMUFsMCgPsULMEDvEELEUvAX+5YBWMYgP2oWGXUrZvoWNgHUAwlYjNdjDgBh3Tx4l90wZLQNKukki4dSwVbgXnT13XhhwhEeRuEOZx5LeWrXRu4Rw8vTZcBtv1hkBnwng85zCJwaIBWKC2CBGiBWfsws8OTQJbUKj0Co0K/BMLYOMCVgHIGOE2Uuga8e2cv3oIfKJqRNlzJA+0rplYfYy9zknBiHZWrHfe1ERI5JxMxOjkq3atMsbopixyX3O0pIzAjkhgC8z5C6+jY/j6/g8N/ERA8RCTgzzIVM0CC1Ck9CmrqpRtSVry8NHwDoA4auTei1ibOxRg3rLg1MneE8OdO/Uvt59wr7BJZHc6Q1R7Inkq8u8ywY81lR54IhE8cgo7NzNPn8J4KP4Kj7L6XwezcOXafhX6TV8OgL4ur+5Zj81NIc7+tEgtAhNyr4VlmOmBKwDkCnBHO6fcBzhrtq7Jo8UbrQZ1Ku7FCTiU6U81sQpUQY2eXnJWnni5cXekMVvrNgg3CDF88/nzlfnsAYs63wmgO/hg/giPskQu/govorP4rv4cFwYFSQSgsagNWgO2oMGNax8tlUYCcSntQgj3SzaxKM2U0YNlk/cMkEmDO8nndq1yWLu2cuKF5lsrzzgvdWQ559/8dK7wvXTN1dulNWbd8mOPQflyPFTUp1KZc8oyynWBPAlfArfwsfwNXwO38MHuVkPn8Q34wgCLUFT0BY0Bq2JYznzsUzWAYhZrbcobC4j+pfI/TeMEUbaGtG/WOJ+eo47qLcl98vKjTvld+99IM+8uUJ+/uI73tkCHqNatn6bbNq113uE6kzVuZjVuBXHLwL4Bo+y4iv4DL7DUT2+hE/hW/gYvobP+ZVvGNNBM9AOjvbRkhGqKWhLU221/cJJwDoA4awXX6zq1L6Nng3oLw/fMtF7lJBTdgWJ/KhynqXmiIzHqNZtS8o7azZ7AxU9uXCJ/FIvJfz2ndWyaPUm71ICo6rx4hSGVfUFvCUSWgLUMXVNnXPqHh/AF/AJfIOBdvAVfAbfwYfwpdAWyEfDChIJ75Iij/ChGROG9xc72vcRcAiTyo/WIITgs2mS4zjCYznctPPwbdfI5JGDhJt4smlDmPKqOnde9h8+Lpt37/MuJTCqGi9O+dkL7wifnNZ9a9Um7wVIPJtNY8HALBwhhqkcZsvHCVBH1BV1Rt1xLZ66pE6p24t1TJ1z6h4fwBfwiY+nlh9L0AI0AW1AI9AKx/HzUeP84BjFUloHIIq1loHNhc0KZHDvHsJNPNNuHi9jBvcRzhRkkGRsdmXIVY4OubFra8U+7wVIPJtNY8HALBwh/vSFRfL068u90Q7fWLnB60Cs35707j04cOS48EgXR5mxgRKSgsAUtjDmWjzMacCpA0bJo06oG+qIuqLOqDvuxqcuqVPqljoOSZFyagYxT+yjAWgBmoA25NQoyzzrBKwDkHXk4cmwXeuWMmpwb+9eAYSAU34cDVjnv/Y6YhjWE6fOCGOzb08e8C4hLF23zbv34PlFq4VBXX6qZxL45M1s3BH+uxUbvEsQNFg0SBt37hH2Te4/IjRoNEwcuZJ27TnHYw1lpKyUmbLDABYwgQ2MOAUPM9jBEJYXmcKYa/Ew5xQ++1IX1Alpx4OS/6UgpoltYpxY5/4gYh8N8D+3j6Zov8JLwDoA4a2brFqGEIzoX+ydGXj4lmvk2qsHepcNEgk7FdjYirh4tHrw6AnhmfAdlQe8mxBpsDgl/e77W4Qj14VL1woNGqemOXL9qZ5d4IYzGrxn3ljhnWV4ddl6eWvVRlmybqt3SYJnydds3u11PNZvSwqnublpjVHltib3C3nt2nvQG0yJvDny5RT3AbXl0LGTcvTEKaHxPXH6rHe2gqNqvrOMdWzDtuzDvqTBs+ukSdrkQV7kSd7YQLmwCdsoH7ZiM7ZzdE5ZKBNlo4yUlTI/rx0mGMACJuxLWqRNXuQNQ2yEaWPrId+3J3Y5nU8sE9Mc6RPjxHq+s7HyXyBgHYALHOz/ZQS4A3hIn57ejYOP3DZJbhgzRPoWdZVmBQWXbWVfgyDAq15p8I5oQ82R7e59h2RrxX7vFcwcIa/atEtWbNzhXXpYun6bcJqbI2ZGlXtr5UbhyPm15R94gym9vGSt99pmbnJ7/u1V8txbK2WBdixofJ9+bZl3toKGme8sYx3bsC37vLT4fSGNV5etE9IkbfIgL/Ikb2zgqB2bsA0beTUtNmM7ZaAslImyBcHM0rxEgBglVolZYpcb+ohlYvrSVtn8ZnmFmYB1AMJcOyGwrXmzAulf3E1uGjtUHrn9Gq9TMLxfsXRo2yoE1pkJRsAIEIvEJI09MUqsErPErtExAnURsA5AXXRs3UcIFCQS3mWBiSP6S+mN4+QTt0wUBgbpV9xV7Bnhj6CyH0YgMALEGjFH7BGDxCIxyen+gkS4JD0wCJawLwTMW3zBmJ+J8CIQhga9cYyeHbjtGrnvutEybmhf6dmlQyTfWJiftWilDjuBRMLxYorYIsYe0Vgj5oi91i0Lw26+2RdiAtYBCHHlRM20zh3aytUDe8kdk66WT95+7YXLBf2LvcFEHMduJhT7MwINIOA4jhczwzV2OK1PLBFTxBYx1oAkQrKJmRF2AtYBCHsNRdS+ZgXpywXD+3svKvrUHZPk9klXyZghfbzLCIXNm0W0ZGa2EfCXALHA6XtigxghVhiCd6LGDsuJJX9ztNSMwAUC1gG4wMH+B0ygWUGBFHXpKLw69MJRzSR54Max3qiEA3t1l/Zt7KbCgKvAkg8JAXwdn2f0PWLgk7dP8s6WERvECLESElMzMsN2Dj8B6wCEv45ia2HHtq29UQmvGzVYym4aJ1zbvGXCcO8yAvcRcGQU28JbwfKCAD6ML3P6Ht/Gx/F1fJ7R94iBvABhhQwlgVh0ABxxMn7Fmz2jnHv/5O7mXt07ezcS3uHdRzBJHpo6QaaOHy6jB/eR3j26SJtWLXJvqFlgBGoggG/io/gqPovvcnSPL3MDH76Nj9ewawwXhbdIfmi9H21OGAjFogPgptxjmcI8cfpMpknY/gEQuCCqnbUD0Fs7AsO8DsFFUeUaKadSO7VrIwnHCSB3S9IIfJwAvobP4Xv4IA08PkmDP3X8MM9Xe/fobJ3Vj6MLxSY+gjYAABAASURBVBI/tN6PNicMMGLRAXAScjxTmIwlnmkatn92CFw8rcpd0pxKvf+GMfLpOyd7NxteP3qId58Brz7mhSfNCmLh4tkBa7l8hAC+gw/hS1yfx7e4OQ9fw+fwPXyQU/z45Ed2zvMfYS6+H1rvR5sTBkaxUEdHCjI/A3DqrNhfdAnwrHTn9m1kQEk34W7qG8cO9V5yhFg/dMsEuX3SVTLpqgEyvF+RcGd129YtxU4aRLe+/bIcH8AX8Al8Ax/BV/AZfIeX5uBL+BS+hY/ha37lb+lkn8AJH7Te8aHNkRD8xaIDUO1mfgbguF0CCIE7BmNCm5YtvCcQhvYtkokjBnh3XD9483jvrAF3Yd88bpiMH9ZPWM+pW0S+hT2mGExl5CBV6pI6pW6pY+qaOqfuaeTxBZ5MwTdYz534+EwOTI1JluEuhh9a70ebEwZKsegAuM3P78gU5olTdg9Apgyjtn9BIiHchd2nZxe5akCJd4Zg6vjh3qWER26fpB2Ea70hj2+75irvccVRg3sL13055du+TSspSMQifCTKfwWJhPcIKXVC3VBHPF5HnZXeOM6rQ+qSU/fULUf41DV1Tt0XJKwOo1z/TbHdD633o81piu1+7xML79/7nQf3KZgDOjd5OuHDaaEmZ247hpJAs4IC76VHxV07eo8rjhncR7jue8ekq4VHuT5z12SZfts1Xofhdu0k8AY2xmQfOaiX8AY2Gpnundp7DRRHoaEsZAiNghUdLNjBEJYwhS2MYU2DDnvqgLqgTqgb6ojH66gzXpJDHYawiLE2KeyF80HrD6TbnLAXtV77EvVuEZENHMdZm4mpJ8+clSMnTmWShO2bhwRaFjb3hm0t0k4Cb2DjrWxjh/SVa68eKJxmvmvySK+zwFHoZ++eItNvvUYeuGGsN1wy15Yn6XackuYmM24oo/HiRS88Mtajcwfp0qGt14FgzHfe7qZ+HlrK2IaN2EoDju2UgbJQJspGGSkrZabsMKDxhglsYAQrGnXYwRCWMIUtjGHNKX3YhxaGGRZKAmg8Wp+JcernGbU1meTt976x6QC4rptxpWzetddvvpaeEfiQgAqHtGzRXDq2ay2csubu8qF9enqXH7jJjEfKOH1945ihwqAxd157tdx73WivA8Fb3z51x7VCA/mZOyd7Zx6m3TxeL1GMFe5I5yUx90wZLXdPHiV3XjvS62BwGpxr25z6piGlseUI+rrRg2XKqEFeJ4XGle8sYx3bsC37sC9p0ECTJmmTB3mRZ+mNYwUbvCNxtQnbsBFbacCx/U4tA2WhTJSNMlJWTsNTdhjAAiawgdGHwOxLBAmE22Q/NN6PtiYslOLUAViVKdQtFfsllXIzTcb2NwKBEigoSAhHv+1at9RLFK2FZ9J5SUzXjm2lW6d20qNze6+DwWlw7m7n5jdOpdPYcgQ9sKS7DOrVw7tMwel1vrOMdWzDtuzDvqRBA02apE0e5EWeHdq2FmzAFmwKtNCWuBHIkADajsZnmIxoByDjtiZTG/zaP+FXQrlOpzCRelZtSOnc5Ols1TnZtfdgk/e3HY2AETAC+UwgzGVH29H4DG1MpduaDJMJx+6x6QDsmPNQpSJ9S+eMpk12GSAjfrazETACRiCMBHzS9rfSbU0Yi9hom2LTAfBK7siT3mcG/yoPHpGTp21QoAwQ2q5GwAjkJYHwFhpNR9szttCHNiZjG3xMIFYdgHNVzX+tbDK6DOC6Iht37dFkbDICRsAIGIE4EEDT0fYMy5JKtzEZJhOe3WPVAdj/g3v3aPv9RqZ4121LynEbGChTjLa/ETACeUQgrEVFy9H0TO2jbaGNyTSdMO0fqw4AYBOOm/FlgOrqlLyzZjPJ2WwEjIARMAIRJoCWo+mZFsGPtiVTG/zeP3YdgHNu4mmFVK1zRtOeg0dl824bFyAjiLazETACeUIgnMVEw9FyH6yrTrctPiQVniRi1wHYN7eUVjvjywBU0bL12+XM2XN8tdkIGAEjYAQiRADtRsN9MvmNdNviU3LhSCZ2HQCwuuL8gs9M56pz52XJuq2ZJmP7GwEjYARiTSCMhUO70XA/bPOrTfHDFj/TiGUHoFOns/8l4m7yA9T2ygOye98hP5KyNIyAETACRiALBNBstNufrNxNF9oUf1ILUyqx7ACsmz29SiTxVb9Av/v+Fjl1RpP0K0FLxwgYASMQGwLhKghajWb7Z1XiqxfaFP9SDEtKsewAADc5t/QZcWUh3zOdcahXlq6VqvPVmSZl+xsBI2AEjEBABNBotBrN9iULbUO8tsSXxMKXSGw7AKCultRj+ulLq334+Cl5bdl6qU5lNM6QmmOTETACRiA+BMJSErQZjUarfbKpOt2G+JRc+JKJdQdg77wH3xfX+bFf2PceOipvrdwoPowo5ZdJlo4RMAJGIO8JoMloMxrtGwxtO7w2xLcEw5dQrDsAHu7mif+tn0d09mXaseegPRngC0lLxAgYgegTCEcJuOMfbfbRmiNyoe3wMcnwJRX7DkDyn+4/4Dru//ET/YYdlbJ68y4/k7S0jIARMAJGoAkE0GI0uQm71roLbQZtR60bxGRF7DsA1FPxqX3f188NOvs2rdy4Uzbbq4N942kJGQEjED0CubYYDUaLfbZjQ7rN8DnZ8CWXFx2A5T/+4jlx5CuK39c7+N55f7Os21ahydpkBIyAETAC2SSA9qLBPueZoq3w2gyfEw5jcnnRAQB8ck7ZQnHlL/nu18yNJww1yTOnLj/8StjSMQJGwAiEnkBuDERr0Vy013fZ1TYiOUfbitwULeu55k0HALLJeWXfEp+GCZbL/jbu3COvLFsn52ycgMuo2FcjYASMgL8E0Fi0Fs31N2VSc35xoY3ge37MedUBoEoTibN/qJ/LdfZ1Su4/Ii+8s1pOnjnra7qWmBEwAkYgjASybRPaisaitQHkvTzdNgSQdHiTzLsOwO7vTj/tpKrLtEp4a6B++DcxAMXzb6+Wg0dP+JeopWQEjIARyHMCaCraisYGgGIvbQJtQwBphzrJvOsAUBsVjz+0W1x5UL/7PsD/6bNV8uK7a2TX3oOavE1GwAgYgTgSyF6Z0FI0FW0NINcq2gKvTQgg8bAnmZcdACpFr/UsEsf5E777PZ+vTsnr730gqzbtFG5Y8Tt9S88IGAEjEHcCaCcaipaiqYGUV9sAry0IJPHwJ5q3HQCqJjmn9N/1c57Ovk/cnbpq0y55ftFqOXrilO/pW4JGwAgYgVwRCDpfNBPtREPR0oDym5duAwJKPvzJ5nUHgOpJJqv+p54C8uWtgaR35cy1q+feWiVrt1bo2YAr19pvI2AEjIARuEiAxh6tRDPRzovLff/kLX9ov+8JRyvBvO8AyFPTq+VMQalW24s6BzLxlqrlH2z37g04fupMIHlYokbACBiB7BAIJhe0kWv9aCWaGUwuXqovepqP9ns/8/efdQC07pM/vv9U0em99+vXJ3QObNp3+Jg8++ZK2bBzT2B5WMJGwAgYgagRQBPRRjQyYNufQOvR/IDziUTy1gFIVxNDPyY7rfy0K/Kj9KJAPs5XV8vi97fIy0vWyqkzvj+EEIjNlqgRMAJG4CIBPz/RQLQQTUQb/Uz7yrTQdjQerb9yXb7+tg7A5TU/e3aqcm7ZHzuu+/eXLw7ie+WBI/LMG+8JI1pxt2sQeViaRsAIGIEwEkDz0D40EC0M2kY0HW0X1fig84pS+tYBqKG2KuZN+4Yj7ld1latzYFPV+WphTGtOfVXsPxxYPpawETACRsAfApmngtaheWgfGph5inWm4KLlaHqdW+XpSusA1FLxFXOn/ZO4wrDB1bVs4tviIydOyStL18nCpWuF774lbAkZASNgBEJCAG1D415RreN7FsyqRsM9Lc9CZlHMwjoAddRacl7Zf7iuPKybZGWAf8a4vtgzPlN1TrO1yQgYASMQHgJNsQQt42gfbUPjmpJGE/Y5i3aj4U3YN292sQ5APVVdOa9svuMk7tHNjukc+HTx2tj815fLmi27JeDHYQIvj2VgBIxAfhJAu9AwtIzr/WhblkgcQ7PR7izlF9lsrAPQgKqrmPPAqwUpd5xuukznrEy89nLFhh1S/rv3ZFtyf1bytEyMgBEwArUTaPgaNAvtQsPQsobvmfGWy9BqNDvjlPIgAesANLCSdz0+bUvR6b1TRJx/EtErS/ovG9PJ02flzZUb5fm3V8muvYeykaXlYQSMgBFoEgE0Cq1Cs9CuJiXStJ1cUW1Go9Fqsb8GEbAOQIMwXdiI50eTc0u/6roOlwT2XVianf8Hjp6Q15avlwVvvCebd++TlKv+np2sLRcjYASMgNSGAC1Ck9AmNAqtqm3bgJbvc1WT0WY0OqA8YpmsdQCaUK2V80pfOHeu+Wg9D7CwCbtntMvRE6dl0epN8vRry2TdtqQEPXhGRsbazkbACMSWANqDBqFFaBLalPXCurIQLUaTs553DDK0DkATK3H/D+7dk5xXeod2Av5Ckzivc1YnRtBatn6b/OrVZbJi4w7hTtusGmCZGQEjkEcELhUVrUFz0B40CC26tDZr386jvWgwWpy1XGOWkXUAMqpQx03OK/uWk0rcoMls1znrU9W587Jm8275tXYEGE6TF2pk3QjL0AgYgdgTQFvQGLQGzUF7clTo7Wgu2ivi2LVQafqfdQCazu7DPSsef+Ddli2rxojjPPnhwix/4ZEbXqjBnbdvrNwggb5KM8tls+yMgBHIHQG0BE1BW9AYtCZn1qjGorVobs5siFHG1gHwqTK3fnv60eSc0kdc1/2cJrlX55xMmr9sTx6Q37y9Sp57a6V8sKNScthTzwkDy9QIGIHMCKAZaAcagpagKWhLZqlmtPdezf9zaCxam1FKtvOHBKwD8CEKf75Uzpv2kzOpwiF6Xuq7mmLW7w3QPD+cDh07KUvWbpWnXlnqPUqYjZdufJi5fTECRiByBNCIN1du9DQD7UBDRHJajPNoKZqKtubUkhhmbh2AACr10OP3HKucW/Y/UykZLeK+GkAWjUqSU3YMzMFrN7ljd/WmXZLlZ3QbZa9tbASMQPYIoAVoAtqARqAVaEb2LKgtJ/dVNBQtRVNr28qWN52AdQCazq7ePfc8XrYuOXfarY7jvU9gZ707ZGGDE6fPyspNO+Xp15fJwiVrZXvlAUmltI+dhbwtCyNgBMJBgJgn9tEAtABNQBtqsi4Hy3aimWgnGpqD/PMmS+sAZKGqK+aU/UpOFwx3xf1bzS4rLxbSfOqcXG3zkweOyBsrNshTry6Rpeu2yWG9ZFDnTrbSCBiBSBMgxol1Yp7YRwPQgpAU6qynkaqVnmaGxKg4m2EdgCzVbvLH95+qnDvtf513zo8QV57NUrYNyuZs1XlZvz0pz761Unhxx/IPtsv+I8cbtK9tZASMQLgJEMvENLFNjBPrxHzDrM7SVqqJaCMaiVZmKde8z8Y6AFl2gX1zPrE1Oa/sgZTj3iPibspy9vXzuEMcAAAOr0lEQVRmx7O+a7dWyG8XrZZfvbpUFq/dKpUHj4gbosOEegthGxiBPCZArBKzxC4xTCwT08R2+LC4m9BCNBFtDJ998bbIOgA5qt89c6b9tmOnc1dr9jN1rtA5dBMjfG3YUSkvL14rTy5cIm+v3uS9kCgcNwiFDpcZZARyRoCY5EU8xCixSswSu8RwJkYFuC+aNxMNRAsDzMeSroOAdQDqgBP0qnWzp1cl55bN69ipaoAj8seaX05GE9R8653OnjsvW3bv815I9MTLS+R3730g3C2c5Vd91munbWAE8oUAsUcMEovEJC/iIUaJ1RAz2I7WoXloHxoYYltjb5p1AEJQxQRBxdyyHyU7dRjsOO7viysbQ2BWrSbwEpAdew56Yws8sXCxvLJ0nTfg0NETp2rdx1YYASOQOQFijAF6iDlij2f2iUViMvPUr0zBx9+qaWgbGofWoXk+pm5JNZGAdQCaCC6Q3WZPPV8xZ9p/JjuvHC6u8yntKb8fSD4+JsrjRBX7D3sDDi14Y4U8+coSr2OwaddeCec1Rx8Lb0kZgYAJEEPEEg09sUWMMUAPMUfsBZx9xsl7GqZahqahbaIal3GiloBvBKwD4BtKHxOaPTuVnFf6y4q5paNcVx4Ucd/zMfVAkzpz9px3aeCdNZu9Jwp+/doy7/XFWyv2S4ivRwbKxBI3Ag0lQIwQK7xel9jhzn1iiVP9xFZD0/Fju8zScN9Du9AwtExU0zJLz/YOgoB1AIKg6luajls5r2x+cu608QlX7tVk39E5UhOjjG3evU/eWrXRe6qAF4rwRjFOW4buUaRIkTVj40CAGCAWiAlig7v2iRVihtiJYBnfQavQLLRL7G19EuY/6wCEuXYus233vLLnk3PLpjiue5u4slBXuTpHbjp28rTwRjHvxqWFi72xB5au3ya8bITTnZErkBlsBBpBAB/H1/F5nsnnOj6xQEwQG41IKuBNG5W8iyahTWgUWtWovW3jnBGwDkDO0Dct44p5015Jziu7PZFwhojj/IOmsk/nyE6MTLZ+W1LeWLnBu2Twy5cXy8tL1sp7G3bIzj0H7Z0Fka1ZM5wjeHwYX8an8e35ry/3fB2fx/cjTmkfGoQWoUloU8TLk3fmWwcgolW++7ulm5NzSr9edHpvL0ec6fTAtSiRPCugdn848RpS3kj2/pbd8vp7HwjXQXmumbueGa98975Dcvps1Yfb2xcjEAYC+CS+iY/iq/gsvosP48v4NL4dBlsbYkMd21w42lfNQXvQILSoju1tVYgJWAcgxJXTENOW//iL5yrmlj5FD7wg5Q7Wfb6t816dYzOdqTon3PXMG8teXbZennplqXc/Ac89r9m8W5L7jwjbxKbAVpBQE8DX8Dl8Dx/kuj0+iW/io/gq24S6EI03Dk35NhqD1qA5aE/jk7E9wkTAOgBhqo0Mbdn1+LQteg3uz7Vn3pu3aYm4L2uSkT8roGX42MTd0ox8tmLjDlm4dK1wxMX11BfeWSOL1mwWhj7liIzrqgyN+rEEbIERqIMAPoPv4EP4Ej6Fb+Fj+Bo+h+/hg/hiHUlFcNWHJqt2uC+jJWgK2oLGfLjWvkSegHUAIl+FHy8APfOKOWW/Ss6ddsd55/wgx3X/XreiB68f8Z24o3rf4WOyedde4eUnHJFxZ/XPXnxHeH6a07ErNuyQLRX75MCRE8JIavGlYSVrCAF8AF/AJ/ANfARfwWfwHXwIX8Kn8C18rCHpRnybvWgG2oGGoCVoSsTLZObXQMA6ADVAidOifXM+sbVi3rRv0IN3xf2Elq1c59M6583EgCmMoMYNWWu27Ja3V22S5xetkl+89K53OeGlxe8Lj2HxljRO3x4+flJCPpxq3tSdHwWlLqlT6pY6pq6pc07b4wP4Aj6Bb+Aj+Ao+40feEUoDTSh3xf0EWoFmoB0Rst9MbQIB6wA0AVoUd6EHXzl32q+Tc8umVTdv1U17+I9oOZ7S+aTOeTtx89aeg0e9RxOXrtvmDWv87Jsr5YmXF8vP9cwBR4E0Fm9pp4EjRF6wwmnfg0dPSLQGZolnFVMH1AV1Qt1QR9QVdUbdUYfUJXX6ytJ1Qh3zyB11Tt3Hk0qDS0XsP4UWoAloAxqBVjQ4Bdsw0gSsAxDp6mua8Xu/c+dJ7eE/qQE/PZGo6saIXeLKzzS1YzrblCZwvjolXAemsdiqlw04QuQVq9z49Zu3VwlDs/70hUXy9GvLhOvDPMrI6WKOMhnchVPGHE1yjZi00snaRz0EYAUz2MEQljCFLYxhDXPYUwfUBXVC3VBH1BV1Rt2RVj3Z5dvqY8Q6MU/sowFoAZpwAYT9zycC1gHIp9quoay7vzv9NCN2JeeV/V7rVGF3R1L362b/qfNhnW2qhwCnik+cPis0VAzwwg1jHGUyuAsNFdeTuUucI1GvwVq4RDgyfX7Rau9sAw0ap6Q5cmVfxn3fUXlAeGyMI1sGjuG6Mzel1WNKaFZjKzZjO2WgLJSJslFGykqZKTtH5bCACTfXwQhWMIMdDGEJU/aFMaxhDvvQFDrchhDL/0lsE+PEOjFP7IfbbLMuaALWAQiacITS3/z4PWcr5j74nB4V/L5eB+zhityl5v+riLNf7C9jAjRYPB7GkemBI8e9Rxtp0DglzZErR7iM+/67FRu8wZA4smXgGO48/8lvFwk3pv3ypXflCe1EcP2a58xZT0PJqHJs/9t3VsuL777v7U/jypEx6b25cqO8vXqTkD5HyjSo5MfMd5axjm3Yln3YlzQYxIY0SZs8yIs8yRsbsAWbsA0bsRWbWc/27E96pE9+lJUyU3auy8MCJrCBUcagLQEl4MXsvxLDxDIxTWwT47qy1slW5BcB6wDkV303uLRcB6ycW/aiCscXksmzRY6TuFV3/oHO23S2KQcEqvWSRNX5ajlbdc4bDImR5jjK5lQ5o8pxtL3/8HHZe+iodwaBxpVr4xx98zKZLbv3CUfhXCvnlDpH1Mx8Zxnr2IZt2Yd9SYMjeNIkbfIgL/Ikb2zgWjo2YRs25gCNZXmBALH5A2KVmCV2iWFi+cJq+28EPkrAOgAf5WG/aiLw1PTqijkPvKqC8mWdB5x3zg/U07xfFMd5Ujc/oLNNRsAIZJ/AAWKQWCQmiU2dv0ysisZs482xPfKNgHUA8q3GfSgvjwdVzpv24+Sc0keSc0u7S8oZJ+J8TURe1PmUzjYZASPgPwFiS2NMY01jjtgjBolFYtL/7CzFuBOwDkDcazjw8jlu8vHSFSpG/6hHH3d17FTVKeG4U11XvqlZv6tztc42GQEj0HgC1XoNfzGxREwRW8SYF2sac+Lzq3bF/vKOgHUA8q7Kgy3wutnTq3bPmfZ65byyv1KxmtyyZVUXcRNlIu73NOcPdLbJCBiB2glojGisaMwQO3oN/1piiZgitmrfzdYYgcYTSDR+F9vDCDScwNZvTz+anPfAguTcaY8m55YNL6h2ShhbXFP4Rz26eV0/j+tskxHIRwLH0zHwj8QEsUGMJIkVjRliJ3tQLKd8JGAdgHys9RyWedf3SpMV3nsKyr6mRzdTk51Wdkyl5CrHcX9fzeIpg2X6WaWzTUYgTgTwaXz7B/g6Po/vezEwt+xrxASxEacCW1nCT8A6AOGvo3hbOHt2as/jZesq5kz7z+Tcsi/rPLF1qrB9IuFOEke+4or8twJYr7N+1f82GYHwE8BX1+u//8aH8WV8Gt/W+cv4Oj4vs2enwlIUsyM/CVgHID/rPdSlZrCS3d+dtiQ5p+z7eoT0P1Q0R5xJFXZ0XOcWNfzPHZFf6+cunW0yAmEgsCvtk3+Oj+Kr+Kznu+rD+DI+HQZDzQYjcDkB6wBcTsO+h5bAocfvOVYxr/Q1FdZvV8wt+4R+9il03E5OKjGZU6pq+Ld1fkZc2aif53W2yQj4SeB82ree0US/jc/he/ggvpj2yW/jo/iqbhOhyUzNVwLWAcjXmo9BubfPmXak4vEH3q24cPngz1WIS5PzyoYWnd7b2nVSI1zHecgV+UvHkZ9ocbn+ajccKgib6iSAjyzDZ/Adz4fUl/ApfMvzsbllf47P4Xv4YJ2p2UojEGIC1gEIceWYaU0jwNCnlXMeXF85p/RpPQ37dxVzyj6nwj1R5/aJREEvx3VvE3Ee1SO674vIKzondbYpvwhQ569c8AHnUXwC38BHdJ6Iz+A7ng+pL+FTccVj5cpfAtYByN+6z8uS7/7u/RUV86a9kpxb+j09ovuKiv1tOpcUHu3QqiDlDmLAFVfcz+qR3zcU0A+0gXhWP1fofEBnm6JBgLpaka67H1CX1Cl1Sx1T19S5zrdd8IHS7+ET+EY0imdWGgF/CFgHwB+OlkrECWz/z6lndj0+bcvuOdNer5w77aeVc0r/XhuIL2sD8YB+jtO5Gw1HIuEM5kYv13U/xylicZ1/EXGeE5GVInJQZ5uCJQBjZa3MlT11QF1QJ9QNdURd6TwuXXdfpi6pU+qWOt6udR2siVFK3WzNZwLWAcjn2reyN4oADcfu75Zu5kavynnTflI5t+zvkvNKv6RnE+7XBmeszl0TiarWCbdgiLhyXcKVe/Xo8/dELzc44vwvbaj+WVz330VkvjZcr+vnSnFkh34e01kX6f/8mCjrMblQ9pX6AxbzRdnACFaizGCXUIYXWBYMgS2MdVbWpffDnjqgLqgT6ma7Ne5if0agoQSsA9BQUradEWgAgd3fnX5697z7N+nR56Ld88qer5xT+jPtIHyvYm7p32pD9afJedP+UBuwB7XhmqqfY5NzyvrpZ4dkp5XNtIHrwlvdtBGcoI3j7Y4jD7vifEHE+Zoj8ne6/J91+eOuyI9oLB1xfioX3siojaf8Rhx5Sde9LiKLHHGXiuOs0u/rdN6s806dK3XmCPqYfp7RmefQmfnOMtaxDduyzzrS8NLSNL20NQ9tkH+j+87XdU96NtBwY5Mjj2Ojo7aK2uyq7Y6WQRy5XZdPoGyUkbJ6Zb5Q9rFpFg/CBkawglmlsoNhcl6Zsrx/E2zF/nwlYInlN4H/HwAA//+5HwLJAAAABklEQVQDAJ2S3nKmb8YIAAAAAElFTkSuQmCC;fillColor=light-dark(#FFFFFF,#000000);" parent="1" vertex="1">
          <mxGeometry x="1030" y="140" width="90" height="90" as="geometry" />
        </mxCell>
        <mxCell id="F0qZPeJRunGCuvMz1pJv-44" value="" style="endArrow=block;startArrow=block;endFill=1;startFill=1;html=1;rounded=0;entryX=0;entryY=0.375;entryDx=0;entryDy=0;entryPerimeter=0;exitX=0.998;exitY=0.364;exitDx=0;exitDy=0;exitPerimeter=0;" parent="1" source="z01fHJIEKEKhJBYuUMuz-4" target="z01fHJIEKEKhJBYuUMuz-5" edge="1">
          <mxGeometry width="160" relative="1" as="geometry">
            <mxPoint x="910" y="320" as="sourcePoint" />
            <mxPoint x="1060" y="330" as="targetPoint" />
          </mxGeometry>
        </mxCell>
        <mxCell id="F0qZPeJRunGCuvMz1pJv-49" value="ConexiÃ³n persistente&lt;div&gt;&amp;nbsp;TCP/IP&amp;nbsp;&lt;/div&gt;" style="edgeLabel;html=1;align=center;verticalAlign=middle;resizable=0;points=[];" parent="F0qZPeJRunGCuvMz1pJv-44" vertex="1" connectable="0">
          <mxGeometry x="0.0255" y="2" relative="1" as="geometry">
            <mxPoint as="offset" />
          </mxGeometry>
        </mxCell>
        <mxCell id="z01fHJIEKEKhJBYuUMuz-1" value="" style="shape=image;verticalLabelPosition=bottom;labelBackgroundColor=default;verticalAlign=top;aspect=fixed;imageAspect=0;image=data:image/png,iVBORw0KGgoAAAANSUhEUgAAAgAAAAIACAYAAAD0eNT6AAAQAElEQVR4Aey9CZxddX33//2dO0sWdkIAEUkmk0kyLLKFVSBgVagggoQWXAraFpdSV57231odHlvUgtaiXcSXDz76qEDcqk/Vtj41aCuyKYQkkD0BWUIQxBBIMnPP7//9njt3MjO5987d71ned873nu23fL/v3++c3+ecc++dQHhBAAIQgAAEIJA5AgiAzDU5AUMAAhCAAAREEAD0AghAAAIQgEAGCSAAMtjohAwBCEAAAtkmYNEjAIwCBgEIQAACEMgYAQRAxhqccCEAAQhAIOsECvEjAAoceIcABCAAAQhkigACIFPNTbAQgAAEIJB1AsX4EQBFEswhAAEIQAACGSKAAMhQYxMqBCAAAQhkncCe+BEAe1iwBAEIQAACEMgMAQRAZpqaQCEAAQhAIOsExsePABhPg2UIQAACEIBARgggADLS0IQJAQhAAAJZJzAxfgTARB6sQQACEIAABDJBAAGQiWYmSAhAAAIQyDqByfEjACYTYR0CEIAABCCQAQIIgAw0MiFCAAIQgEDWCewdPwJgbyZsgQAEIAABCKSeAAIg9U1MgBCAAAQgkHUCpeJHAJSiwjYIQAACEIBAygkgAFLewIQHAQhAAAJZJ1A6fgRAaS5shQAEIAABCKSaAAIg1c1LcBCAAAQgkHUC5eJHAJQjw3YIQAACEIBAigkgAFLcuIQGAQhAAAJZJ1A+fgRAeTbsgQAEIAABCKSWAAIgtU1LYBCAAAQgkHUCleJHAFSiwz4IQAACEIBASgkgAFLasIQFAQhAAAJZJ1A5fgRAZT7shQAEIAABCKSSAAIglc1KUBCAAAQgkHUCU8WPAJiKEPshAAEIQAACKSSAAEhhoxISBCAAAQhkncDU8SMApmZECghAAAIQgEDqCCAAUtekBAQBCEAAAlknUE38CIBqKJEGAhCAAAQgkDICCICUNSjhQAACEIBA1glUFz8CoDpOpIIABCAAAQikigACIFXNSTAQgAAEIJB1AtXGjwColhTpIAABCEAAAikigABIUWMSCgQgAAEIZJ1A9fEjAKpnRUoIQAACEIBAagggAFLTlAQCAQhAAAJZJ1BL/AiAWmiRFgIQgAAEIJASAq0WAE45melssGdwcPCw/kWLTpw7f9HZ/QsXvrZv/sI3YTCgD9AH6AP0gSz2gXkDiy6ZNzB4wdyBwbP6Fhxzcn//cS8Xefl0HTDrnGrL1mwBYIO9mcw75pgj5wwsunzuwKIvzZm/6L658/22F4f9kyMjcr8XuXMk7/4tFPcNDAb0AfoAfYA+kMU+kPfyrbz33/fe/yQM8/eOuOHH5g7s+/TcgcF7dOz88twFg0sXLDhu7uiwbuO12ehq47MGC/M62A+NlrE0p1f4B/YtWPQ/5s4f/Hl+l3809MHX8z54ayjBiXkJ9tO5YAEMBAYcB/QB+gB9oFQf0DFzn7x3i3X+1nzo7tgVDm/sG1h4b3//wHsXLlx4oMiSrnJDf63bg1ozTEzvvMhQ2Ke3LuYOPPz1F4eDp8Mw+IQXtziUwIsETvaYZrXqJptuZoIABCAAAQhAYAIBk0i2IfTu5LwLbtidlyf6BrZ+Zd7ChSfZ9vGmA64bv17Nso3G1aSL0gzJkKZfmhOxK38RvTWxYO78o787Erq71cGLQzF3A69zTScuysQbBCAAAQhAAAINEfDipuljkp7Qy9J83t3TN7DoW/39g4OjheacSNdSER2fR7dUMbOBuopkhSQqAEKRO8KTTjq5a978o/9qVxj+Qm/tX6R77XK/R4VBsTyv25ggAAEIQAACEGguARvkAxUCb8i7cNXc+Qv/fsmSJd16Nz6/TMTprQFdlqpexQG7bGI/erVfTLBgwSsHnv3tzgf1+cT1umvG6PZQ52Y28JvpKhMEIAABCEAAAi0ikPPivNqfPvr4U/f2DSzTsV/2vV8kr7cFeoZEb8lPUXFFAeB1hN+T/+XT++Yfe/XufHi398EC3b5bzSYd+O2zALY4dtvf65qZzpggAAEIQAACEGgBAadlhqG4Y7yEP+xbMHiJra9WEbBKovHY9ku5V0UB4FRdmIkM9vT17/+n3of/S1wwc7SwXhGXV9OB3tstCRFxoRReVq4rLPIOAQhAAAIQgECLCAQi+gDeywE+DP+xb2DRp7Ueexyg47Po+KxrZSYbqMvsKm5+2Yy+/uDvtJQbvOhjBx+pitF8NvB7XTYhYNttferbDsWSmUMAAhCAAAQg0BQCgQ7Pvd779/XNX/jPIofOHFdqyQtyHbzHJSmxqFf+f+ud/0Md/C2tFmIDvohzYo8AQole0cCv+6IV3iAAAQhAAAIQaBOB0Wq8zu0zAfZM/o/75h/4KV2vONmgXjZBX//gUOiC9+h9hJ5Q7+6ruVGTvIS2jUG/LD12QAACEIAABNpGYGw89nqJHoq7pm/Boj+TOXOmSZknAWUFwJwFgxeHTq4LK/tuFZpVTsVeCEAAAhCAAARaQGBCkRPG4zCUT/R17/O7E1KMWykpAOYuWnSUC/1XQnHFr/mNy8IiBCAAAQhAAAJxJxBKoBog/OK8waPnidgP+U30eG8B0N/f60fk63nJMfhPZMUaBCAAAQhAIFYEKjjjdZ/TC/n98sP+C7J0ldNHAWq6dXTaSwDMdT1/HEpwmiYc/WrfaEpmEIAABCAAAQgkhYAN9maBd8GZcx9cfbXI9bY+5v8EATA4OHiYDvx/rXstkZfoe/7CCwIQgAAEIACB2BGoyiHvvXSL9x/pO+l7+47msLE/Z29dOujbgC87h/378xLspwm8OPtuf+Erf7re1Km3t1eK1jNtumAwoA/QB+gD9IGs9YFpM2ZK7/QZ0t07TXLdPeJyXaJX66K37SXUp/dNGnhtfA/z4o7wL7x0nQqBaF3LzpsAGBE5uevYY4890Iu8UzdKNPj75ny334KxRt13/wPk0MNfFtkBBx0sRTvwwIMFgwF9gD5AH6APZK0P7Lvv/rL//gfKwQcfIrNmzY7Gwn322U96eqZJ0NWtQsCGaCn7qmGHFeR8KO/vn3/iLJHCBwJto5Zx//D2XflrdeCfEUjoA593OjcTnVcwKbtPC42UzKGHHS4HHHiQTFel48UJBgP6AH2APkAfoA84cUFO9E1HXb0Pr+Njl94FmLnPvnLQwbPk0EMPl66unlERYEN17TYphxMJevNu9zUi9oFAXZOlS3PS39/rvH+LPijoEvPDtuvC1FNYMkkogcyYMUMOO+ywaL+tl7MoAW8QgAAEIAABCIwR8CoIDj5ktthdglDH1LEdYwv1LER39t8m/o5o8A5k2zbXF/S8yovM1+Jsoy5qzbpSzxRKIPsdcKDYLX+vxYS6Xk855IEABCAAAQhkmYDXMXSG3hHYZ7/9R+8ENEzDex3r+xcdd5qVFMiPf5wPvbzJVtTcqOms9inUwd4G/+nTp0e3+msvgRwQgAAEIAABCBQJeBUBM2fOlMkioLi/xrmN8T4fhm+2fIE4+78B8lpbUfNqlkBntU2hDv428Jt5qauI2iokNQQgAAEIQCADBGxMNRFg42uoY22DIeug715tZQT9g4OD+tj/5bbSqNnVv2fwbxQj+SEAAQhAAAITCNjYamNsYWOD794PDAy88oggn5cTtaheNa9W16V7KIXn/p7BXxEyQQACEIAABJpPwMbY5jwKcH7Y5c8N1MWFasUP/+lifaO43ZqwzBgEIAABCEAAAq0hYI8CGi85+jbAwsB73z9amF39m42uVjcz5cDgXx0rUkEAAhCAAAQaJWBjbqh33hsqx8tAoCP+PC3E7gTorNbJsgXRzxj6+m4cCC8IQAACEIAABKok4J1Mnz6zysTlk3kv8/QOgLM7AHYhXz7lFHtMjUyRhN0QgAAEIAABCMSEgHN+QC/hvf3zn5i4hBsQgAAEIAABCJQj4PW2fXdvT7ndVW/XOwD7qACIHiRokdzDr5ocCSEAAQhAAAIJJ2ACwCc8BtyHAAQgAAEIZIDA+BB1+PZq4zfVuNxY7horIzkEIAABCEAAAvEgUBQA9gigZo/sk4P2PKLmjGSAAAQgAAEIQKAmAuMT29gb1jVy7yklCCVwatF/Gqp1vqeY8kvBFCWXz8keCEAAAhCAAAQqEbAL8XqteAegUvkV9ll2swpJ2AUBCEAAAhCAQIMEmp+d0bv5TCkRAhCAAAQgEHsCCIDYNxEOQgACEIBA1gm0In4EQCuoUiYEIAABCEAg5gQQADFvINyDAAQgAIGsE2hN/AiA1nClVAhAAAIQgECsCSRCADjxUs56ugPp7cJgQB+gD9AH6APt6wM29uxtXdLTPWpd3eK8lDWp4dWqpB0XAKFM/KWAYqATBnwfyqdu/Fv5rzt/KD+bZD/50b/KT/8fBgP6AH2APkAfaF8fsLHnTh1/fjzBviefuOFjMrJ7l4wM7y574To2vnkpKxAqigf7FSBp/NVxATBVCE4Hf0tTkAmiQPdYTkTMnM4xmcAGHvCgD9AH6AOt6wM2eLqxH7oTvZQdZzqwB6Njl5R52QBfZtekza1btRhaVzolQwACEIAABCAQSwIIgFg2C05BAAIQgAAERFrJAAHQSrqUDQEIQAACEIgpAQRATBsGtyAAAQhAIOsEWhs/AqC1fCkdAhCAAAQgEEsCCRAACXAxlk2LUxCAAAQgkGQCrfa946Nr4et9oRTnxYC9fanNO9GpuIk5BCAAAQhAAAJNItBxAVApjsmDv6uUmH0QgAAEIACB1BBofSCxFgClwjeHi1ZqP9sgAAEIQAACEJiagI2lU6ciBQQgAAEIQAACbSPQjooQAO2gTB0QgAAEIACBmBGItQCw30o2C7xE/zBBeEEAAhCAAARST6A9AcZaAJRDYB8GLFq5NGyHAAQgAAEIQKA8gWQIABdqBKGYszbw6woTBCAAAQhAIJUE2hWUjantqot6IAABCEAAAhCICQEEQEwaAjcgAAEIQAACIu1jkFwB4BWSmc6YIAABCEAAAhCojUByBUBtcZIaAhCAAAQgEHsC7XQwmQKAK/929hHqggAEIACBFBJIlACw3wQQBv8UdkNCggAEIAABkfYySJQAaC8aaoMABCAAAQiklwACIL1tS2QQgAAEIJAgAu12FQHQbuLUBwEIQAACEIgBAQRADBoBFyAAAQhAIOsE2h8/AqD9zKkRAhCAAAQg0HECCICONwEOQAACEIBA1gl0In4EQCeoUycEIAABCECgwwQQAB1uAKqHAAQgAIGsE+hM/AiAznCnVghAAAIQgEBHCSAAOoqfyiEAAQhAIOsEOhU/AqBT5KkXAhCAAAQg0EECCIAOwqdqCEAAAhDIOoHOxY8A6Bx7aoYABCAAAQh0jAACoGPoqRgCEIAABLJOoJPxIwA6SZ+6IQABCEAAAh0igADoEHiqhQAEIACBrBPobPwIgM7yp3YIQAACEIBARwggADqCnUohAAEIQCDrBDodPwKg0y1A/RCAAAQgAIEOEEAAdAA6VUIAAhCAQNYJz4zvrQAAEABJREFUdD5+BEDn2wAPIAABCEAgoQSc+l00XYymUDeYRSsxfkMAxLhxcA0CEIAABOJJQMd4aWQAjUNUSfc/DgzxAQIQgAAEMkrABlGzJIafVL+TyBqfIQABCEAgpQRsMLW7AtWFF49U5nM8PMELCEAAAhCAQEoIeFUDU1mnQ0UAdLoFqB8CEIAABDJFIC7BIgDi0hL4AQEIQAACiSKgF/lStEQ5PuosAmAUBDMIQAACEIBAowRCLcBu/euszBSfzQiA+LQFnkAAAhCAQEoImAjwGktF09sHUbo65lq01Ju3mA8BYBQxCEAAAhCAQBsINKsKExaNloUAaJQg+SEAAQhAAAIJJIAASGCj4TIEIAABCCSRQLx8RgDEqz3wBgIQgAAEINAWAgiAtmCmEghAAAIQyDqBuMWPAIhbi+APBCAAAQhAoA0EEABtgEwVEIAABCCQdQLxix8BEL82wSMIQAACEIBAwwScF6lkCADhBQEIQAACEGgtgTiWjgCIY6vgEwQgAAEIQKBGApOv9qfKjgCYihD7IQABCEAAAg0RiGdmBEA82wWvIAABCEAAAi0lgABoKV4KhwAEIACBrBOIa/wIgLi2DH5BAAIQgAAEqiBQfPZfLqkN9OWsXB62QwACEIAABCDQEIH4ZjZREF/v8AwCEIAABCAAgboI2ABvVi5zpX3l8rAdAhCAAAQgAIEqCMQ5CQIgzq2DbxCAAAQgAIEWEUAAtAgsxUIAAhCAQNYJxDt+BEC82wfvIAABCEAAAjURsIHdbKpM1aSZqgz2QwACEIAABCAwiUDcVxEAcW8h/IMABCAAAQi0gAACoAVQKRICEIAABLJOIP7xIwDi30Z4CAEIQAACEGg6AQRA05FSIAQgAAEIZJ1AEuJHACShlfARAhCAAAQg0GQCCIAmA6U4CEAgfgQefPBB+cY3vhGZLcfPQzxKF4FkRIMASEY74SUEIFAHgWeffVYuvfRSWbp0qfzFX/xFZLY8MDAgH/rQh+Rf/uVfxNLUUTRZIJB4AgiAxDchAUAAAuUI3HDDDbJy5cqSu7/73e/Kh677Mzn1tDPkkksvk099+jNyz733i9fU1ZomZYLAXgSSsgEBkJSWwk8IQKBmAv/+7z/SPIEO6qUtdIGYrVi1Wv7x87fIFW95q/QvGJR3/PG75NYvf1XWbdwioZZQzqYSCpqVCQKxJYAAiG3T4BgEINAogRdeeEGCoPRpzgZ+L07Fwd62/M6fyF//zQ1y/gW/K+f/7hvkhk/cJD/977s1rYxZo76RP60EkhNX6SMjOf7jKQQgAIGyBA6eNUtG8nndX7jSt0G/aDb4644ppw0bNsitt94qb3/722VgwdHyR3/8bvnfX/6abNjw6JR5SQCBOBNAAMS5dfANAhBoiMAJJ5wguVxOQjeuGF+44h+3pabFO++8U/7mb/5GLrjgArWL5OMfv1F+9KPlNZVB4vQSSFJkCIAktRa+QgACNRE444wzJjwCsKt+Hf+1DDv1meliA1Px7sC73/1uGRgYHBMEK1c+0kCpZIVAewg0fgS0x09qgQAEIFAzgbPOOktGRkYK+Qojf2G5Re9FQXDppZdGguCaa94lX//67fLUU0+3qEaKjReBZHmDAEhWe+EtBCBQA4G+vjnyile8IspRGP/tlBdI8VP90Y4Wvv3gBz8Q+72BM888Uy6++BL5zGdulgceWNHCGikaAtUTsKOh+tSkhAAEIJAwAqeffnpLPDZBEYpTMVHGnEjvtBkyY+a+EuS65cEVK+Xjn/hbufiNl8opp54pf/bnH5bbb18mTz65VXilg0DSokAAJK3F8BcCEKiagI7Bcs4550TpwxH7NkC0KHbiM8vrKN6IVRQAXsQePhTNdXfLjP32k6CnR7Y995ws++a35C8//FE56+wlcu55r5WPDv21/L///MnY1ww1+5TLUQLhBYH6CNgxUF9OckEAAhCIOYEwDOWUxYtl3xkzxTmTA811ONTiyps9aihv3tk+LUCcPPbYr+SrX/2aXHPNO2X+/EF585uvkltuuVXWrNloCSqbKYXKKdjbFgLJqwQBkLw2w2MIQKBKAkEQyP777yuLFi0S55ovAKp0o+Zk99xzj9x4441y4YUXynnnvU6Ghv5G/vM/f7pXOXoDQyLTPegAhcBUEwEEQE24SAwBCCSRwFlnnSnTpveK93seAyQljscee0zvDnxV7w5cs9fdgZdeGtGYxkWCChgHo72LSawNAZDEVsNnCECgJgKvetWrZMeOHWJ3BJIoAsYHO/7uwLnnnivve9+H5Pvf/w95/vkXZdewF9MARRufj2UITCaAAJhMhHUIQCB1BPr7+6XvqDnSFeRSFdvWrVvle9/7XnR3wH7z4Morr9RHB5+RFSseLsRpSqCwxHtLCSSzcARAMtsNryEAgRoITNfb/6ecckp0B6CGbLFP2tXVFf3U8bRp02T79u1y3333yS233CL2Q0Snn362XHfd/yff+c53Zdu2X8c+FhxsPwEEQPuZUyMEINBmAvm8F/tZYOdc7ERA+W8RiNSyL1Ax4HI5Gc7nI3viiSfkG9/6pnzg/R+Ss151jlx04SXyyU98Su7++f2St+8mCq9mEUhqOQiApLYcfkMAAlUTCAIn9oNAeR0cnYvHtwFscLevAjbTXK5Lgq5uyXX3SK63R1y03iUjYSgPr1kjX/jiF+XNb32rLFg0KG/7g3fIP3/+C/LImnUS6qOCesx7L41Y1Q1IwpYQQAC0BCuFQgACcSLgdMyfNetAWbhwodhvA8TFNxMBrTKJfu6o/F2E//rZXXLTTZ+Ovmp4/vkXyEc+8lH5j//4UVzQJMiP5LqKAEhu2+E5BCBQAwETAfargMPDwzXkykbSjRs3ym233Sbvec97ZGBggVx11dVyyy1fkLVr12UDQEajRABktOEJGwJZJGACIItx1xrzz372M707cBN3B6oAl+QkCIAktx6+QwACNREYHByU2bNn15Qn64kn3x2wxwXcHUhHr0AApKMdiQICEKiCQE+Pk8WLF1eRkiTlCJgguOmmwt2BgYEB+chHPiJ2x6Bc+nRvT3Z0CIBktx/eQwACNRJ47WtfW2MOklciYJ8duOqqq+Tyyy+Xbdu2VUrKvpgRQADErEFwBwIQaB0Br0WffOJJ4nzhs/d2AqzXtKiUTOUIVBOe5S2ke+CBB+SGG24orGTkPelh7mm9pEeC/xCAAAQmEbAB36y42X4I+MgjZssxg4skF7hICJgYqMeC6Gd6JNGvUJxGUcacRljBxL5maF+tcEp11I58xRyRaJurbi68OkkAAdBJ+tQNAQh0hMDixXoXwH75poHanSqLVJ9A7f8Ml+FjP/4zHE78z4q/93u/Jx/4wPvK5Ejj5uTHlOr+m/zmIQIIQKAVBOxzACMj/B5urWztR5Ts1xTNTARYfhv4v//978vHPna9rWIJIoAASFBj4SoEINA4Afu/ACeccIIcdNBBjReWgRJsoDexZGb/fMjMPv3/V3/1V7J27SPRwN/f35cBEhNDTMMaAiANrUgMEIBA1QSccxIEgZx55pnCazIBGxIKZgN/8Uo/l8vJzJkzo0/633777fKd73xH3n712yZnZj1hBKylE+Yy7kIAAhCon4CO/9Hn1BAApRnawG97vHfiJJB58+bJ+9//frnzzjtlaOijcsLxx8r0ad3iJcuvdMSOAEhHOxIFBCBQJQETAF5HLwSAiHM5sUciu0fyklcmLheIjvvSO32aXHTxG+SrX/2q/Pu/fV/e8+5r5OCD9hfdLZpM7POTxlB4JZoAAiDRzYfzEIBAvQQOO2y29M05qt7sichng3llR0Pp7e2VHvsXwi6QIw5/mXzgfe+X//rJT+Uzn/6EnLz4pLHsNuibMfCLjEFJ+AICIOENiPsQgEB5Ak53lTK7kjU799xzxedHJAiSeSo0r8uZhq6TXdGXNt0p9sG+GdN65PUXvE5u/eIX5M4f/1Cufc8fykEHTNeb/yI9OYnmVkeXE5lsVgaWXAJBcl3HcwhAAAKNETj11FPFPuBmH3ZrrKTk5T744EN0sH+PfOc735abb/6UnH326ckLoiMep6dSBEB62pJIIACBGgmcdNJJst9++4nP0H1t++zDzTffLD//+Z3ywQ/+qRx11BE1UiN5WgggANLSksQBAQjUTOCAA/aR4447TuwHbtIsAg4++GC55ppr5F//9V/lS7d+Xi44/7yaWZGhQCBN7wiANLUmsUAAAjUTWLJkSWoFwNjV/l13yoc+eK0MzE/3hx5rbvyMZ0AAZLwDED4Esk7gjDPOkH322Uecc6lAwdV+K5sxXWUjANLVnkQDAQjUQsCLzJ8/Vw477LDEfhNgcrhf/vKXudqfDIX1kgQQACWxsBECEMgCAfvsX5j3cvqpp0hXEIjTDYEGbqazRE5ve9vbZO26LVP6rtpnyjQkmEggbWtJ7udpawvigQAE2kxAx3zJ5Zycdupi8fm85PQxgJ0UzXIJeCIQKq/Jtu3Xv5YLXv96+eWKR2TyvvHrmjWaLMxOWeQAbx0jYP28Y5VTMQQgAIE4ELj44otEnA6P48zpJXKST5CXXXaZPKgiQHg1iUD6ikly/05faxARBCDQMQKvfOUrO1Z3qyq++uqrEQGtgpuCchEAKWhEQoAABBoncPbZZzdeSMxK2L59uyACmtMoaSwFAZDGViUmCECgZgKvec1ras6ThAyIgCS0Umd8RAB0hju1QgACMSOwcOFAzDxqnjuIgEZZpjM/AiCd7UpUEIBAHQRe//rX15ErGVkQAclop3Z6iQBoJ23qggAEYk3AfhY41g426BwioD6Aac2FAEhryxIXBCBQM4Ho64A150pWhj0iYHX0OwFe3a/XNCtTggkgABLceLgOAQg0n0Aavw44mdIeEbBq8i7W9yKQ3g0IgPS2LZFBAAJ1EEjj1wFLYRgTAQ8+VGo32zJAAAGQgUYmRAhAoHoCaf06YCkCiIBSVCZuS/MaAiDNrUtsEIBAzQTS/HXAUjAQAaWoZGMbAiAb7UyUEIBADQTS/HXAUhgQAaWo2LZ0GwIg3e1LdBCAQB0E0v51wFJIEAGlqKR7GwIg3e1LdBCAQB0EFixYINF/BxT7gpyk/GXDQMG2b98hV1/9DnnwQb4dYI2edrNWT3uMxAcBCECgJgL2OYD+/n7J5XLSFbgKeUMJpBETzV+/VXBsyl3mtRen3k+057e/IH9w9dvllytW6T4pa1aB17dGTLMzdZAAAqCD8KkaAhCIL4GzzjpL8vm8OOfi62QTPPMa3mT77Qvb5SoVAQ+qCChXRVhuR2q2pz8QBED625gIIQCBOgicc845MjIy0lIBcOyxx9bhWXuyjH0moIIIaI8n1NIqAgiAVpGlXAhAINEEzjjjNDn00EPFe7vJ3ZpQPvnJT8pnP/vZ1hTehFKzLAKagC/2RSAAYt9EOAgBCHSKwMknnRA9BmhF/WeccYbM73+FnP+6c+bB52AAABAASURBVBEBrQBMmVMSQABMiYgEEIBAVgnYzwLv3rkr+qBesxlcccUVY0UiAsZQxGQhG24gALLRzkQJAQjUQeDUU0+V7u7uOnJOneX81716QiJEwAQcrLSBAAKgDZCpAgIQSCaBI488UhYNLpBmfxHgne985xgQp0tFu0AfB3zu5s+Ka93HDrS2+qesfCagfkLJyokASFZ74S0EINBGAkHg5JRTTlEB4HRQbt4X3y6//PIoCqfvdhIeb797/rnyD5/9+6g+58Oy88I39LWANk+IgDYDb2F11u9aWDxFQwACEEguAbvyt58F3r17d9OCsA//Hfnyw6Q4+Jcq+PzzX60i4OZSu8a22V2CTp3Ax0RAKn8xcAxx6hc61X9SD5YAIQCBdBA46aSTZObMmeKcDdmNxzT+w3+VSjv//N9JxrcDEAGVmjHW+xAAsW4enIMABDpNYPr06XL88cdLV1dXU34T4PxJH/6rFJ/dCUjE7wSkSARUao+07UMApK1FiQcCEGgqAbvwf83vnCcvvfRSdBegkR8GGv/hv2qdRARUS4p0tRJAANRKjPQQgECmCJgAOO2006S3u0e6gsZOmcUP/9UKEBFQK7F602crX2O9OVusiBYCEMgoAfvvgEcccUR0B6BeBMUP/9WbHxFQLznylSOAAChHhu0QgAAExhE49bTFEoZ5yektgWpPnE68FO3KK35fl2XMpIrX5HpMBNj/D9iTNYx+pdDSlbM9aWtf8ubt5H8VWFzX4kInMt6ef2G7/MHbr47+lbDuTtyUNYetz2QtZuKFAAQgUBUB+z9ARYt+D0DCsQE3p4NfoKZ6QEpZtE8FQ7cuHHHYofK7r/udsbx24jXT7FLJzElLN94uu/QiufGTnxBx3ia18r8VYL8jEEQ+h1r33rb3lr1TexdISVPPfQn77fYX5C/+8sOya8SLvaaKz9JgnSFg/aozNVMrBCAAgQQRuOSSNxa8daGImQ6sMsUrCAIdIkN5w0Wv17nsZVLn69JL3yA3fuKTVeVWnVAyXWgjc8k9EzdqtFGke88DsTJK2cNr18jXb7tNRkYs18Ty4ruWPc+C7IVMxBCAAATqI3DsscfWlNE5J9OmTZPLLruspnzVJDYR8Hd/93cVk467W7/XYF0xYxN23n777dLVxRDTBJQtK4LWaRlaCoYABNJG4KyzzqopJPsFQfuHQnPnzq0pX7WJL7zwdTLxMwGlc9pV+vg944XB+O3NXF6zZo3s3Nm8X1Bspm+lysriNgRAFludmCEAgboInH322TXnu/LKK2vOU0uGSy+9qCoRYGW2Y+C3eoq2devW4iLzGBJAAMSwUXAJAhCIJ4ETTji+Jsfmz58v9hsCYdjaZ+EmAqZ6HFCT401KbJ+BaFJRLS4mm8UjALLZ7kQNAQjUSeD888+vOqc9++/t7RXnqvzEXdUl751wqscBdvVfzFX4fH5xrXXz2bNnt65wSm6YAAKgYYQUAAEIZImA/XfAauO96KKLoqTOtV4AWEV2J6DcZwLs2wBmlq7V3gTey++8+tXS29tt1cXesuogAiCrLU/cEIBAXQTGvg44RW67U3D44YdOkaqx3XYCn2z2OwF//3efFimO9iIS6CV/0Wxz0XRXUyfnnHSPfvXx6re9VVxTS6ewZhOwvtPsMikPAhCAQKoJVPN1wGr/7W8rQF144fnR7wTYQD+5/KIQsPnkfY2u25X/7l275PeXXi6nn3ZKo8W1KX92q0EAZLftiRwCEKiTwFRfB7Sv/Z122uI6S29ONvudgHKPA5pTw8RSbPB3Esqrl5wjf/5n14lzXP9PJBS/NQRA/NoEjyAAgZgTmOrrgPbhvziEYJ8JaMe3AwqDv8jxxx4nN934Sdl3333jEH5VPmQ5EQIgy61P7BCAQF0Epvo64B/+4dV1lduKTBe+/nXSKhHgnJOciAT6rOHEVx4nt3z+n+Sggw7i6l+ZJGFCACShlfARAhCIHQH7kF8pp8ptL5W2XdtaJQJy4nTwd3LiK4+XL9zyzwkc/CXTLwRAppuf4CEAgXoJlPs6YCc//FcplmaLgECf9wdOdPA/Lhr8DzzwQHFON1Rygn2xIoAAiFVz4AwEIJAUAsWvA9qQV7S+uXPl9NMWi63HMQ4TAeM/GGiDeD1+Wj4nXk447tjotv8BBxxQTzEdz5N1BxAAWe8BxA8BCJQlYBe05cyufl9z3rn6DNyP2f/44Ad0WcbMlS25uh2Wv16zGuwEPzn/my65SP72k59QkeI1iRcbzMuZJpgwOeckp8/7LfbFJ54gd9z+dWHwl8S+rH8k1nkchwAEINBJAtddd91Y9eedd5685jWvHlvv9IIN/OaDDe42H2+XXvIG+eQnPz66qSAERK/oJ9ro7nGz8YO/PfMftyuBi7iMAKAPQAACEKiTQF/fHPnBD34gn/vc5+Sf/ukf6iyl9dnsRD/ZLr3kjXLTTTdVXbkJieKVvw3+++23X9V5SRhPAtYn4ukZXkEAAhBIAAETAXG68q8WmZ383/iG11clAmzwt2f+J59wfPTMPw3f86+WU5rTWR9Ic3zEBgEIQAACFQhcrCLgK1/5ipxwwgl7pRoeHpYuHSWmT+uVP3nXOxn89yKU7A3atMkOAO8hAAEIQKAxAqederLccfvXxITAW97ylkgMnHDC8fKmSy6W/3n9kPzo334oH3j/e1P0C3+N8UpLbgRAWlqSOCAAAQg0SMCEwEc/8peRGFimguDmT/+tXPl7l8nLWvxfDRt0m+x1EkAA1AmObBCAAASyQKD4bYI0xUosBQIIgAIH3iEAAQhkkoAN8KWsCKPclwRtezEN82QSQAAks93wGgIQgAAE6iJApiIBBECRBHMIQAACEIBAhgggADLU2IQKAQhAIOsEiH8PAQTAHhYsQQACEIAABDJDAAGQmaYmUAhAAAJZJ0D84wkgAMbTYBkCEIAABCCQEQIIgIw0NGFCAAIQmEzABoBKNjl90tfxfyIBa/uJW1iDAAQgAIGqCJT6/vz4bVUV0sJEBV8CKcyl6XPhlWgCQaK9x3kIQAACEIBAVQRINJkAAmAyEdYhAAEIQAACGSCAAMhAIxMiBCAAgawTIP69CSAA9mbCFghAAAIQgEDqCSAAUt/EBAgBCEAg6wSIvxQBBEApKmyDAAQgAAEIpJwAAiDlDUx4EIAABLJOgPhLE0AAlObCVghAAAIQgECqCSAAUt28BAcBCEAg6wSIvxwBBEA5MmyHAAQgAAEIpJgAAiDFjUtoEIAABLJOgPjLE0AAlGfDHghAAAIQgEBqCSAAUtu0BAYBCEAg6wSIvxIBBEAlOuyDAAQgAAEIpJQAAiClDUtYEIAABLJOgPgrE0AAVObDXghAAAIQgEAqCSAAUtmsBAUBCEAg6wSIfyoCCICpCLEfAhCAAAQgkEICCIAUNiohQQACEMg6AeKfmgACYGpGpIAABCAAAQikjgACIHVNSkAQgAAEsk6A+KshgACohhJpIAABCEAAAikjgABIWYMSDgQgAIGsEyD+6gggAKrjRCoIQAACEIBAqgggAFLVnAQDAQhAIOsEiL9aAgiAakmRDgIQgAAEIJAiAgiAFDUmoUAAAhDIOgHir54AAqB6VqSEAAQgAAEIpIYAAiA1TUkgEIAABLJOgPhrIYAAqIUWaSEAAQhAAAIpIYAASElDEgYEIACBrBMg/toIIABq40VqCEAAAhCAQCoIIABS0YwEAQEIQCDrBIi/VgIIgFqJkR4CEIAABCCQAgIIgBQ0IiFAAAIQyDoB4q+dAAKgdmbkgAAEIAABCCSeAAIg8U1IABCAAASyToD46yGAAKiHGnkgAAEIQAACCSeAAEh4A+I+BCAAgawTIP76CCAA6uNGLghAAAIQgECiCSAAEt18OA8BCEAg6wSIv14CCIB6yZEPAhCAAAQgkGACCIAENx6uQwACEMg6AeKvnwACoH525IQABCAAAQgklgACILFNh+MQgAAEsk6A+BshgABohB55IQABCEAAAgkl0KAACDVsM52Jt7fmmrMyi+WLeFcw0XnRLAWmXJQ8HOBAH6APZKkPdD7WQLyYiYSj52Cd1TB5HcrqtRqqKZO0QQFQLDXUIMzqDaR0PkO63377yT5qVnpeqzMb0XnRbB0TgQEM6AP0AfpA5/qA13EpVKtlciobnA+lMdu7xlA3VWNNEQDPPPOMFOxpnTfTnpG1ax9RWyvXf+xjcsGFl2IwoA/QB+gD9AG54MLOjwcXX/r78sY3XSGXXHZlNH/DxUvlIx/5iOzYsUN+85vfVLTndf/zz1maZzVd7WYXyDrONzQ1RQCMjIxIq6wY3dq1ayMhwBwO9AH6AH2APhCHPrBy5Up56KGHZMWKFdH84Ycflo0bN8r27dtl586dLbXi2NjIvCkCoBEHyAsBCEAAAhColQDpGyeAAGicISVAAAIQgAAEEkcAAZC4JsNhCEAAAlknQPzNIIAAaAZFyoAABCAAAQgkjAACIGENhrsQgAAEsk6A+JtDAAHQHI6UAgEIQAACEEgUAQRAopoLZyEAAQhknQDxN4sAAqBZJCkHAhCAAAQgkCACCIAENRauQgACEMg6AeJvHgEEQPNYUhIEIAABCEAgMQQQAIlpKhyFAAQgkHUCxN9MAgiAZtKkLAhAAAIQgEBCCCRAACTAxYQ0Nm5CAAIQSDKBNPnuNRjv9E1sjCtltq+1ZrU2VIPTKJprgTi/xwrOBTrDpGxHgQ1s6AP0AfpAfPqADllVTYF4V95crksqWVVVVEhkPabCbnZBAAIQgAAE4kAgGT7YVb1Z4962fnhuuIauri459dRTm2Cnaxlmk8uybdipp7aWwSmnnS4YDOgD9AH6QGN9IDpXn3K6nGrW4Ni4ePFiKWeNC4zC/ZKGy5k+fbpgMKAP0AfoA/SBVvUByp3YtxoeuLWAhu8AaBmtmeweitnk0m0bJvrgCKMf0AfoA/SBOPYBcTpyVWOarINTfAVAB6FQNQQgAAEIxIkAvrSCQHIEQFHltYJChsucjLW4zpwLK/oAfYA+UF8fSMqQkhwBkBSi+AkBCEAAAk0lQGGtIYAAaA3XxJVaVPqJcxyHayKwa9cuefrpp2XDhg2yevXqyGzZttVUEIkhAIHEE0AAJL4JCQAC1RGwgf6uu+6KBv3HHnssEgI28NuyiYHly5dHwqC60kgFgXYRoJ5WEUAAtIpswssNnQgWfwbVdDO76r/33nvFBvqp0lsaS2t5pkrLfghAINkEEADJbj+8h8CUBFasWCE7duyYMl0xgaW1PMV15hDoJAHqbh0BBEDr2FIyBDpOwG7t24BeqyOWx/LWmo/0EIBAcgggAJLTVngKgZoI2G18e8ZfU6ZxiS2vlTFuE4sQaDMBqmslAQRAK+kmsOzic/8Euo7Lkwj86le/mrSl9tVmlFF7reSAAATaQWC8APDtqJA6IACB9hB49tlnp6jIDvnKNnUZU1TBbgg0QICsrSUQiHM9WBdKAAAQAElEQVQjo1XYmWB0sfrZyEgxe/V5SAkBCLSegD3HF7HDuoy5UGQK27HjBalYRqXy2Qc7+kDFPlDmyBxHLdDl0haGevxq6ZUm7zTvHvO6XjSRIBgOnPcvFgpw5kthscb3nTt31piD5BCAQNsIlBvkIwfsJFLOogS8QaBDBKi2MoFAd5vprJ7Jux2W+zeaVwd/n9M5EwQgAAEIQAACMSbw0ksv1eOd00xF8+LkN4EXKd7j0331Tb/5zW/qy0guCECgZQRmz57dcNnNKKNhJyggkwQIujyBhsdc5/I29gfOuV9oNU6t7umZZ56pOy8ZIQCB1hDYf//9Gy541qxZDZdBARCAQHMJ2Fd0GyjRixenD/1/YXcANog4ewgo+vKjprPqJxMAfA6gel6khEA7CBxxxBENVTNz5kzhDoDw6ggBKq1E4Lnnnqu0u9I+75yMiPicKoB1QS7w9zvx+UIOEwJmqg80hW4zQaCzqacnnnhi6kSkgAAE2kpgcHCw7vqOOuqouvOSEQIQaA2BLVu2NKNguwtwf9ArM3+mkiAolOh1blZY0/eqHw08+uijwl0AJcYEgRgRsCv4I488soJHesiX2Gt5LG+JXWyCQMsJUEFpAvbhv02bNpXeWd1W5710OR/6rmnu/uCRR+75deDDdZbXu8CpSS1m+Yq2fv364iJzCEAgJgTm9c2XwUXH6D09HexN34+3yEfdLntscPAYmTdvfrSHNwhAID4E1q5d27AzOvi7nISrN6xY8bQd9aLPBL6tpVZ9u1/TlpzsswAbN24suY+NEIBA5wjY1fzixYvFruxLedHT0xPtW7JkCc/9SwFiWxsJUFUpAo888og08Ox/QpHOuW/ZBhUAQ4G44HYpfBDQRMD42/62LrW87FEAIqAWYqSFQHsI2If65s2bJzbImxgws88I2PoZZ5yhV/3z2uMItUAAAjURsMH/qaeeqilPhcShy/llIktzgcjyYNPhs1Y751dqBqfW8GQiYOVKK67hoigAAhBoAQETA2Z2Z6AFxVMkBOomQMY9BOyZ/4MPPihNHPxFb/mv2rB69SqRbc4EQCjLRXTjzVJ42VV/w0LAHgcsX75cuBtQgMo7BCAAAQhAoFoC9mn/u+++u2m3/Yv1Bt59Wsd7HeeX26eBJBT5cX7WPr23OQmfcM6+I1hM2vjc7gaYELA7Ak1VMY27RgkQgAAEIBArAtl2xi6c7Xa/jZkNftp/L5B6Vb/L2Qf+jzj4NhGvqxLqHQBLd3lw//33vxi48EYJI1FgG5tq4wOz4O69917BYEAfaG0fuO+++wSDAX0gnn2geP6zMdGstRfKPhcE4T9u/vGPd4mc3GUD/KgAWKZ3AUQOP+iAz6syaMvH+Hfs2CETbfvE9RdfkB1mxXS2jBWYtIDDizuUt9pLL7wgWHIY7NA2s7YrZzu0Pcvbb2XHdm33SvaCpqlYhuZnv5RnDJ9a2GQt7Ys6vpnZ5XitJnbzPjIbyqsw7zf3ykFfFKtI7o8yRAJAHwZEK3fd9bpdQU6u1dsEouZGzevc1kvaHidMQ2BJ4zGhbbUz6WMg7R8hliQWXtsLK3l+mtC/YQSjlPWBaOAu/2Zjt1nU7jlx716z5r+3i+iDfpFo2I8EgAoCr2s6Gwo3P7Lq3wLxX5I9L91eSLxnU6uWQi0YEx18OmGcLMPoQEkah/r7ih5uVU2hpsLq5wy76tjBqTZOelhWnmzsVnN5fbz/vzetW/kfIkM25jvNlleLfv7L5qJbvC7oTKTroH3fG0i4SteLk223/cV15hCAAAQgAAEIxJpANPiv7HUHXVtwc8ie/ZvSilaD6H3PWzTIr7/759u7ut3v5STcvWeXaYR23QkYVyuLEIAABCCQegIE2DABG79tcLe5Ddi7cpJ/satLrl6z5r9eEIk++T8yvpbJAmB0n3Pr7YcCcsFlk0SA7Y8KtwUMAhCAAAQgAIG4EHA2Pkdmn+eSwL1j/eqjVxS8sxv5YvsKq/peRgBED6Fl0yNP/MTl3NVBYVWTj00TChnbygIEIAABCECgZgJkaAIBHeF9TssJcs7ng8C9a9Oa2d8WWabP+8c++Ddh7C4nALQMm5777cZHdn9TS3uzioCd4pwWZNtFK5qoJKKtvEEAAhCAAAQg0DECOlb7wMufbFyz+2siy4u3/IsDv43dY75NIQBskF+/a+Mjl9/WFbjfz3n/okhOnzEEZk4kmhcLHiuUBQhAAAIQgEC1BEjXFAJer/yHAwmWbli3+vMi623wd1qyWclxeioBoHltGgrXr1n13S7pPicQtyUIu3XoV/M5CVRrjJot12xWOgYBCEAAAhDIHoFAQ27ENLvYhbro4/5wS65LTt24buW3dGtOTS/U9b0wOZ2Z6WzPZDXvWau45Py6dQ88sO+08GQn9q8EJRQfWH4zUxdWmZktVyyJnRCAAAQgAIECAd4bIaADsAtceFuw74zj16++/EER53QQrmos1rxS9cuLdw899KbnN2345e8HufAi50L72eCdWoApCyvL5lq3ioOCKrFlM03CBAEIQAACEIBAswgE4h4PRC7bvPbhKzbef/92kSHxOvbqQKwzmfKleadMM5bAifNehrTgoWDj2jf+cHrP/EXO5f/aOf+4C3zxeYOV6TSTpjNfIjM1Mt7G72NZIkZwaC8H7aJMEIBApwlQf9UERseIUOfhM4HzQ3OOmNW/cd2qb1oJulEnCXXwtbltmtJssJ4y0eQEQzIkIqvc6tVHj2x682UfP2zWvgPe+Q9LEG7WHbvUbLKy1RcpZeYg1t4BL+u8rU+OtyKP8dtYhgAEIBAnAnvOU3q17Vy4zgXhn/UctM+8zWtXXr98+XK7A29XkPY9P0tbk+82SNeUQUdzr8N/WPhuoS5p7rte97pdm48bvGnzvtMGgpx/lTh/qzr6mDhNZiZ7iQCrFxOBQfsYCC8IQCBuBPCnPAEdP/WC3kn4mF4r/r0O/OdsedkhR29Z8/CN6++++7c66jvNa2YDrNflmicbgGrONC5DKB+NHgmIHH20l76+cOMVl/1i87qV79jU7fu7uv2xgQv/RB3/nN4d+LHak+J8XgqiQPQVRchc4CAtZVA8OOxgmWza/ZiSSiAIAjFzzpo1qVHgNwQKQ4BeOD+l4+NPda5jpn+vC3J9W444ZN6jxy/64JbDZt0jS5ZYQhkd/A1b8dxmyzVbowJAVHp4GdKT90dVCNyxrCAIvG5dtWp4/apVqzeuWf1Pm9auunbz2lXnbX7ZIa/YvG5R7wEzuw/sCXoO6XYyv1cCDAYt6QPTg1x/kOue19Pr5uvyvMAFl4gUf8wqmnup4zVz5kyZaPvqOjZzZrsZzJTu7m7p6uqSXC4XmYkBM+fqFARBbmkuyC3s7vbztd/0Y66lDLLON8jl5nZPd4ceMWu/GY+uW+W2rF11+KNrV52t82sfXbP65i1rVmyS5ctH5OhlXn68PB9dcHsdX+s4b5XKEpTaWNc2F2kSc81H+Z3zUrRog75ZILIs/8ADD/xm7dr7n1m37qGNGAxa1QfW6MGz+ZEHNq9fuXKDLXcFslV74ejk6xohbLBxzmnXLpgEOcE6x6C7u1d6eqbJtGkztE1yEur1kZmPmtdOb1PZaHcYnXX5kac2XXHpug2rV69fv/KyTZXtoY3rVxZt5QbrZxgcaukDdn7asGLF03fddddLo12w9GxIL7LHj7HF5dKpx2/1ulLW7OjQ/U2ezLkmF0lxEGgGgXEdftxivSVbEWb15idfYwSay36stMJHm9Q1W6hkTtMUTReZaiRA8k4TGOvznXaE+iEAAQhAAAIQaB8BBED7WFMTBCAAAQiMEmDWeQIIgM63AR5AAAIQgAAE2k4AAdB25FQIAQhAIOsEiD8OBBAAcWgFfIAABCAAAQi0mQACoM3AqS75BGbMmCFY/Bgkv2dlJwIijQcBBEA82gEvYkzAOSfOTTT7sRkskDgxiHEXwjUIxJIAAiCWzYJTEIAABNJKgLjiQgABEJeWwA8IQAACEIBAGwkgANoIm6ogAAEIZJ0A8ceHAAIgPm2BJxCAAAQgAIG2EUAAtA01FUEAAhDIOgHijxMBBECcWgNfIAABCEAAAm0igABoE2iqgQAEWkGAU1grqLaqTMqNFwGOnni1B94kkIAXJ1j7GYjXOp3oLChrLe5OWvtYDbbcCRtzgAUI1EoAAVArMdJDAAKxIKDjfyz8wIlqCZAubgQQAHFrEfyBAAQgAAEItIEAAqANkKkCAhCAQNYJEH/8CCAA4tcmeAQBCEAAAhBoOQEEQMsRUwEEIACBrBMg/jgSQADEsVXwCQIQgAAEINBiAgiAFgOmeAhAIPYEwth7mHAHcT+eBBAA8WwXvIIABNpAQE+AYc65UOdRbc45L7LKvs8vQyJShTlN07BppVKPCS8INECg2O8bKIKsEIAABBJJQMdcG/C9ziP/fRD6EZGjR9d1aJdmmpR9XS/ixpuk6kUwcSWAAIhry+AXBCDQBgI+p8N/92hFzudyek60OwBDQTOH/kJZQ1L8kyleiIEpALG7KQSCppRCIRBoAoElS5Z0LViwYN+XDw4e1AozF1vxsNeJ58eAO8TA2tSu4UtbTa0dOicviM/P7u9ff9DChbcdOG/et2Y1av39/3LwwMDXDnrFsd/cf8GCr8+cM2d5j8jyYEi8V1EQDkVzWy5KA91qQY2zohgYtylRizgbXwJBfF3DszQQ8KJjo0Svsb7WPzh4wrz5g9fOmT9469yBo++ZM3D0E3PmHzOy+fFtw7vCrt92Dbtfm3WPBFu7h92T3SPuqWbYcBjeKWJu1Gbe6xA/asPDedm6dZs89dTTak/J1iefwDrM4Gmt3ywc3i2BD8cs6nVTv/nRJIH3sk8+dF8eccNP7sznngldfmslywf5rVPYk1bWbt+9Ndjpt+0Ku5+T7m0vzZm/bXjOwDGPz5l/9M+13/+vvv7Bd/X337FQ5P/onYhVTiVAOOrThBlCYAIOVppAwM6ETSiGIiBQmoATvTTUXQMDAyf1DSz6h7kDCx/Pj8jdw+JuDsVdlffB4tAHh+tyLtTBebzlvevKS9CjabqbYd4HeoL1OXWnOKl7xcX65oGM95jlTvAQF0opM1+k8mtS+7u8F9lPpNBHVPNJJbOiw0l9dtJ6EIqzfj06j5YlShP1+eBUXb5qxHX9w4hzq/rmd2/om7/qUwMDg68aiu4MSFhKDCRLCBglLK4EEABxbZmE+OVl7ApfSr3mLhh8y5z5i36x2+fuCb2823v3srx3OhCLZt3LJhdRKk0ztk2uh/XsEhgnAgoDv6KwPmYde7furN2cDDs1cW5ExOULpuO+lLSorlCFhJfgkFDce3d799O5A8fcPXdg0VtFluZMBHxUxBfnMvGlLk7cwBoEqiWAAKiWFOlKEih39unvX/javvmL1vrQfyWU4Hi1sZuzWpBXY4JAXAiM7487ReyWgo64Ij26o3bz0uXV9CI+GrKytAAAEABJREFUp6WMmo7wUtJEX1qN+LwE3aEEdpyEOj9ek3+xr3/lg3YsOS1I04nNywgB2x07w6F4E0AAxLt9Yu6d3iDVM914J+cMDh42d/7g/9Fbmv8WiszTE5nOxqeYvBzqOW3MdKclH7Px+5q5PLmeBtY1K1OaCEzTsbbR86L2VRurI5uCzYS+r/mivu+8D/Wxl3SHLjhaj6Ufzpm/6Gt9J520f7EwTejVbHV0ZosYBGoj0GhHr602UqeTwNBQ1I/mLDrutHA4+O+8uDfbwK9mJyezdMZNVGkhMLmPTl5vR5zFOm1uFtUZyQEJnJfgUv/bl1bOHRg8S6RwvGkCP2pO5zGccCnuBKITd9ydxL9YEZh4srn+eidDQ+FRA0f/YTiS/5lz/shRb61vTUw7uoMZBCBQGwEv0qvC+uXe+3+fM/+Ot4kM9uidCju+dFd0p8GWayuU1JknYCfpzEMAQM0ERvuNXph86Us9cwaO/XMv7p+sFH0i0KVzr8YEAQg0l4B9PqBXB/5b5w6E14pcrsdh9CTAjrfYCYDmhk5prSCgHagVxVJmygmMnWzmds/4o9CHHy984GnsSmRsf8o5EB4E2knAjisXShB6726aO7DqfbI0EgHmg9e3aL/OmSBQFQEEQFWYSDRKwE4wtpi3N/uaUt4Fn7ZlNdtnJyEzXWWCAARaRCAIVQTkVQTMeXDlZTKkj+Gib9SOCfAWVVtLsaRNAgEEQBJaKT4+enXFTOYtOu6YvA9u0XWbom26YCLATBeZIACBFhKwc7feCQhumXf7twZF9HGcDMnoi2NwFASzygSsE1VOwV4ITCJw+umnTx/J57/pXc5+0Mf2csIxChgE2ksgCF1u5kg+/Gr/BRf0ylL7J0ZL7VgsWnu9GVcbi8kggABIRjvFx8uhoeDxZ7Z/3EtwlIgP9Nn/VH2oeDIqN49PbHgCgVECoc6rMU3W4GSHTyPmVQQEg8PrH/uYLFumj+aOHn83rkHfyJ52Atbz0h4j8TWRQP8dd7zSiX+7nmXs6l9n0XNHmzexFoqCAASqJKCHo+/SJwDvmzN/8HiRIdMtxawmuovLbZxTVVIIIACS0lJx8HPp0tzwiLsxdMG+k9xp4ERjXTDBpjdB7EYIpm0YRxaTOmq5VRs1x9vkdF57eCtscj31rbt8KEG3d+5TsmRJl0j0GKBYlHpeXGQOgYkE9KiduIE1CJQjMPfB1cd4L+eW2O9LbGMTBOJPwERL/L2s6KHeAtBb/xLqsXne3Me3niH9v1QRoGsVc7VuJyUnhwACIDlt1XFPQy8f9i6wPtO0Ad/recp7J87lJJfrlu7uXuntnS7Tps2Q6dNnYjBocR+YLtOn7d3Pps2YKeOt2BfHbyssT9d05W3GPjNl+swZUZqeab3S1dMtQVdOJHDNOp69OHHOSV6PTfuhoGtl//3tZkazyqecFBMIUhwboTWNwJKueccdN9uLXFYo0jXpBBPIUUfNlWOOOUbOOOMMOeecc+TMM8+UxYsXy0knnYTBoA19wPpaDXaipq3BTjzhZDE7+aRT5IzTXyVnn7VETj/tTDl68Fg56qijCodTY+/Oe+kWr3/iVKPLZYtelFkiTg9X6cCLKpNEAAGQpNZqv69Oq9Q+snxk5KXwD+wKQ9ebMvjPmjVLTjvtNJk7r09mHTJburp7JK+nLy9Ocl3d0brN42xdesciUF8xu6qNp1kbVTRtvy4zbctK6Yr9MEpr6au0XK5LLI/NdaCWvD6tt/VZsw6RuXPnyVlnnSWz9FiQBl963OTsUYAdoy/md18xWpwdv6OLzCCwNwE9ue+9kS0Q2ENgSSBDQ4F3/g26TU8o9VxZWDfbY3biO+aY4/Q2/zQtMrmTPrlIrvN4HhEwNWsWrYy+tatdddAWHbBl0aJFMmfOnNHaa5vZ0VgwnyvMxYuEF8qg/bOgWTO1NF3X9zZNVJMsAnZWTpbHeNtGAnruWCIyeMcdB4h3Jzof6o3FonnVBKH5oqJAL9ttqaRZF9tjhx9+hN76nKspR7c1eLa17J0yDUKxCKY9oFNt0K56ra1bYblcTuwO0ivmzJWXv0IfCQT2+YCCmTioZEV/AgklMhe6QOy4dKf1TZ8+XV4+baSYhjkEShEISm1kGwQKBPSaYsmS8MUwd6yu96r5wnCnS1VN1r3MContVueCBQsKKyl49zrwNRqGlYEVelVcODTapvXm7+vTx2E1Pg4IdPAv1qdD/+jB5nvdjl1Hy6/6h4v72jOnlqQRGO0wSXMbf9tGYGgoFB+eoKfoUn2lpiGwv7+/brfLDQ51F9jmjEn3v824MludiYDSwdvdtsk2OWWxl0ngQ3+8yHLuAExGxPoEAqVO6hMSsAKB0IueTJydfbzU+bKr/2nTkv3Mv87QyQaBqgn09vY2+KFAvWsnEobe6V07EwRVV91wQgpIHgEEQPLarL0e631Ffcj9MtG3Rio+5JBDaspup67xVlPmGCQe77stx8AlXEgIgX322adhT/XW3DyR63XWcFEUkGICCIAUN25TQrv+eifOH6BlOTWdoisMndc2rO2///6ahwkCEJiKwOzZs6dKUmF/dFzaQaoqYnkbz+8VXGJXbAnQQWLbNDFxbGgo1LOJnkxkVAC01i87fZm1tpbWlW6+m7WuBkrOFgF78mZWjNqWx1tx+4S5Hqten7fxGYAJVFjZiwACYC8kbJhAoL+/V4f+6RO2sQIBCMSZgFfnekXsHwPpUhsmqkgmgSCZbuN12wjsv3/oxT2j9Xk1nTpzfRvqNU0pU4cSMZXy3bYlwnmcjAGB4lV/RVf0KIn2O+fkhWiJNwhUIIAAqACHXUrgoovy4uVZXbKpeILRZX0woO/VTs8//3y1SUkHgUwTePHFF+uN30R6dIzqgh6zS0w11FtWDflImlQCCICktly7/B4a0pOIf0Ik+hqg6Cs6wei8pmnbtm0V09t9BbPJiewq2Wzy9ritm+9mk/0y380mb2cdAuUIPPXUU+V27dluh6PZni22tOfY9KKF2LFrmzEIlCaAACjNha3jCAQuWOPEFy9L/LhdVS8+88wzsnPnzqrTkxACWSSwa9cusWOlwdh94NzaBsuoOjsJk0sAAZDctmub5y4IV3nnih8E3HOVUaMHW7ZsqTEHySGQLQKPP/54MwL2PvArm1EQZaSbAAIg3e3blOi6w65fOO/1UYBMHvxruhvw5JNPytatW5viE4VAIG0EnnvuOWlAANixGB2fzrkw15P7ZXv4UEuSCSAAktx6bfJ97doH7bJk9Z7qfHSi0fXiXBermx5++GFEQHWoSJUhAjb4r1xZxUW7Pfc3K80mEgHe+5XrV6z4VekkbIXAHgIIgD0sWKpAQIf8HzonNf53MbtpYDax4MkiQMuemIA1CGSIwGOPPSalB/+9j53JWEqk8M65709O16p1yk02AQRAstuvbd7nRG5zPuwarVCv/H0NfcdOUxPt4YdXyV13/1x+/dyzsmPnS+IDJ0F3l9gn5ofDvIzYE4dcIEGAwSC5fSCfz4sOyKJX5TI8PBzNu7q6ZPfu3Xon7ClZvvw/ZeP6deLzI5GJ9v2iOT0G9piI0+t7FwZSNPGB2GvckaXHZei6fLjMtmMQmIpAoQdNlYr9mSew6cqlD4mTuxSEnmT0XXRNGnvt3PmiPPjgA/LL++6X++6+Rx64/xfyyKrVsn7NWln78CPy0EMPYTBIdB9Yu3at2B0vm2/YsEFWrVold999t9x3332yds0acTqoi4wbwicsV318RaVYahUbP123bvUDttx6o4akE0AAJL0F2+X/0FCYE7k5kPAlrbIpIsBOfoFzkh8Zlhd3vCDPPftr2fb0Vnl661PR/NdPPy1T2bZtT0tH7Rmt36zTflB/Z/tBGf5btS8/9dST8uSTT4jNn3lmm2zf/lu9A7BLwtAGfj2amjM5PTZFZflnhRcEqiSAAKgSFMmGgg1rD/2miFsjTX2VPwmayoi7FVGU8tP2BV6kklkap2+Y6NiVLZOxq31p5KU9LMquc7d605rf/l+Robac16NaeUs0ATpKopuvnc4PRZUFEnxMrzTKj9pRqurf7C7Anuecod4STZHpCd5VYxOe9aYofuKasj9Xf6SUTel0j8s5nw+cv07kV3qHbkjFgG5lgsAUBBAAUwBi9xiBUOQQv3HtQ98W5743trXhBS1WB8k9V0PpWa9W2KQxdmKqph83fPCMFaAj/o82rn34+6NX/7o6tqtFCxSbBgIIgDS0YttiWOZFrzemBeH79GrjubZVS0UQgEA5Al7vyD3fNa3rj0QGe1QA+HIJ2Q6ByQQQAJOJsF6JgJ5crnePPDLzcRH/Lj3xVErLPghAoMUE9ATuXOD+uPDDP6t3a3V6jOp7iyeKTwcB7T/pCIQo2kJATy72fLEv3Lz2mG/oc8cb9E7AjrbUTCUQSCEB7wKp1wyHk/DDm9Y8/QNbxiBQKwEEQK3Esp1eHwAYgGV5kWX5DWt//XHxssy2jJoKBN0yusIMAhBoKoGJx5dzyzY9vuVWkWe2N7WWKQsjQVoIIADS0pLtiWP8CUjFwJKX5hwx+12BC79VqD76kXJLU1jlHQIQaCYBPeYKxel9g2+f+spFb5EXX3yisIV3CNROAAFQOzNyFAjoQL8sXL58+c6ucPhKPSH9c86FoYh9sS/6WL/uF14QgEBjBCYcR058PvD+1rkvm3X5smXLdjdWdH25yZUeAgiA9LRlpyIJ1q9fv2vzutnXioQfKIgAsX5lVysTTl6dcpB6IZBgAl6ce1H9907CHV2Sf++WtQ+9Q4X3iIhu0h1MEKiXgJ2o681LPgh4RRDqmw72y0c2rX34H5y4M3MSrtPtoieuvL6pCS8IQKB2AnpoaSbvZ+gdtjVdzi3Z+Oy2r+hxVdheuNumCdo5UVeaCCAA0tSaHYrF6aWInpF05tzGtavuXdg/59ic+OvUduqunJ6w9GpFNEmHHKRaCCSTgAt8+IITPzSzK3zlxjUr75Nn+MBfMpsynl4jAOLZLonzSkd/G+C9DEnwgx88HW5at/om6XH92sE+Iz7cLfaxAOcRAsILAgUCpW7gu9GfTw68f17tq7luf+yjax76n6tXR9/xL2Ts4DtVp4uAnp/TFRDRdJSAl4+KF3+/DfSyaeXKrZvf/KYP9uzTPUdvYb7PufxqJ+Gwd6HsMfF2IsREmWBZ6gcSvUIpDvo2DyS8P+f8h2Z05RdtWbfyLRtXr35U76CZuI5S8waBZhJAADSTJmWJOPGRyehraChc/8tfbtv85ss/t+U3z57hpwWLcoF/p3P+XzTpBr3HOSL27QEVBToXLIRBhvqCHgMbcy78clfg397T6/o3D7/0qk1rV3/q4YdXPyWyNCcSp//sJ7xSRgABkLIGjW04KgRk69Ydjz700MbNj6z+/KNrVr/x0TWr5geHzd6vO5CFToJXBeJe7cQtVbs8cP4yDAZp6wMukNd0BXJOl3QvPLC3ezXALpMAAANcSURBVJ9Hu2SRDvhXbVyz6kvrVy7aLJuv0sdloi/7Oq394NaQKkJdZYJACwgELSiTIiFQHQG9DbB5+fKdGx9+eJ2Kgf/esmb1fz56xeXfevTw2d/eEgTf27Jz579iMEhFHxgZ+b/Wpx+dMePOTYce+rNNxy1Yv2LBip1y+eoR0VtmBYv3gC+8UkcAAZC6Jk14QHanYPnyEbEPPW3evFMwGKShD6xfvyvq0/ffPyzWv5fpYL9M8jJkn47Vx2YSmfCCQDsJIADaSZu6IAABCCSSAE6nkQACII2tSkwQgAAEIACBKQggAKYAxG4IQAACWSdA/OkkgABIZ7sSFQQgAAEIQKAiAQRARTzshAAEIJB1AsSfVgIIgLS2LHFBAAIQgAAEKhBAAFSAwy4IQAACWSdA/OklgABIb9sSGQQgAAEIQKAsAQRAWTTsgAAEIJB1AsSfZgIIgDS3LrFBAAIQgAAEyhBAAJQBw2YIQAACWSdA/OkmgABId/sSHQQgAAEIQKAkAQRASSxshAAEIJB1AsSfdgIIgLS3MPFBAAIQgAAEShBAAJSAwiYIQAACWSdA/OkngABIfxsTIQQgAAEIQGAvAgiAvZCwAQIQgEDWCRB/FgggALLQysQIAQhAAAIQmEQAATAJCKsQgAAEsk6A+LNBAAGQjXYmSghAAAIQgMAEAgiACThYgQAEIJB1AsSfFQIIgKy0NHFCAAIQgAAExhFAAIyDwSIEIACBrBMg/uwQQABkp62JFAIQgAAEIDBGAAEwhoIFCEAAAlknQPxZIoAAyFJrEysEIAABCEBglAACYBQEMwhAAAJZJ0D82SKAAMhWexMtBCAAAQhAICKAAIgw8AYBCEAg6wSIP2sEEABZa3HihQAEIAABCCgBBIBCYIIABCCQdQLEnz0CCIDstTkRQwACEIAABAQBQCeAAAQgkHkCAMgiAQRAFludmCEAAQhAIPMEEACZ7wIAgAAEsk6A+LNJAAGQzXYnaghAAAIQyDgBBEDGOwDhQwACWSdA/FklgADIassTNwQgAAEIZJoAAiDTzU/wEIBA1gkQf3YJIACy2/ZEDgEIQAACGSaAAMhw4xM6BCCQdQLEn2UCCIAstz6xQwACEIBAZgkgADLb9AQOAQhknQDxZ5vA/w8AAP//0vkOogAAAAZJREFUAwDG1QAL+dT05wAAAABJRU5ErkJggg==;" parent="1" vertex="1">
          <mxGeometry x="245" y="165" width="80" height="80" as="geometry" />
        </mxCell>
        <mxCell id="z01fHJIEKEKhJBYuUMuz-3" value="&lt;div&gt;&lt;span style=&quot;background-color: transparent; color: light-dark(rgb(0, 204, 0), rgb(153, 255, 153)); font-size: 14px; text-wrap-mode: nowrap; font-family: Arial;&quot;&gt;Cliente POS&lt;/span&gt;&lt;/div&gt;&lt;div style=&quot;text-wrap-mode: nowrap;&quot;&gt;&lt;span style=&quot;background-color: transparent; color: light-dark(rgb(0, 0, 0), rgb(255, 255, 255));&quot;&gt;&lt;br&gt;&lt;/span&gt;&lt;/div&gt;&lt;div style=&quot;text-wrap-mode: nowrap;&quot;&gt;&lt;span style=&quot;background-color: transparent; color: light-dark(rgb(0, 0, 0), rgb(255, 255, 255));&quot;&gt;- Interfaz Web&amp;nbsp;&lt;/span&gt;&lt;/div&gt;&lt;div style=&quot;text-wrap-mode: nowrap;&quot;&gt;&lt;span style=&quot;background-color: transparent; color: light-dark(rgb(0, 0, 0), rgb(255, 255, 255));&quot;&gt;- AplicaciÃ³n de escritorio&amp;nbsp;&lt;/span&gt;&lt;/div&gt;&lt;div style=&quot;text-wrap-mode: nowrap;&quot;&gt;&lt;span style=&quot;background-color: transparent; color: light-dark(rgb(0, 0, 0), rgb(255, 255, 255));&quot;&gt;- MÃ³dulos: âVentasâ, âInventarioâ,&lt;/span&gt;&lt;/div&gt;&lt;div style=&quot;text-wrap-mode: nowrap;&quot;&gt;&lt;span style=&quot;background-color: transparent; color: light-dark(rgb(0, 0, 0), rgb(255, 255, 255));&quot;&gt;&amp;nbsp;âReportesâ, âLoginâ&lt;/span&gt;&lt;/div&gt;" style="rounded=1;whiteSpace=wrap;html=1;fillColor=default;" parent="1" vertex="1">
          <mxGeometry x="150" y="245" width="270" height="100" as="geometry" />
        </mxCell>
        <mxCell id="z01fHJIEKEKhJBYuUMuz-4" value="&lt;div&gt;&lt;font style=&quot;color: light-dark(rgb(204, 204, 0), rgb(255, 255, 0));&quot;&gt;SERVIDOR&amp;nbsp;&lt;/font&gt;&lt;/div&gt;&lt;div&gt;&lt;br&gt;&lt;/div&gt;&lt;div&gt;&lt;span style=&quot;background-color: transparent; color: light-dark(rgb(0, 0, 0), rgb(255, 255, 255));&quot;&gt;- Backend Django REST (Python).&lt;/span&gt;&lt;/div&gt;&lt;div&gt;&lt;span style=&quot;background-color: transparent; color: light-dark(rgb(0, 0, 0), rgb(255, 255, 255));&quot;&gt;- Servicios REST/JSON.&lt;/span&gt;&lt;/div&gt;&lt;div&gt;&lt;span style=&quot;background-color: transparent; color: light-dark(rgb(0, 0, 0), rgb(255, 255, 255));&quot;&gt;- Control de roles y autenticaciÃ³n.&lt;/span&gt;&lt;/div&gt;&lt;div&gt;&lt;span style=&quot;background-color: transparent; color: light-dark(rgb(0, 0, 0), rgb(255, 255, 255));&quot;&gt;- Procesamiento de Ã³rdenes, facturaciÃ³n, reportes.&lt;/span&gt;&lt;/div&gt;&lt;div&gt;&lt;br style=&quot;text-wrap-mode: nowrap;&quot;&gt;&lt;/div&gt;" style="rounded=1;whiteSpace=wrap;html=1;" parent="1" vertex="1">
          <mxGeometry x="580.01" y="235" width="223" height="130" as="geometry" />
        </mxCell>
        <mxCell id="z01fHJIEKEKhJBYuUMuz-5" value="&lt;div style=&quot;text-wrap-mode: nowrap;&quot;&gt;&lt;font style=&quot;color: light-dark(rgb(255, 153, 51), rgb(255, 179, 102));&quot;&gt;BASE DE DATOS&amp;nbsp;&lt;/font&gt;&lt;/div&gt;&lt;div style=&quot;text-wrap-mode: nowrap;&quot;&gt;&lt;font style=&quot;color: light-dark(rgb(255, 153, 51), rgb(255, 179, 102));&quot;&gt;&lt;br&gt;&lt;/font&gt;&lt;/div&gt;&lt;div style=&quot;text-wrap-mode: nowrap;&quot;&gt;&lt;span style=&quot;background-color: transparent; color: light-dark(rgb(0, 0, 0), rgb(255, 255, 255));&quot;&gt;- Base de datos MySQL.&lt;/span&gt;&lt;/div&gt;&lt;div style=&quot;text-wrap-mode: nowrap;&quot;&gt;&lt;span style=&quot;background-color: transparent; color: light-dark(rgb(0, 0, 0), rgb(255, 255, 255));&quot;&gt;- ConexiÃ³n TCP/IP segura.&lt;/span&gt;&lt;/div&gt;&lt;div style=&quot;text-wrap-mode: nowrap;&quot;&gt;&lt;span style=&quot;background-color: transparent; color: light-dark(rgb(0, 0, 0), rgb(255, 255, 255));&quot;&gt;- Almacenamiento de usuarios, productos,&amp;nbsp;&lt;/span&gt;&lt;/div&gt;&lt;div style=&quot;text-wrap-mode: nowrap;&quot;&gt;&lt;span style=&quot;background-color: transparent; color: light-dark(rgb(0, 0, 0), rgb(255, 255, 255));&quot;&gt;ventas, proveedores.&lt;/span&gt;&lt;/div&gt;" style="rounded=1;whiteSpace=wrap;html=1;" parent="1" vertex="1">
          <mxGeometry x="950" y="235" width="250" height="120" as="geometry" />
        </mxCell>
        <mxCell id="z01fHJIEKEKhJBYuUMuz-8" value="" style="endArrow=block;startArrow=block;endFill=1;startFill=1;html=1;rounded=0;exitX=1;exitY=0.5;exitDx=0;exitDy=0;entryX=-0.012;entryY=0.417;entryDx=0;entryDy=0;entryPerimeter=0;" parent="1" source="z01fHJIEKEKhJBYuUMuz-3" target="z01fHJIEKEKhJBYuUMuz-4" edge="1">
          <mxGeometry width="160" relative="1" as="geometry">
            <mxPoint x="450" y="291.97" as="sourcePoint" />
            <mxPoint x="610" y="291.97" as="targetPoint" />
          </mxGeometry>
        </mxCell>
        <mxCell id="z01fHJIEKEKhJBYuUMuz-9" value="ComunicaciÃ³n segura&lt;div&gt;&amp;nbsp;HTTPS&lt;/div&gt;" style="edgeLabel;html=1;align=center;verticalAlign=middle;resizable=0;points=[];" parent="z01fHJIEKEKhJBYuUMuz-8" vertex="1" connectable="0">
          <mxGeometry x="0.113" y="-2" relative="1" as="geometry">
            <mxPoint x="-2" as="offset" />
          </mxGeometry>
        </mxCell>
        <mxCell id="8tq50gRcpHKqIYgWlmL2-1" value="&lt;b&gt;&lt;font style=&quot;font-size: 14px;&quot;&gt;Arquitectura del Sistema â StockMaster POS &lt;/font&gt;&lt;/b&gt;" style="text;html=1;whiteSpace=wrap;strokeColor=none;fillColor=none;align=center;verticalAlign=middle;rounded=0;" vertex="1" parent="1">
          <mxGeometry x="564.47" y="60" width="254.07" height="50" as="geometry" />
        </mxCell>
      </root>
    </mxGraphModel>
  </diagram>
</mxfile>
